<svg width="884" height="932" viewBox="0 0 884 932" fill="none" xmlns="http://www.w3.org/2000/svg">
<path d="M816.641 855.512C916.754 805.388 885.004 614.361 842.277 569.894C632.062 426.229 810.09 136.85 606.426 32.8634C402.763 -71.1235 181.527 86.962 81.7431 292.827C-253.233 1006.02 531.123 998.46 816.641 855.512Z" fill="#8B8BAE"/>
<path d="M747.162 631.967H140.909V757.105H747.162V631.967Z" fill="white"/>
<path d="M747.162 758.198H140.909C140.619 758.198 140.342 758.085 140.137 757.885C139.932 757.684 139.817 757.412 139.817 757.128V632.083C139.817 631.943 139.845 631.804 139.9 631.674C139.955 631.544 140.036 631.427 140.137 631.327C140.238 631.228 140.359 631.149 140.491 631.095C140.624 631.042 140.766 631.014 140.909 631.014H747.162C747.305 631.014 747.447 631.042 747.579 631.095C747.712 631.149 747.832 631.228 747.934 631.327C748.035 631.427 748.115 631.544 748.17 631.674C748.225 631.804 748.253 631.943 748.253 632.083V757.245C748.224 757.508 748.096 757.751 747.894 757.927C747.693 758.103 747.432 758.2 747.162 758.198ZM141.953 756.059H746.07V633.037H142.001L141.953 756.059Z" fill="#D1D3D4"/>
<path d="M747.044 631.967H141.028C135.838 631.967 131.63 636.09 131.63 641.175V642.942C131.63 648.027 135.838 652.149 141.028 652.149H747.044C752.234 652.149 756.442 648.027 756.442 642.942V641.175C756.442 636.09 752.234 631.967 747.044 631.967Z" fill="white"/>
<path d="M747.043 653.219H141.028C138.246 653.219 135.577 652.136 133.61 650.209C131.643 648.281 130.538 645.667 130.538 642.942V641.198C130.538 638.47 131.642 635.854 133.609 633.923C135.575 631.992 138.243 630.904 141.028 630.898H747.043C749.828 630.904 752.496 631.992 754.462 633.923C756.429 635.854 757.534 638.47 757.534 641.198V642.942C757.534 644.291 757.262 645.628 756.735 646.875C756.208 648.122 755.435 649.254 754.461 650.209C753.487 651.163 752.33 651.92 751.058 652.437C749.785 652.953 748.421 653.219 747.043 653.219V653.219ZM141.028 633.037C138.823 633.043 136.71 633.906 135.153 635.435C133.595 636.965 132.721 639.038 132.721 641.198V642.942C132.721 645.1 133.596 647.17 135.154 648.696C136.712 650.222 138.825 651.08 141.028 651.08H747.043C749.246 651.08 751.359 650.222 752.917 648.696C754.475 647.17 755.35 645.1 755.35 642.942V641.198C755.35 639.038 754.476 636.965 752.918 635.435C751.361 633.906 749.249 633.043 747.043 633.037H141.028Z" fill="#D1D3D4"/>
<path d="M373.048 599.787H183.202V630.874H373.048V599.787Z" fill="#231F20"/>
<path d="M373.048 631.897H183.179C182.902 631.897 182.636 631.789 182.441 631.598C182.245 631.406 182.135 631.146 182.135 630.874V599.787C182.135 599.516 182.245 599.256 182.441 599.064C182.636 598.872 182.902 598.764 183.179 598.764H373.048C373.325 598.764 373.591 598.872 373.787 599.064C373.983 599.256 374.093 599.516 374.093 599.787V630.874C374.093 631.146 373.983 631.406 373.787 631.598C373.591 631.789 373.325 631.897 373.048 631.897V631.897ZM184.247 629.758H372.004V600.81H184.247V629.758Z" fill="#231F20"/>
<path d="M373.024 599.787H269.569V630.874H373.024V599.787Z" fill="white"/>
<path d="M373.048 631.944H269.569C269.284 631.938 269.012 631.823 268.813 631.623C268.613 631.423 268.501 631.154 268.501 630.874V599.788C268.501 599.51 268.614 599.244 268.814 599.048C269.014 598.851 269.286 598.741 269.569 598.741H373.048C373.331 598.741 373.603 598.851 373.803 599.048C374.004 599.244 374.116 599.51 374.116 599.788V630.874C374.116 631.154 374.004 631.423 373.805 631.623C373.605 631.823 373.333 631.938 373.048 631.944ZM270.78 629.758H372.075V600.857H270.78V629.758Z" fill="#231F20"/>
<path d="M370.295 577.28H216.572V600.322H370.295V577.28Z" fill="#231F20"/>
<path d="M370.295 601.345H216.572C216.295 601.345 216.029 601.238 215.833 601.046C215.638 600.854 215.528 600.594 215.528 600.322V577.28C215.528 577.009 215.638 576.749 215.833 576.557C216.029 576.365 216.295 576.257 216.572 576.257H370.295C370.574 576.257 370.842 576.364 371.042 576.555C371.241 576.747 371.357 577.007 371.363 577.28V600.322C371.363 600.459 371.335 600.594 371.281 600.719C371.227 600.845 371.148 600.959 371.049 601.054C370.949 601.149 370.831 601.224 370.702 601.274C370.572 601.324 370.434 601.348 370.295 601.345V601.345ZM217.616 599.299H369.251V578.373H217.616V599.299Z" fill="#231F20"/>
<path d="M370.295 577.28H304.671V600.322H370.295V577.28Z" fill="white"/>
<path d="M370.295 601.392H304.672C304.382 601.392 304.104 601.279 303.9 601.079C303.695 600.878 303.58 600.606 303.58 600.322V577.28C303.586 576.999 303.703 576.73 303.906 576.531C304.11 576.331 304.384 576.217 304.672 576.211H370.295C370.585 576.211 370.862 576.324 371.067 576.524C371.272 576.725 371.387 576.997 371.387 577.28V600.322C371.39 600.464 371.364 600.604 371.31 600.735C371.257 600.867 371.176 600.986 371.074 601.086C370.972 601.186 370.851 601.264 370.717 601.317C370.583 601.37 370.439 601.395 370.295 601.392V601.392ZM305.763 599.276H369.227V578.35H305.763V599.276Z" fill="#231F20"/>
<path d="M348.602 554.89H194.879V577.932H348.602V554.89Z" fill="#231F20"/>
<path d="M348.626 578.954H194.832C194.555 578.954 194.29 578.847 194.094 578.655C193.898 578.463 193.788 578.203 193.788 577.931V554.889C193.788 554.618 193.898 554.358 194.094 554.166C194.29 553.974 194.555 553.866 194.832 553.866H348.626C348.903 553.866 349.169 553.974 349.365 554.166C349.561 554.358 349.671 554.618 349.671 554.889V577.931C349.671 578.203 349.561 578.463 349.365 578.655C349.169 578.847 348.903 578.954 348.626 578.954ZM195.924 576.908H347.582V555.982H195.924V576.908Z" fill="#231F20"/>
<path d="M348.603 554.89H282.979V577.932H348.603V554.89Z" fill="white"/>
<path d="M348.626 579.001H282.979C282.837 579.001 282.696 578.973 282.565 578.919C282.434 578.865 282.315 578.786 282.215 578.686C282.116 578.587 282.038 578.469 281.986 578.339C281.933 578.209 281.908 578.071 281.911 577.932V554.89C281.911 554.61 282.023 554.341 282.222 554.141C282.422 553.942 282.694 553.826 282.979 553.82H348.626C348.912 553.826 349.184 553.942 349.383 554.141C349.583 554.341 349.695 554.61 349.695 554.89V577.932C349.698 578.071 349.672 578.209 349.62 578.339C349.568 578.469 349.49 578.587 349.39 578.686C349.291 578.786 349.172 578.865 349.041 578.919C348.91 578.973 348.769 579.001 348.626 579.001V579.001ZM284.071 576.885H347.535V555.959H284.071V576.885Z" fill="#231F20"/>
<path d="M271.278 571.491C274.017 571.491 276.238 569.315 276.238 566.631C276.238 563.947 274.017 561.772 271.278 561.772C268.538 561.772 266.318 563.947 266.318 566.631C266.318 569.315 268.538 571.491 271.278 571.491Z" fill="white"/>
<path d="M271.278 572.56C270.081 572.56 268.911 572.213 267.916 571.561C266.921 570.91 266.145 569.984 265.687 568.9C265.229 567.817 265.109 566.625 265.342 565.475C265.576 564.325 266.152 563.268 266.999 562.439C267.845 561.61 268.923 561.045 270.097 560.816C271.271 560.588 272.488 560.705 273.594 561.154C274.7 561.602 275.645 562.362 276.31 563.337C276.975 564.312 277.33 565.459 277.33 566.631C277.33 568.204 276.693 569.712 275.558 570.824C274.423 571.936 272.883 572.56 271.278 572.56V572.56ZM271.278 562.841C270.513 562.841 269.765 563.064 269.129 563.48C268.493 563.897 267.997 564.489 267.704 565.181C267.411 565.874 267.335 566.636 267.484 567.371C267.633 568.106 268.002 568.781 268.543 569.311C269.084 569.841 269.773 570.202 270.523 570.349C271.274 570.495 272.052 570.42 272.759 570.133C273.465 569.846 274.07 569.36 274.495 568.737C274.92 568.114 275.147 567.381 275.147 566.631C275.14 565.628 274.731 564.668 274.007 563.958C273.283 563.249 272.302 562.848 271.278 562.841Z" fill="#231F20"/>
<path d="M231.572 597.486C231.284 597.48 231.01 597.365 230.806 597.166C230.603 596.967 230.486 596.698 230.48 596.416V580.931C230.48 580.79 230.508 580.651 230.563 580.521C230.618 580.392 230.698 580.274 230.8 580.175C230.901 580.075 231.021 579.996 231.154 579.943C231.286 579.889 231.428 579.861 231.572 579.861C231.716 579.858 231.859 579.884 231.993 579.936C232.127 579.989 232.249 580.067 232.351 580.167C232.453 580.267 232.533 580.387 232.587 580.518C232.641 580.649 232.667 580.789 232.663 580.931V596.532C232.634 596.795 232.506 597.039 232.305 597.215C232.103 597.391 231.842 597.487 231.572 597.486Z" fill="white"/>
<path d="M252.149 628.293C252.005 628.293 251.863 628.266 251.731 628.212C251.598 628.158 251.478 628.08 251.377 627.98C251.275 627.881 251.195 627.763 251.14 627.633C251.085 627.503 251.057 627.364 251.057 627.224V602.88C251.096 602.62 251.229 602.383 251.431 602.212C251.634 602.04 251.893 601.946 252.16 601.946C252.428 601.946 252.687 602.04 252.89 602.212C253.092 602.383 253.225 602.62 253.264 602.88V627.224C253.264 627.366 253.235 627.507 253.179 627.639C253.122 627.77 253.04 627.889 252.936 627.989C252.832 628.088 252.709 628.166 252.574 628.219C252.439 628.271 252.294 628.297 252.149 628.293V628.293Z" fill="white"/>
<path d="M281.128 282.944L289.411 276.666L324.323 290.919L395.263 267.435L401.671 277.038L327.456 318.727L281.128 282.944Z" fill="#E6E7E8"/>
<path d="M307.116 394.759L278.493 279.967L324.109 299.196L406.465 269.969L427.659 385.9L351.783 411.523L307.116 394.759Z" fill="white"/>
<path d="M351.783 412.592C351.657 412.614 351.529 412.614 351.403 412.592L306.736 395.828C306.574 395.764 306.429 395.663 306.313 395.534C306.198 395.405 306.115 395.25 306.072 395.084L277.425 280.223C277.379 280.034 277.388 279.835 277.451 279.65C277.514 279.465 277.628 279.301 277.781 279.177C277.934 279.043 278.123 278.957 278.326 278.928C278.528 278.899 278.735 278.929 278.92 279.014L324.014 298.057L406.062 268.97C406.203 268.907 406.357 268.874 406.513 268.874C406.668 268.874 406.822 268.907 406.964 268.97C407.102 269.047 407.22 269.155 407.311 269.284C407.401 269.412 407.461 269.559 407.486 269.714L428.727 385.621C428.775 385.869 428.729 386.126 428.598 386.344C428.467 386.562 428.26 386.727 428.015 386.807L352.068 412.383L351.783 412.592ZM308.042 393.991L351.806 410.43L426.449 385.225L405.634 271.434L324.465 300.219C324.213 300.312 323.935 300.312 323.682 300.219L280.06 281.851L308.042 393.991Z" fill="#231F20"/>
<path d="M345.161 406.547C344.911 406.542 344.669 406.455 344.475 406.298C344.281 406.142 344.147 405.927 344.093 405.687L322.994 299.382C322.967 299.246 322.967 299.106 322.995 298.97C323.023 298.835 323.079 298.706 323.158 298.591C323.238 298.476 323.34 298.378 323.458 298.303C323.577 298.227 323.71 298.175 323.849 298.15C323.987 298.123 324.13 298.123 324.269 298.151C324.408 298.178 324.539 298.233 324.656 298.311C324.773 298.389 324.873 298.488 324.951 298.605C325.028 298.721 325.081 298.851 325.107 298.987L346.182 405.268C346.21 405.404 346.209 405.544 346.181 405.68C346.153 405.816 346.097 405.945 346.018 406.059C345.938 406.174 345.836 406.272 345.718 406.348C345.599 406.423 345.467 406.475 345.328 406.5L345.161 406.547Z" fill="#231F20"/>
<path d="M375.469 432.123C375.469 432.123 367.115 419.242 368.349 415.847C369.31 412.485 369.962 409.046 370.295 405.57L361.371 407.663C361.371 407.663 352.163 385.109 351.237 377.274C350.312 369.438 333.128 376.669 332.511 382.691C331.894 388.713 331.586 404.361 336.499 413.383C341.411 422.404 355.224 444.051 355.224 444.051" fill="white"/>
<path d="M355.2 445.213C355.015 445.21 354.833 445.162 354.671 445.073C354.51 444.983 354.373 444.856 354.275 444.702C354.132 444.493 340.39 422.916 335.525 413.964C330.66 405.012 330.778 389.597 331.395 382.691C331.894 377.878 340.604 372.925 346.49 372.879C347.16 372.788 347.842 372.83 348.495 373.002C349.148 373.173 349.76 373.472 350.293 373.88C350.827 374.287 351.271 374.796 351.6 375.375C351.929 375.954 352.137 376.591 352.21 377.25C353.017 383.993 360.255 402.338 361.941 406.5L369.962 404.64C370.128 404.596 370.302 404.594 370.468 404.634C370.635 404.675 370.787 404.757 370.912 404.873C371.041 404.985 371.143 405.126 371.209 405.283C371.275 405.44 371.303 405.61 371.292 405.779C370.933 409.341 370.258 412.865 369.274 416.312C368.633 418.033 372.431 425.613 376.394 431.542C376.508 431.777 376.529 432.045 376.456 432.295C376.382 432.545 376.217 432.76 375.993 432.9C375.769 433.04 375.5 433.095 375.238 433.054C374.975 433.014 374.737 432.881 374.567 432.681C373.119 430.472 365.999 419.195 367.328 415.568C368.166 412.79 368.738 409.941 369.037 407.058L361.608 408.802C361.354 408.854 361.089 408.817 360.86 408.698C360.63 408.58 360.45 408.386 360.35 408.151C359.971 407.221 351.094 385.365 350.145 377.483C350.145 376.878 349.86 375.018 346.609 375.018C341.387 375.018 334.006 379.668 333.65 382.9C332.985 389.573 332.89 404.477 337.519 412.964C342.265 421.846 356.078 443.377 356.221 443.586C356.37 443.827 356.417 444.116 356.35 444.39C356.284 444.664 356.109 444.902 355.865 445.051C355.67 445.18 355.434 445.238 355.2 445.213V445.213Z" fill="#231F20"/>
<path d="M638.652 444.981C638.476 444.982 638.302 444.941 638.147 444.861C637.991 444.781 637.858 444.664 637.76 444.522C637.661 444.379 637.6 444.215 637.581 444.043C637.563 443.872 637.588 443.699 637.655 443.54C641.974 432.226 643.024 419.964 640.687 408.105C638.35 396.245 632.719 385.246 624.412 376.32C623.557 375.437 622.679 374.553 621.777 373.67C616.318 368.275 610.148 362.044 610.527 354.278C610.652 352.643 610.938 351.023 611.382 349.442C611.712 348.141 611.958 346.821 612.117 345.489C612.901 337.049 605.781 330.027 599.681 325.633C598.21 324.563 596.667 323.54 595.148 322.494C589.428 318.634 583.518 314.658 579.958 308.683C575.71 301.707 575.212 293.5 574.571 285.641C574.049 278.665 573.527 271.295 570.346 264.854C567.363 258.762 563.023 253.403 557.645 249.171C552.268 244.94 545.99 241.945 539.274 240.405C532.558 238.866 525.576 238.822 518.84 240.276C512.105 241.731 505.788 244.648 500.356 248.811C494.754 252.934 490.346 258.415 487.563 264.715C484.954 271.896 483.614 279.46 483.6 287.082C482.769 302.963 481.226 318.285 472.35 331.26C469.577 335.056 466.539 338.661 463.26 342.048C457.184 348.651 451.393 354.883 449.613 362.974C448.716 367.319 449.062 371.821 450.611 375.986C452.161 380.15 454.854 383.814 458.395 386.574C458.508 386.658 458.604 386.764 458.675 386.885C458.747 387.006 458.792 387.14 458.81 387.279C458.828 387.418 458.817 387.558 458.778 387.693C458.739 387.827 458.674 387.953 458.584 388.062C458.407 388.282 458.148 388.425 457.864 388.46C457.58 388.494 457.293 388.419 457.065 388.248C453.222 385.232 450.302 381.235 448.627 376.698C446.952 372.161 446.587 367.26 447.572 362.532C449.494 353.79 455.713 347.047 461.812 340.537C465.018 337.216 467.984 333.681 470.689 329.957C479.328 317.495 480.775 302.498 481.559 286.943C481.588 279.071 482.993 271.262 485.712 263.854C488.611 257.215 493.214 251.424 499.074 247.044C504.758 242.712 511.359 239.681 518.393 238.173C525.428 236.665 532.718 236.717 539.729 238.327C546.74 239.936 553.294 243.062 558.912 247.475C564.531 251.888 569.07 257.477 572.197 263.831C575.568 270.62 576.113 278.131 576.636 285.385C577.205 293.337 577.751 300.847 581.738 307.497C585.061 313.054 590.757 316.914 596.263 320.634C597.83 321.68 599.372 322.726 600.868 323.796C607.418 328.446 615.108 336.119 614.182 345.559C614.026 346.996 613.756 348.418 613.375 349.814C612.98 351.276 612.718 352.77 612.592 354.278C612.26 361.254 617.837 366.718 623.225 372.065C624.127 372.972 625.029 373.856 625.883 374.739C634.605 383.908 640.523 395.294 642.961 407.598C645.399 419.902 644.259 432.63 639.672 444.33C639.587 444.526 639.445 444.692 639.263 444.808C639.081 444.924 638.869 444.984 638.652 444.981V444.981Z" fill="#231F20"/>
<path d="M470.143 379.041L425.476 474.905L381.996 427.217L345.754 443.958C345.754 443.958 425.784 562.283 447.809 551.518C469.834 540.753 501.4 445.237 501.4 445.237L470.143 379.041Z" fill="#D1D1EC"/>
<path d="M527.768 352.395C527.768 352.395 479.351 357.603 467.959 380.552C456.567 403.501 459.154 509.922 459.154 509.922L637.797 528.685C637.797 528.685 633.264 441.191 624.839 402.362C616.413 363.532 590.662 337.933 527.768 352.395Z" fill="#D1D1EC"/>
<path d="M513.433 363.997L531.423 458.932L556.296 354.906L513.433 363.997Z" fill="#231F20"/>
<path d="M531.423 460.025C531.187 460.01 530.962 459.92 530.782 459.769C530.602 459.618 530.477 459.414 530.426 459.188L512.389 364.183C512.345 363.922 512.404 363.655 512.554 363.435C512.704 363.215 512.933 363.059 513.196 362.997L556.082 353.906C556.255 353.876 556.433 353.885 556.602 353.934C556.771 353.982 556.926 354.068 557.055 354.185C557.17 354.314 557.254 354.467 557.299 354.632C557.345 354.797 557.35 354.971 557.316 355.139L532.444 459.164C532.409 459.405 532.286 459.624 532.099 459.783C531.911 459.941 531.671 460.027 531.423 460.025V460.025ZM514.643 364.695L531.542 453.84L554.896 356.185L514.643 364.695Z" fill="#231F20"/>
<path d="M513.599 336.328L513.433 363.997C513.433 363.997 516.281 379.482 533.464 374.762C538.535 373.319 543.214 370.788 547.163 367.354C551.112 363.919 554.231 359.667 556.296 354.906L554.35 306.985C554.35 304.962 545.924 297.289 546.256 279.688C540.204 279.64 534.229 278.356 528.712 275.918C523.195 273.479 518.258 269.941 514.216 265.528C514.216 265.528 507.096 276.084 503.916 279.479C501.413 281.983 499.244 284.788 497.46 287.826C494.541 293.151 494.659 299.8 494.802 305.706C494.865 312.731 495.58 319.735 496.938 326.632C499.691 339.537 513.599 336.328 513.599 336.328Z" fill="white"/>
<path d="M527.365 376.716C524.569 376.774 521.816 376.039 519.438 374.6C515.777 372.162 513.224 368.428 512.317 364.183L512.46 337.584C508.718 338.136 504.895 337.432 501.614 335.584C500.076 334.575 498.767 333.264 497.771 331.736C496.774 330.208 496.111 328.494 495.823 326.702C494.45 319.806 493.727 312.802 493.663 305.776C493.544 300.08 493.378 293.011 496.44 287.361C498.277 284.197 500.518 281.275 503.109 278.665C506.147 275.433 513.243 264.994 513.314 264.901C513.406 264.759 513.532 264.643 513.681 264.561C513.83 264.48 513.998 264.437 514.169 264.436C514.338 264.416 514.51 264.442 514.665 264.512C514.82 264.582 514.952 264.692 515.047 264.831C519.007 269.111 523.823 272.548 529.196 274.928C534.569 277.308 540.384 278.58 546.28 278.665C546.423 278.664 546.564 278.693 546.695 278.749C546.826 278.805 546.943 278.888 547.04 278.991C547.142 279.086 547.223 279.202 547.276 279.33C547.329 279.459 547.354 279.596 547.348 279.735C546.983 288.264 549.303 296.698 553.994 303.893C554.697 304.81 555.191 305.865 555.442 306.985V306.985C555.442 306.985 555.441 308.055 557.388 354.906C557.41 355.037 557.41 355.17 557.388 355.301C555.286 360.236 552.076 364.642 547.995 368.193C543.915 371.743 539.07 374.347 533.82 375.809C531.722 376.405 529.549 376.71 527.365 376.716V376.716ZM514.501 363.997C515.376 367.562 517.543 370.694 520.6 372.809C522.508 373.835 524.617 374.449 526.787 374.61C528.957 374.77 531.136 374.473 533.179 373.739C538.041 372.334 542.53 369.907 546.334 366.625C550.138 363.344 553.166 359.289 555.204 354.743C555.062 351.209 553.282 307.404 553.258 307.032C552.956 306.311 552.574 305.625 552.119 304.986C547.419 297.747 545.001 289.312 545.165 280.735C533.483 280.357 522.412 275.526 514.311 267.272C511.339 271.727 508.13 276.027 504.699 280.153C502.273 282.597 500.161 285.322 498.41 288.268C495.609 293.43 495.751 299.894 495.894 305.613C495.954 312.551 496.653 319.469 497.982 326.284C498.212 327.786 498.751 329.226 499.567 330.517C500.383 331.809 501.459 332.923 502.729 333.794C505.957 335.505 509.701 336.032 513.291 335.282C513.447 335.245 513.61 335.244 513.767 335.28C513.924 335.317 514.07 335.389 514.192 335.491C514.322 335.591 514.428 335.718 514.502 335.863C514.576 336.007 514.616 336.166 514.62 336.328L514.43 363.997H514.501Z" fill="#231F20"/>
<path d="M513.765 349.907C513.765 349.907 525.228 350.419 532.609 342.932C534.719 341.026 536.381 338.693 537.479 336.096C538.578 333.498 539.086 330.698 538.97 327.888C538.97 327.888 526.581 336.049 513.694 336.328L513.765 349.907Z" fill="#231F20"/>
<path d="M514.264 350.953H513.718C513.451 350.947 513.198 350.839 513.011 350.652C512.825 350.465 512.721 350.215 512.721 349.953L512.555 336.351C512.555 336.084 512.661 335.827 512.852 335.636C513.043 335.445 513.302 335.334 513.575 335.328C525.988 335.049 538.187 327.144 538.306 327.074C538.457 326.988 538.629 326.943 538.804 326.943C538.979 326.943 539.151 326.988 539.303 327.074C539.466 327.144 539.608 327.253 539.716 327.391C539.824 327.529 539.894 327.692 539.92 327.865C539.92 328.19 540.988 336.003 533.346 343.745C528.164 348.457 521.332 351.038 514.264 350.953V350.953ZM514.643 337.305L514.786 348.93C521.126 348.833 527.205 346.44 531.85 342.211C535.3 338.916 537.43 334.519 537.855 329.818C530.791 333.992 522.857 336.552 514.643 337.305Z" fill="#231F20"/>
<path d="M516.779 295.685C516.779 295.685 507.689 308.892 509.849 311.217C512.009 313.542 518.061 312.008 518.061 312.008" fill="white"/>
<path d="M514.05 313.542C513.152 313.615 512.248 313.51 511.392 313.234C510.536 312.959 509.745 312.518 509.066 311.938C506.692 309.403 512.341 300.312 515.901 295.057C515.975 294.94 516.072 294.838 516.186 294.757C516.301 294.677 516.431 294.621 516.569 294.591C516.706 294.562 516.849 294.56 516.987 294.586C517.126 294.612 517.257 294.664 517.374 294.741C517.491 294.818 517.591 294.918 517.668 295.033C517.745 295.149 517.797 295.279 517.821 295.415C517.845 295.551 517.841 295.69 517.809 295.824C517.777 295.959 517.717 296.085 517.634 296.197C513.148 302.777 509.873 309.473 510.632 310.543C512.033 312.054 516.376 311.38 517.752 311.031C518.013 310.983 518.282 311.034 518.505 311.173C518.729 311.312 518.89 311.529 518.956 311.78C519.023 312.031 518.989 312.298 518.863 312.525C518.736 312.753 518.526 312.925 518.275 313.007C516.892 313.342 515.474 313.522 514.05 313.542V313.542Z" fill="#231F20"/>
<path d="M507.096 318.75C507.096 318.75 515.236 330.562 529.572 319.192Z" fill="white"/>
<path d="M517.61 325.168C516.935 325.168 516.26 325.122 515.592 325.028C511.786 324.413 508.377 322.359 506.099 319.309C505.945 319.083 505.888 318.808 505.942 318.542C505.995 318.276 506.154 318.041 506.384 317.89C506.496 317.812 506.624 317.758 506.759 317.73C506.894 317.702 507.033 317.7 507.168 317.727C507.304 317.753 507.432 317.805 507.546 317.881C507.66 317.957 507.757 318.055 507.831 318.169C509.798 320.71 512.672 322.429 515.877 322.982C519.864 323.564 524.231 322.006 528.788 318.332C528.896 318.248 529.019 318.185 529.151 318.148C529.283 318.11 529.422 318.099 529.558 318.114C529.695 318.129 529.828 318.17 529.948 318.236C530.068 318.301 530.174 318.389 530.26 318.495C530.35 318.597 530.419 318.716 530.46 318.846C530.502 318.975 530.517 319.111 530.504 319.245C530.491 319.38 530.449 319.511 530.383 319.63C530.317 319.749 530.226 319.853 530.117 319.936C526.682 323.031 522.267 324.878 517.61 325.168Z" fill="#231F20"/>
<path d="M480.372 508.666C480.093 508.648 479.832 508.524 479.646 508.319C479.459 508.115 479.362 507.847 479.375 507.573L486.116 397.735C486.118 397.6 486.149 397.468 486.207 397.345C486.264 397.223 486.346 397.114 486.449 397.024C486.551 396.935 486.672 396.867 486.802 396.825C486.933 396.783 487.071 396.768 487.207 396.781C487.348 396.784 487.486 396.815 487.614 396.872C487.741 396.93 487.855 397.012 487.949 397.115C488.043 397.217 488.114 397.338 488.157 397.468C488.201 397.599 488.217 397.737 488.204 397.874L481.464 507.69C481.458 507.824 481.425 507.956 481.366 508.078C481.308 508.199 481.226 508.309 481.125 508.4C481.023 508.49 480.905 508.561 480.775 508.606C480.646 508.652 480.509 508.672 480.372 508.666Z" fill="#231F20"/>
<path d="M608.795 521.594C609.625 523.919 636.468 599.95 605.685 627.108C572.862 656.032 406.845 640.803 406.845 640.803L388.712 585.999C386.695 566.538 385.674 552.82 424.503 549.263L478.853 538.358L480.372 507.643L608.795 521.594Z" fill="#231F20"/>
<path d="M497.65 645.825H493.876C448.782 645.639 407.082 641.849 406.679 641.826C406.472 641.807 406.276 641.728 406.116 641.6C405.955 641.472 405.837 641.299 405.777 641.105L387.668 586.325C386.576 576.118 385.579 566.678 391.371 559.772C396.639 553.471 407.13 549.821 424.337 548.147L477.785 537.428L479.256 507.48C479.265 507.341 479.303 507.205 479.368 507.081C479.434 506.956 479.525 506.847 479.636 506.76C479.741 506.666 479.865 506.597 480.001 506.556C480.136 506.516 480.279 506.506 480.419 506.527L608.842 520.478C609.041 520.499 609.23 520.576 609.386 520.7C609.542 520.824 609.658 520.989 609.72 521.175L608.723 521.501L609.768 521.338C612.568 529.453 636.255 601.369 606.326 627.759C592.869 639.78 556.272 645.825 497.65 645.825ZM407.628 639.826C419.281 640.849 573.93 653.777 604.997 626.341C633.478 601.229 611.358 532.382 608.011 522.524L481.369 508.852L479.921 538.474C479.905 538.703 479.812 538.92 479.658 539.092C479.504 539.264 479.296 539.382 479.066 539.428L424.716 550.332C407.984 551.867 397.945 555.308 393.056 561.144C387.81 567.376 388.76 576.42 389.757 585.976L407.628 639.826Z" fill="#231F20"/>
<path d="M434.4 591.278C434.4 591.278 425.784 550.611 394.456 559.819C363.128 569.026 432.833 720.252 432.833 730.18C432.833 740.109 406.204 770.08 406.204 770.08C413.81 769.681 421.391 768.905 428.917 767.754C437.153 766.22 459.771 733.994 460.649 730.552C461.527 727.111 444.985 620.458 434.4 591.278Z" fill="white"/>
<path d="M406.204 771.149C406.001 771.147 405.802 771.089 405.63 770.983C405.458 770.876 405.32 770.724 405.231 770.544C405.14 770.356 405.107 770.145 405.137 769.939C405.167 769.732 405.257 769.539 405.397 769.382C412.731 761.128 431.766 738.039 431.766 730.18C431.766 727.855 427.232 716.113 421.489 701.186C404.875 657.939 377.012 585.535 387.645 564.469C388.26 563.128 389.157 561.93 390.278 560.952C391.398 559.974 392.717 559.24 394.148 558.796C397.759 557.57 401.598 557.121 405.402 557.478C409.206 557.835 412.888 558.99 416.196 560.865C430.436 569.166 435.183 589.394 435.444 591.092C445.602 619.156 462.738 726.367 461.717 730.878C460.982 734.11 437.984 767.243 429.131 768.917C421.558 770.072 413.929 770.848 406.276 771.242L406.204 771.149ZM403.309 559.563C400.411 559.581 397.531 560.019 394.765 560.865C393.612 561.232 392.554 561.836 391.661 562.639C390.769 563.441 390.063 564.422 389.591 565.515C379.362 585.744 408.079 660.427 423.53 700.535C430.365 718.322 433.925 727.716 433.925 730.273C433.925 739.132 414.63 762.104 408.696 768.963C413.23 768.661 422.723 767.94 428.728 766.824C436.299 765.406 458.846 733.714 459.581 730.413C460.317 727.111 444.131 621.341 433.474 591.743C433.474 591.743 433.474 591.743 433.474 591.603C433.474 591.464 428.894 570.677 415.199 562.772C411.618 560.636 407.502 559.517 403.309 559.54V559.563Z" fill="#231F20"/>
<path d="M404.638 767.522C402.452 767.746 400.363 768.524 398.578 769.78C396.792 771.036 395.372 772.726 394.456 774.683C391.584 781.333 403.95 785.169 415.342 785.681C425.308 786.057 435.271 784.847 444.843 782.1C448.669 780.262 452.051 777.647 454.763 774.427C454.763 774.427 454.763 782.612 457.635 782.356C461.746 782.153 465.843 781.726 469.905 781.077C470.95 780.565 466.511 748.851 460.649 730.552C460.649 730.552 436.916 763.429 429.439 764.964C421.963 766.499 404.638 767.522 404.638 767.522Z" fill="#231F20"/>
<path d="M418.664 786.774C417.549 786.774 416.41 786.774 415.294 786.774C407.343 786.425 396.948 784.309 393.934 779.543C393.434 778.778 393.139 777.901 393.077 776.995C393.014 776.089 393.187 775.181 393.578 774.358C394.556 772.219 396.094 770.371 398.036 769.003C399.979 767.635 402.257 766.795 404.638 766.569V766.569C404.804 766.569 421.869 765.522 429.273 764.034C435.159 762.825 453.339 739.086 459.842 730.041C459.951 729.88 460.106 729.755 460.288 729.68C460.47 729.606 460.67 729.586 460.863 729.622C461.055 729.649 461.235 729.729 461.382 729.853C461.529 729.976 461.637 730.138 461.694 730.32C464.776 740.819 467.185 751.497 468.909 762.29C472.041 781.147 470.997 781.659 470.38 781.961C467.092 782.692 463.736 783.09 460.365 783.147L457.73 783.356C457.388 783.387 457.043 783.345 456.72 783.232C456.396 783.12 456.101 782.94 455.855 782.705C454.581 781.031 453.883 779.003 453.861 776.915C451.438 779.51 448.498 781.591 445.222 783.03C436.602 785.535 427.656 786.796 418.664 786.774V786.774ZM404.709 768.545C402.714 768.744 400.807 769.452 399.179 770.598C397.55 771.745 396.258 773.289 395.429 775.078C395.168 775.599 395.05 776.178 395.087 776.757C395.125 777.336 395.316 777.896 395.643 778.38C397.755 781.659 405.872 784.239 415.389 784.658C425.22 785.031 435.047 783.837 444.487 781.124C448.144 779.356 451.379 776.853 453.98 773.776C454.117 773.613 454.302 773.496 454.509 773.44C454.717 773.383 454.937 773.392 455.14 773.463C455.343 773.534 455.518 773.665 455.642 773.838C455.765 774.01 455.832 774.216 455.831 774.427C455.831 776.753 456.282 780.333 457.279 781.217C457.316 781.255 457.36 781.285 457.409 781.305C457.458 781.325 457.511 781.334 457.564 781.333L460.222 781.124C462.596 780.938 467.461 780.566 469.051 780.264C469.241 776.125 465.42 749.921 460.293 732.854C454.977 740.109 436.56 764.546 429.677 765.964C421.404 767.234 413.071 768.095 404.709 768.545V768.545Z" fill="#231F20"/>
<path d="M506.479 730.692C506.479 730.692 492.879 599.206 486.613 574.653C480.348 550.1 444.32 542.427 433.355 572.096C422.39 601.764 476.693 718.415 472.516 730.692C468.339 742.969 452.674 766.94 452.674 766.94C452.674 766.94 469.288 775.125 481.392 766.94C493.496 758.756 506.479 730.692 506.479 730.692Z" fill="white"/>
<path d="M468.576 771.73C462.91 771.601 457.333 770.318 452.2 767.964C452.064 767.894 451.944 767.798 451.846 767.682C451.749 767.566 451.675 767.433 451.63 767.289C451.56 766.995 451.611 766.686 451.773 766.429C451.915 766.196 467.413 742.364 471.495 730.343C472.991 725.949 465.372 704.139 457.255 681.074C443.015 640.617 425.452 590.394 432.311 571.793C437.058 558.703 447.524 551.239 460.032 551.89C466.485 552.289 472.64 554.69 477.606 558.745C482.573 562.8 486.094 568.298 487.658 574.444C493.876 598.788 507.381 729.32 507.523 730.622C507.568 730.806 507.568 730.997 507.523 731.18C506.977 732.343 494.209 759.663 482.081 767.917C478.096 770.538 473.374 771.871 468.576 771.73V771.73ZM454.336 766.545C458.181 768.126 471.234 772.684 480.847 766.127C491.883 758.617 504.082 733.343 505.435 730.506C504.723 723.531 491.669 598.555 485.641 574.909C484.187 569.208 480.92 564.107 476.312 560.346C471.704 556.584 465.994 554.355 460.008 553.983C448.569 553.378 438.957 560.33 434.447 572.584C427.849 590.417 446.077 642.477 459.391 680.493C469.597 709.58 475.269 726.297 473.631 731.134C469.834 741.969 457.35 761.732 454.265 766.545H454.336Z" fill="#231F20"/>
<path d="M452.675 766.94C447.913 769.115 443.582 772.098 439.882 775.753C435.586 780.752 431.67 783.053 437.509 786.89C443.347 790.726 480.229 788.029 485.285 786.495C490.34 784.96 499.003 773.079 499.003 773.079C499.003 773.079 498.599 786.495 500.166 786.89C503.642 786.75 507.098 786.299 510.49 785.541C511.667 767.208 510.35 748.802 506.574 730.808C506.574 730.808 493.876 758.942 477.88 764.615C461.883 770.289 452.675 766.94 452.675 766.94Z" fill="#231F20"/>
<path d="M454.265 789.936C446.314 789.936 439.384 789.378 436.963 787.82C436.115 787.404 435.37 786.812 434.78 786.085C434.19 785.358 433.769 784.514 433.545 783.611C433.284 781.472 434.969 779.635 437.129 777.334L439.099 775.171C442.878 771.379 447.334 768.298 452.247 766.08C452.506 765.977 452.795 765.977 453.054 766.08C453.054 766.08 462.097 769.289 477.524 763.755C492.95 758.221 505.387 730.575 505.506 730.296C505.598 730.1 505.75 729.936 505.941 729.828C506.133 729.72 506.354 729.672 506.574 729.692C506.795 729.716 507.004 729.807 507.17 729.953C507.336 730.099 507.451 730.292 507.499 730.506C511.268 748.603 512.585 767.107 511.415 785.541C511.403 785.759 511.317 785.967 511.171 786.131C511.025 786.295 510.827 786.407 510.608 786.448C507.126 787.351 503.552 787.866 499.952 787.983C499.24 787.797 497.816 787.448 497.911 776.357C495.015 780.031 489.509 786.425 485.617 787.611C475.252 789.257 464.764 790.035 454.265 789.936V789.936ZM452.746 768.103C448.254 770.184 444.172 773.025 440.689 776.497C440.001 777.287 439.312 778.031 438.695 778.705C436.891 780.635 435.467 782.147 435.634 783.356C435.634 784.169 436.535 785.076 438.007 786.099C443.276 789.54 479.185 787.308 484.881 785.588C488.797 784.425 495.703 775.776 498.053 772.544C498.183 772.363 498.368 772.228 498.583 772.159C498.797 772.09 499.029 772.091 499.242 772.162C499.456 772.232 499.641 772.369 499.769 772.551C499.897 772.733 499.961 772.951 499.952 773.172C499.676 777.452 499.891 781.749 500.593 785.983C503.52 785.731 506.423 785.264 509.279 784.588C510.261 767.645 509.138 750.648 505.933 733.97C502.254 741.411 491.503 760.872 478.117 765.662C463.782 770.847 454.81 768.731 452.746 768.103V768.103Z" fill="#231F20"/>
<path d="M615.82 577.536C617.458 579.861 622.679 630.154 622.679 630.154C622.679 630.154 680.874 635.315 681.705 631.316C682.535 627.317 652.038 617.156 652.038 617.156L642.544 577.28" fill="white"/>
<path d="M669.956 633.897C665.589 633.897 659.727 633.734 651.824 633.293C637.323 632.525 622.727 631.246 622.584 631.223C622.331 631.203 622.092 631.097 621.91 630.923C621.728 630.748 621.614 630.518 621.587 630.27C619.617 611.274 616.057 580.28 614.894 578.094C614.815 577.979 614.76 577.849 614.732 577.712C614.705 577.575 614.705 577.435 614.734 577.298C614.763 577.162 614.819 577.032 614.9 576.917C614.98 576.803 615.083 576.705 615.203 576.629C615.45 576.479 615.746 576.429 616.03 576.49C616.313 576.551 616.562 576.718 616.722 576.955C618.336 579.28 622.323 616.482 623.652 629.177C649.546 631.502 677.266 632.688 680.613 630.944C679.592 628.619 665.02 622.574 651.705 618.156C651.534 618.102 651.38 618.005 651.259 617.875C651.138 617.744 651.055 617.584 651.017 617.412L641.524 577.513C641.459 577.239 641.508 576.951 641.659 576.711C641.81 576.472 642.051 576.3 642.33 576.234C642.613 576.178 642.907 576.232 643.151 576.383C643.394 576.535 643.568 576.773 643.636 577.048L653.129 616.342C664.996 620.272 683.793 627.294 682.939 631.502C682.559 632.525 682.274 633.897 669.956 633.897Z" fill="#231F20"/>
<path d="M623.201 399.572L662.907 589.185L608.153 590.58C608.153 590.58 589.167 490.181 588.004 475.115C586.841 460.048 623.201 399.572 623.201 399.572Z" fill="#D1D1EC"/>
<path d="M501.827 305.288C508.656 305.288 514.192 299.864 514.192 293.174C514.192 286.484 508.656 281.06 501.827 281.06C494.998 281.06 489.462 286.484 489.462 293.174C489.462 299.864 494.998 305.288 501.827 305.288Z" fill="white"/>
<path d="M501.851 306.358H501.305C498.65 306.259 496.084 305.392 493.932 303.864C491.781 302.337 490.139 300.219 489.216 297.779C488.293 295.338 488.13 292.683 488.747 290.152C489.364 287.62 490.733 285.324 492.682 283.554C494.631 281.785 497.072 280.622 499.695 280.211C502.319 279.801 505.008 280.162 507.423 281.249C509.837 282.336 511.868 284.1 513.259 286.318C514.65 288.536 515.338 291.108 515.237 293.709H514.145H515.237C515.096 297.104 513.623 300.315 511.124 302.671C508.626 305.028 505.295 306.349 501.827 306.358H501.851ZM501.851 282.13C498.629 282.188 495.561 283.49 493.315 285.753C491.068 288.016 489.824 291.056 489.854 294.213C489.884 297.369 491.185 300.387 493.473 302.608C495.762 304.83 498.854 306.077 502.076 306.077C505.299 306.077 508.39 304.83 510.679 302.608C512.968 300.387 514.269 297.369 514.299 294.213C514.328 291.056 513.085 288.016 510.838 285.753C508.591 283.49 505.523 282.188 502.302 282.13H501.851Z" fill="#231F20"/>
<path d="M529.073 306.358C535.903 306.358 541.439 300.934 541.439 294.244C541.439 287.553 535.903 282.13 529.073 282.13C522.244 282.13 516.708 287.553 516.708 294.244C516.708 300.934 522.244 306.358 529.073 306.358Z" fill="white"/>
<path d="M529.073 307.404H528.527C525.878 307.28 523.325 306.393 521.188 304.854C519.051 303.316 517.424 301.194 516.512 298.754C515.6 296.314 515.443 293.665 516.06 291.138C516.678 288.611 518.042 286.319 519.983 284.548C521.939 282.781 524.385 281.621 527.013 281.216C529.64 280.81 532.332 281.176 534.747 282.269C537.163 283.361 539.193 285.13 540.583 287.353C541.972 289.575 542.658 292.151 542.554 294.755C542.419 298.156 540.944 301.373 538.439 303.732C535.935 306.09 532.595 307.406 529.121 307.404H529.073ZM529.073 283.176C527.593 283.149 526.121 283.407 524.743 283.937C523.364 284.466 522.106 285.257 521.039 286.263C518.885 288.295 517.643 291.082 517.586 294.011C517.529 296.94 518.663 299.772 520.737 301.882C522.811 303.992 525.656 305.209 528.646 305.265C530.127 305.337 531.607 305.114 532.998 304.611C534.389 304.107 535.662 303.333 536.739 302.335C537.829 301.354 538.709 300.17 539.328 298.853C539.948 297.536 540.294 296.111 540.347 294.662V294.662C540.436 291.747 539.342 288.915 537.305 286.788C535.267 284.662 532.452 283.413 529.477 283.316L529.073 283.176Z" fill="#231F20"/>
<path d="M441.9 493.623C441.751 493.624 441.604 493.593 441.469 493.533C441.333 493.473 441.213 493.384 441.116 493.274L388.285 433.611C388.193 433.508 388.122 433.388 388.078 433.258C388.034 433.128 388.017 432.991 388.028 432.854C388.039 432.718 388.078 432.585 388.143 432.463C388.207 432.341 388.296 432.234 388.404 432.147C388.499 432.049 388.613 431.972 388.74 431.92C388.866 431.867 389.002 431.84 389.14 431.84C389.277 431.84 389.413 431.867 389.539 431.92C389.666 431.972 389.78 432.049 389.875 432.147L442.706 491.809C442.798 491.91 442.868 492.028 442.912 492.156C442.956 492.284 442.973 492.42 442.962 492.555C442.951 492.69 442.912 492.821 442.848 492.94C442.783 493.06 442.695 493.165 442.588 493.251C442.506 493.356 442.402 493.444 442.284 493.508C442.165 493.572 442.034 493.611 441.9 493.623V493.623Z" fill="#231F20"/>
<path d="M344.046 317.634L394.147 298.801L398.657 321.308L348.175 337.188L344.046 317.634Z" fill="#E6E7E8"/>
<path d="M502.915 291.884C502.978 290.306 502.329 288.999 501.464 288.966C500.6 288.933 499.848 290.185 499.784 291.763C499.721 293.342 500.37 294.648 501.235 294.681C502.099 294.715 502.851 293.462 502.915 291.884Z" fill="#231F20"/>
<path d="M530.826 293.527C530.89 291.949 530.24 290.642 529.376 290.609C528.511 290.576 527.759 291.828 527.696 293.406C527.633 294.985 528.282 296.291 529.147 296.324C530.011 296.358 530.763 295.105 530.826 293.527Z" fill="#231F20"/>
<path d="M566.098 304.032C565.828 304.028 565.57 303.925 565.372 303.745C565.175 303.565 565.053 303.319 565.03 303.056C564.484 296.685 547.894 296.499 541.533 296.964C541.391 296.977 541.248 296.961 541.112 296.919C540.976 296.876 540.85 296.807 540.741 296.716C540.633 296.625 540.544 296.514 540.48 296.389C540.417 296.264 540.379 296.127 540.37 295.987C540.375 295.727 540.476 295.477 540.655 295.284C540.834 295.091 541.079 294.969 541.343 294.941C543.907 294.755 566.335 293.36 567.166 302.963C567.179 303.103 567.163 303.245 567.12 303.38C567.077 303.514 567.007 303.639 566.914 303.747C566.822 303.856 566.708 303.945 566.58 304.009C566.452 304.074 566.313 304.114 566.169 304.125L566.098 304.032Z" fill="#231F20"/>
<path d="M544.263 304.614C544.704 302.559 545.812 300.7 547.419 299.312C548.978 298.101 550.736 297.157 552.617 296.522C553.61 296.084 554.685 295.855 555.774 295.848C556.54 295.942 557.281 296.179 557.957 296.545C559.615 297.276 560.953 298.562 561.731 300.173C562.194 301.527 562.316 302.971 562.087 304.381C561.958 305.929 561.623 307.453 561.09 308.915C560.532 310.373 559.681 311.706 558.587 312.835C557.493 313.964 556.179 314.867 554.723 315.489C553.266 316.111 551.697 316.441 550.108 316.458C548.519 316.475 546.943 316.179 545.473 315.588" fill="white"/>
<path d="M549.911 317.355C548.285 317.35 546.674 317.042 545.165 316.448C545.042 316.408 544.929 316.343 544.832 316.259C544.736 316.174 544.658 316.07 544.604 315.955C544.55 315.84 544.521 315.715 544.518 315.588C544.515 315.461 544.538 315.335 544.587 315.217C544.636 315.1 544.708 314.993 544.801 314.904C544.893 314.815 545.003 314.745 545.124 314.699C545.245 314.654 545.374 314.632 545.503 314.637C545.633 314.642 545.76 314.673 545.877 314.728C547.235 315.272 548.691 315.544 550.159 315.529C551.626 315.514 553.076 315.211 554.422 314.639C555.769 314.068 556.985 313.238 558 312.199C559.014 311.16 559.807 309.933 560.33 308.59C560.838 307.204 561.149 305.757 561.256 304.288C561.474 303.021 561.376 301.72 560.971 300.498C560.272 299.109 559.096 298.006 557.648 297.382C557.085 297.067 556.464 296.861 555.821 296.778C554.877 296.783 553.946 296.989 553.092 297.382C551.311 297.988 549.643 298.876 548.155 300.01C546.703 301.264 545.704 302.944 545.307 304.8C545.25 305.037 545.103 305.243 544.895 305.377C544.688 305.511 544.436 305.562 544.191 305.52C543.947 305.47 543.732 305.327 543.594 305.122C543.456 304.918 543.407 304.668 543.456 304.428C543.937 302.173 545.153 300.133 546.921 298.615C548.555 297.333 550.401 296.334 552.38 295.662C553.509 295.152 554.744 294.906 555.987 294.941C556.872 295.034 557.728 295.303 558.503 295.732C560.364 296.551 561.857 298.005 562.704 299.824C563.233 301.316 563.372 302.915 563.107 304.474C562.984 306.11 562.633 307.721 562.063 309.264C560.789 312.382 558.318 314.886 555.18 316.239C553.523 316.969 551.728 317.349 549.911 317.355V317.355Z" fill="#231F20"/>
<path d="M607.371 587.069C607.115 587.068 606.868 586.978 606.673 586.817C606.478 586.655 606.347 586.432 606.303 586.186L574.072 393.41C574.048 393.274 574.052 393.135 574.084 393C574.115 392.866 574.173 392.739 574.255 392.627C574.336 392.514 574.44 392.419 574.559 392.346C574.679 392.273 574.812 392.223 574.95 392.201C575.091 392.174 575.235 392.175 575.375 392.205C575.515 392.234 575.648 392.29 575.765 392.37C575.883 392.45 575.982 392.553 576.058 392.672C576.134 392.79 576.185 392.923 576.208 393.061L608.439 585.837C608.462 585.974 608.457 586.115 608.425 586.251C608.392 586.387 608.332 586.515 608.248 586.628C608.164 586.74 608.057 586.835 607.935 586.907C607.813 586.979 607.678 587.026 607.537 587.046L607.371 587.069Z" fill="#231F20"/>
<path d="M510.039 540.823C509.882 540.853 509.721 540.853 509.564 540.823C497.152 535.382 479.328 539.544 479.138 539.567C478.988 539.605 478.832 539.614 478.679 539.592C478.526 539.571 478.379 539.519 478.246 539.442C478.114 539.364 477.998 539.261 477.907 539.138C477.815 539.016 477.75 538.877 477.714 538.73C477.675 538.58 477.667 538.425 477.69 538.272C477.713 538.119 477.767 537.972 477.849 537.84C477.931 537.708 478.039 537.594 478.166 537.503C478.294 537.412 478.438 537.347 478.592 537.312C479.351 537.126 497.389 532.917 510.537 538.707C510.823 538.834 511.046 539.066 511.158 539.354C511.269 539.642 511.259 539.961 511.131 540.241C511.019 540.426 510.859 540.577 510.667 540.68C510.475 540.782 510.258 540.831 510.039 540.823Z" fill="white"/>
<path d="M578.653 503.202C578.458 503.205 578.267 503.148 578.107 503.039L551.383 487.763C551.137 487.622 550.957 487.392 550.882 487.123C550.806 486.853 550.841 486.566 550.98 486.322C551.128 486.079 551.367 485.902 551.646 485.828C551.925 485.755 552.222 485.79 552.475 485.926L579.318 501.202C579.565 501.348 579.746 501.582 579.821 501.855C579.896 502.128 579.86 502.419 579.721 502.667C579.611 502.845 579.453 502.989 579.265 503.083C579.076 503.178 578.864 503.219 578.653 503.202V503.202Z" fill="#231F20"/>
<path d="M491.788 494.018C491.624 494.023 491.461 493.989 491.312 493.921C491.164 493.852 491.034 493.75 490.933 493.623C490.843 493.515 490.776 493.391 490.735 493.257C490.694 493.124 490.681 492.983 490.697 492.845C490.712 492.706 490.756 492.572 490.825 492.45C490.894 492.328 490.988 492.221 491.1 492.135L507.144 479.486C507.25 479.374 507.381 479.286 507.525 479.227C507.67 479.168 507.826 479.141 507.982 479.147C508.139 479.152 508.292 479.191 508.432 479.26C508.572 479.329 508.695 479.426 508.793 479.546C508.891 479.666 508.962 479.804 509 479.953C509.039 480.102 509.044 480.257 509.016 480.408C508.988 480.559 508.927 480.702 508.837 480.828C508.748 480.954 508.631 481.059 508.496 481.137L492.452 493.786C492.267 493.94 492.031 494.023 491.788 494.018V494.018Z" fill="#231F20"/>
<path d="M296.175 708.255C301.247 703.804 306.986 700.142 313.192 697.396C313.714 715.23 306.333 731.622 299.498 742.852H277.307" fill="white"/>
<path d="M299.498 744.061H277.307C277.145 744.061 276.984 744.03 276.834 743.969C276.685 743.909 276.549 743.82 276.434 743.707C276.319 743.595 276.228 743.462 276.166 743.315C276.104 743.168 276.073 743.011 276.073 742.852C276.073 742.694 276.104 742.536 276.166 742.39C276.228 742.243 276.319 742.11 276.434 741.997C276.549 741.885 276.685 741.796 276.834 741.735C276.984 741.675 277.145 741.643 277.307 741.643H298.809C304.956 731.389 311.982 716.067 312.005 699.256C306.574 701.895 301.523 705.226 296.982 709.161C296.755 709.383 296.448 709.507 296.127 709.507C295.807 709.507 295.5 709.383 295.273 709.161C295.046 708.935 294.918 708.63 294.918 708.313C294.918 707.995 295.046 707.69 295.273 707.464C300.438 702.902 306.3 699.159 312.646 696.373C312.829 696.303 313.026 696.276 313.221 696.295C313.417 696.314 313.605 696.379 313.769 696.483C313.934 696.588 314.071 696.73 314.169 696.896C314.267 697.063 314.322 697.251 314.331 697.443C314.853 715.834 307.069 732.668 300.447 743.55C300.34 743.702 300.199 743.827 300.034 743.915C299.869 744.004 299.686 744.054 299.498 744.061V744.061Z" fill="#231F20"/>
<path d="M264.372 713.067C269.831 685.166 292.117 667.634 292.117 667.634C296.276 680.763 297.657 694.585 296.175 708.254C295.019 720.042 292.446 731.655 288.509 742.852H264.609" fill="white"/>
<path d="M288.509 744.061H264.609C264.448 744.061 264.289 744.03 264.14 743.969C263.992 743.908 263.857 743.818 263.745 743.706C263.632 743.593 263.543 743.46 263.484 743.313C263.424 743.167 263.395 743.01 263.399 742.852C263.399 742.536 263.525 742.232 263.752 742.005C263.978 741.779 264.286 741.649 264.609 741.643H287.631C291.376 730.794 293.836 719.56 294.964 708.161C296.355 695.26 295.186 682.217 291.523 669.75C286.634 674.075 270.163 690.165 265.558 713.277C265.538 713.438 265.484 713.593 265.4 713.732C265.316 713.872 265.204 713.994 265.07 714.089C264.936 714.185 264.784 714.252 264.622 714.288C264.461 714.323 264.294 714.326 264.131 714.296C263.969 714.265 263.814 714.203 263.677 714.112C263.54 714.021 263.424 713.903 263.335 713.766C263.246 713.629 263.187 713.476 263.162 713.316C263.136 713.156 263.144 712.992 263.185 712.835C268.667 684.933 291.167 666.891 291.381 666.705C291.534 666.581 291.716 666.497 291.911 666.461C292.106 666.424 292.307 666.436 292.496 666.495C292.684 666.55 292.855 666.648 292.996 666.782C293.137 666.915 293.242 667.08 293.303 667.263C297.531 680.545 298.937 694.535 297.433 708.371C296.261 720.256 293.656 731.963 289.672 743.248C289.595 743.489 289.439 743.698 289.229 743.845C289.02 743.992 288.767 744.068 288.509 744.061V744.061Z" fill="#231F20"/>
<path d="M252.576 742.852H273.723C273.913 736.714 272.489 727.437 265.701 715.393C265.25 714.579 264.799 713.811 264.348 713.067C252.102 692.746 240.899 692.978 240.899 692.978C236.176 714.346 246.168 733.412 252.576 742.852Z" fill="white"/>
<path d="M273.723 744.061H252.576C252.374 744.063 252.175 744.014 251.996 743.921C251.818 743.827 251.667 743.692 251.556 743.526C245.053 733.924 234.942 714.555 239.689 692.722C239.739 692.455 239.882 692.214 240.094 692.04C240.307 691.866 240.575 691.77 240.852 691.769C241.398 691.769 252.908 691.769 265.392 712.463C265.843 713.23 266.294 713.997 266.745 714.788C273.865 727.39 275.099 737.016 274.909 742.875C274.904 743.184 274.777 743.479 274.557 743.699C274.336 743.92 274.038 744.049 273.723 744.061V744.061ZM253.241 741.736H272.512C272.512 736.086 271.017 727.343 264.633 716.16L263.304 713.834C253.597 697.745 244.72 694.931 241.943 694.443C237.861 714.416 247.046 732.366 253.241 741.666V741.736Z" fill="#231F20"/>
<path d="M256.421 775.706H297.884L304.577 742.876H249.752L256.421 775.706Z" fill="#231F20"/>
</svg>
