<svg width="332" height="355" viewBox="0 0 332 355" fill="none" xmlns="http://www.w3.org/2000/svg">
<path d="M0 -6.10352e-05C19.0854 90.3445 44.6146 199.522 147.307 227.761C250 256 298 276 332 355C92 355 0 355 0 355V-6.10352e-05Z" fill="white"/>
<path d="M52.0947 300.793H60.3564C61.3721 300.793 62.3389 300.925 63.2568 301.188C64.1748 301.452 65.0293 301.823 65.8203 302.302C66.6113 302.78 67.3291 303.356 67.9736 304.03C68.6182 304.694 69.165 305.436 69.6143 306.257C70.0732 307.077 70.4248 307.961 70.6689 308.908C70.9131 309.846 71.0352 310.822 71.0352 311.838C71.0352 312.873 70.9131 313.864 70.6689 314.811C70.4248 315.759 70.0732 316.647 69.6143 317.477C69.165 318.307 68.6182 319.064 67.9736 319.748C67.3291 320.422 66.6113 321.003 65.8203 321.491C65.0293 321.97 64.1748 322.341 63.2568 322.604C62.3389 322.868 61.3721 323 60.3564 323H52.0947V320.48H54.2041V303.327H52.0947V300.793ZM57.0752 303.327V320.48H60.5322C61.5576 320.48 62.5195 320.256 63.418 319.807C64.3262 319.357 65.1172 318.747 65.791 317.975C66.4648 317.194 66.9971 316.281 67.3877 315.236C67.7783 314.182 67.9736 313.049 67.9736 311.838C67.9736 310.646 67.7783 309.533 67.3877 308.498C66.9971 307.463 66.4648 306.564 65.791 305.803C65.1172 305.031 64.3262 304.426 63.418 303.986C62.5195 303.547 61.5576 303.327 60.5322 303.327H57.0752ZM76.1328 315.764C76.1328 316.193 76.1621 316.589 76.2207 316.95C76.2891 317.302 76.3818 317.639 76.499 317.961C76.8604 318.937 77.4365 319.675 78.2275 320.173C79.0283 320.661 79.9316 320.905 80.9375 320.905C81.7285 320.905 82.4951 320.798 83.2373 320.583C83.9893 320.358 84.7754 320.012 85.5957 319.543L86.6943 321.403C85.6982 322.087 84.6973 322.595 83.6914 322.927C82.6855 323.259 81.6406 323.425 80.5566 323.425C79.5312 323.425 78.5791 323.254 77.7002 322.912C76.8311 322.57 76.0791 322.062 75.4443 321.389C74.8193 320.715 74.3262 319.875 73.9648 318.869C73.6133 317.863 73.4375 316.691 73.4375 315.353C73.4375 314.269 73.5889 313.249 73.8916 312.292C74.1943 311.325 74.6436 310.485 75.2393 309.772C75.8447 309.05 76.5918 308.478 77.4805 308.058C78.3691 307.639 79.4043 307.429 80.5859 307.429C81.7285 307.429 82.6807 307.604 83.4424 307.956C84.2139 308.298 84.8389 308.757 85.3174 309.333C85.8057 309.899 86.1719 310.549 86.416 311.281C86.6699 312.014 86.8457 312.761 86.9434 313.522C86.9922 313.893 87.0215 314.269 87.0312 314.65C87.0508 315.031 87.0605 315.402 87.0605 315.764H76.1328ZM80.3955 309.714C79.7607 309.714 79.2041 309.807 78.7256 309.992C78.2568 310.168 77.8564 310.427 77.5244 310.768C77.1924 311.1 76.9238 311.511 76.7188 311.999C76.5234 312.487 76.377 313.034 76.2793 313.64H84.1455C84.1064 313.073 84.0137 312.551 83.8672 312.072C83.7305 311.594 83.5156 311.179 83.2227 310.827C82.9297 310.475 82.5537 310.202 82.0947 310.007C81.6357 309.811 81.0693 309.714 80.3955 309.714ZM99.541 311.896C99.541 311.486 99.4434 311.14 99.248 310.856C99.0625 310.563 98.8184 310.329 98.5156 310.153C98.2129 309.968 97.876 309.836 97.5049 309.758C97.1338 309.67 96.7725 309.626 96.4209 309.626C96.0303 309.626 95.6689 309.67 95.3369 309.758C95.0146 309.846 94.7363 309.973 94.502 310.139C94.2676 310.305 94.082 310.51 93.9453 310.754C93.8184 310.988 93.7549 311.252 93.7549 311.545C93.7549 312.053 93.9062 312.458 94.209 312.761C94.5215 313.054 95.0391 313.327 95.7617 313.581L98.6768 314.606C99.9268 315.026 100.84 315.598 101.416 316.32C101.992 317.043 102.28 317.907 102.28 318.913C102.28 319.587 102.144 320.207 101.87 320.773C101.606 321.33 101.226 321.808 100.728 322.209C100.239 322.599 99.6484 322.902 98.9551 323.117C98.2617 323.342 97.4902 323.454 96.6406 323.454C95.459 323.454 94.4971 323.264 93.7549 322.883C93.0127 322.502 92.4414 321.999 92.041 321.374H90.5176V318.854H93.5498C93.5498 319.274 93.6377 319.636 93.8135 319.938C93.999 320.231 94.2383 320.471 94.5312 320.656C94.834 320.842 95.1709 320.978 95.542 321.066C95.9229 321.154 96.3086 321.198 96.6992 321.198C97.0801 321.198 97.4463 321.154 97.7979 321.066C98.1494 320.969 98.457 320.832 98.7207 320.656C98.9941 320.471 99.209 320.251 99.3652 319.997C99.5215 319.743 99.5996 319.455 99.5996 319.133C99.5996 318.644 99.4385 318.229 99.1162 317.888C98.8037 317.546 98.2666 317.238 97.5049 316.965L94.6045 315.881C93.4229 315.461 92.5439 314.929 91.9678 314.284C91.4014 313.63 91.1182 312.814 91.1182 311.838C91.1182 311.193 91.2354 310.598 91.4697 310.051C91.7139 309.504 92.0605 309.035 92.5098 308.644C92.9688 308.244 93.5254 307.932 94.1797 307.707C94.834 307.482 95.5811 307.37 96.4209 307.37C97.5049 307.37 98.4131 307.521 99.1455 307.824C99.8779 308.127 100.537 308.644 101.123 309.377H102.544V311.896H99.541ZM114.292 300.207H119.082V320.48H121.309V323H116.357V321.755C115.869 322.253 115.303 322.643 114.658 322.927C114.014 323.2 113.281 323.337 112.461 323.337C111.436 323.337 110.479 323.161 109.59 322.809C108.711 322.448 107.944 321.926 107.29 321.242C106.646 320.549 106.138 319.704 105.767 318.708C105.405 317.702 105.225 316.555 105.225 315.266C105.225 314.094 105.4 313.029 105.752 312.072C106.104 311.105 106.602 310.285 107.246 309.611C107.891 308.928 108.667 308.4 109.575 308.029C110.483 307.648 111.494 307.458 112.607 307.458C113.34 307.458 114.009 307.541 114.614 307.707C115.22 307.863 115.801 308.141 116.357 308.542V302.726H114.292V300.207ZM112.812 320.964C113.623 320.964 114.302 320.847 114.849 320.612C115.396 320.368 115.898 320.007 116.357 319.528V311.032C115.869 310.622 115.308 310.324 114.673 310.139C114.038 309.953 113.389 309.86 112.725 309.86C112.08 309.86 111.475 309.982 110.908 310.226C110.342 310.461 109.844 310.807 109.414 311.266C108.994 311.725 108.662 312.287 108.418 312.951C108.174 313.615 108.052 314.377 108.052 315.236C108.052 316.174 108.169 316.999 108.403 317.712C108.638 318.425 108.965 319.025 109.385 319.514C109.805 319.992 110.308 320.353 110.894 320.598C111.479 320.842 112.119 320.964 112.812 320.964ZM126.494 315.764C126.494 316.193 126.523 316.589 126.582 316.95C126.65 317.302 126.743 317.639 126.86 317.961C127.222 318.937 127.798 319.675 128.589 320.173C129.39 320.661 130.293 320.905 131.299 320.905C132.09 320.905 132.856 320.798 133.599 320.583C134.351 320.358 135.137 320.012 135.957 319.543L137.056 321.403C136.06 322.087 135.059 322.595 134.053 322.927C133.047 323.259 132.002 323.425 130.918 323.425C129.893 323.425 128.94 323.254 128.062 322.912C127.192 322.57 126.44 322.062 125.806 321.389C125.181 320.715 124.688 319.875 124.326 318.869C123.975 317.863 123.799 316.691 123.799 315.353C123.799 314.269 123.95 313.249 124.253 312.292C124.556 311.325 125.005 310.485 125.601 309.772C126.206 309.05 126.953 308.478 127.842 308.058C128.73 307.639 129.766 307.429 130.947 307.429C132.09 307.429 133.042 307.604 133.804 307.956C134.575 308.298 135.2 308.757 135.679 309.333C136.167 309.899 136.533 310.549 136.777 311.281C137.031 312.014 137.207 312.761 137.305 313.522C137.354 313.893 137.383 314.269 137.393 314.65C137.412 315.031 137.422 315.402 137.422 315.764H126.494ZM130.757 309.714C130.122 309.714 129.565 309.807 129.087 309.992C128.618 310.168 128.218 310.427 127.886 310.768C127.554 311.1 127.285 311.511 127.08 311.999C126.885 312.487 126.738 313.034 126.641 313.64H134.507C134.468 313.073 134.375 312.551 134.229 312.072C134.092 311.594 133.877 311.179 133.584 310.827C133.291 310.475 132.915 310.202 132.456 310.007C131.997 309.811 131.431 309.714 130.757 309.714ZM147.529 320.847L155.337 311.413C155.601 311.1 155.874 310.764 156.157 310.402C156.45 310.041 156.719 309.66 156.963 309.26C157.217 308.859 157.422 308.444 157.578 308.015C157.744 307.575 157.827 307.121 157.827 306.652C157.827 306.164 157.729 305.705 157.534 305.275C157.339 304.846 157.07 304.47 156.729 304.147C156.387 303.825 155.977 303.571 155.498 303.386C155.029 303.2 154.512 303.107 153.945 303.107C153.438 303.107 152.954 303.19 152.495 303.356C152.046 303.513 151.65 303.747 151.309 304.059C150.967 304.372 150.688 304.763 150.474 305.231C150.269 305.69 150.156 306.223 150.137 306.828H147.5C147.51 305.9 147.69 305.046 148.042 304.265C148.394 303.474 148.862 302.795 149.448 302.228C150.044 301.652 150.732 301.208 151.514 300.895C152.295 300.573 153.115 300.412 153.975 300.412C154.971 300.412 155.874 300.573 156.685 300.895C157.495 301.208 158.188 301.642 158.765 302.199C159.341 302.756 159.785 303.415 160.098 304.177C160.42 304.938 160.581 305.764 160.581 306.652C160.581 307.004 160.537 307.38 160.449 307.78C160.371 308.171 160.229 308.596 160.024 309.055C159.829 309.504 159.565 309.987 159.233 310.505C158.911 311.022 158.501 311.579 158.003 312.175L151.074 320.422H160.552V323H147.529V320.847ZM171.948 323.264C170.366 323.264 169.043 322.971 167.979 322.385C166.914 321.799 166.06 320.993 165.415 319.968C164.78 318.942 164.326 317.741 164.053 316.364C163.779 314.987 163.643 313.508 163.643 311.926C163.643 310.236 163.828 308.659 164.199 307.194C164.57 305.72 165.068 304.538 165.693 303.649C166.318 302.761 167.104 302.004 168.052 301.379C169.009 300.754 170.317 300.441 171.978 300.441C173.55 300.441 174.858 300.69 175.903 301.188C176.948 301.686 177.808 302.453 178.481 303.488C179.165 304.514 179.644 305.754 179.917 307.209C180.19 308.664 180.327 310.207 180.327 311.838C180.327 313.43 180.19 314.919 179.917 316.306C179.644 317.692 179.18 318.903 178.525 319.938C177.881 320.964 177.021 321.774 175.947 322.37C174.873 322.966 173.54 323.264 171.948 323.264ZM171.948 320.656C173.091 320.656 174.009 320.427 174.702 319.968C175.405 319.499 175.933 318.864 176.284 318.063C176.646 317.263 176.914 316.33 177.09 315.266C177.266 314.191 177.354 313.049 177.354 311.838C177.354 310.676 177.285 309.562 177.148 308.498C177.012 307.424 176.748 306.476 176.357 305.656C175.967 304.836 175.42 304.182 174.717 303.693C174.014 303.205 173.101 302.961 171.978 302.961C170.815 302.961 169.897 303.205 169.224 303.693C168.55 304.182 168.047 304.772 167.715 305.466C167.383 306.149 167.119 307.092 166.924 308.293C166.738 309.494 166.646 310.676 166.646 311.838C166.646 313.049 166.704 314.191 166.821 315.266C166.948 316.33 167.197 317.263 167.568 318.063C167.949 318.864 168.486 319.499 169.18 319.968C169.883 320.427 170.806 320.656 171.948 320.656ZM183.125 320.847L190.933 311.413C191.196 311.1 191.47 310.764 191.753 310.402C192.046 310.041 192.314 309.66 192.559 309.26C192.812 308.859 193.018 308.444 193.174 308.015C193.34 307.575 193.423 307.121 193.423 306.652C193.423 306.164 193.325 305.705 193.13 305.275C192.935 304.846 192.666 304.47 192.324 304.147C191.982 303.825 191.572 303.571 191.094 303.386C190.625 303.2 190.107 303.107 189.541 303.107C189.033 303.107 188.55 303.19 188.091 303.356C187.642 303.513 187.246 303.747 186.904 304.059C186.562 304.372 186.284 304.763 186.069 305.231C185.864 305.69 185.752 306.223 185.732 306.828H183.096C183.105 305.9 183.286 305.046 183.638 304.265C183.989 303.474 184.458 302.795 185.044 302.228C185.64 301.652 186.328 301.208 187.109 300.895C187.891 300.573 188.711 300.412 189.57 300.412C190.566 300.412 191.47 300.573 192.28 300.895C193.091 301.208 193.784 301.642 194.36 302.199C194.937 302.756 195.381 303.415 195.693 304.177C196.016 304.938 196.177 305.764 196.177 306.652C196.177 307.004 196.133 307.38 196.045 307.78C195.967 308.171 195.825 308.596 195.62 309.055C195.425 309.504 195.161 309.987 194.829 310.505C194.507 311.022 194.097 311.579 193.599 312.175L186.67 320.422H196.147V323H183.125V320.847ZM207.544 323.264C205.962 323.264 204.639 322.971 203.574 322.385C202.51 321.799 201.655 320.993 201.011 319.968C200.376 318.942 199.922 317.741 199.648 316.364C199.375 314.987 199.238 313.508 199.238 311.926C199.238 310.236 199.424 308.659 199.795 307.194C200.166 305.72 200.664 304.538 201.289 303.649C201.914 302.761 202.7 302.004 203.647 301.379C204.604 300.754 205.913 300.441 207.573 300.441C209.146 300.441 210.454 300.69 211.499 301.188C212.544 301.686 213.403 302.453 214.077 303.488C214.761 304.514 215.239 305.754 215.513 307.209C215.786 308.664 215.923 310.207 215.923 311.838C215.923 313.43 215.786 314.919 215.513 316.306C215.239 317.692 214.775 318.903 214.121 319.938C213.477 320.964 212.617 321.774 211.543 322.37C210.469 322.966 209.136 323.264 207.544 323.264ZM207.544 320.656C208.687 320.656 209.604 320.427 210.298 319.968C211.001 319.499 211.528 318.864 211.88 318.063C212.241 317.263 212.51 316.33 212.686 315.266C212.861 314.191 212.949 313.049 212.949 311.838C212.949 310.676 212.881 309.562 212.744 308.498C212.607 307.424 212.344 306.476 211.953 305.656C211.562 304.836 211.016 304.182 210.312 303.693C209.609 303.205 208.696 302.961 207.573 302.961C206.411 302.961 205.493 303.205 204.819 303.693C204.146 304.182 203.643 304.772 203.311 305.466C202.979 306.149 202.715 307.092 202.52 308.293C202.334 309.494 202.241 310.676 202.241 311.838C202.241 313.049 202.3 314.191 202.417 315.266C202.544 316.33 202.793 317.263 203.164 318.063C203.545 318.864 204.082 319.499 204.775 319.968C205.479 320.427 206.401 320.656 207.544 320.656Z" fill="#8B8BAE"/>
</svg>
