<svg width="62" height="62" viewBox="0 0 62 62" fill="none" xmlns="http://www.w3.org/2000/svg">
<g clip-path="url(#clip0)">
<path d="M61.5371 29.7885C60.9837 29.1711 47.6725 14.6523 31.0001 14.6523C14.3276 14.6523 1.01652 29.1711 0.463002 29.7885C-0.154334 30.4784 -0.154334 31.5216 0.463002 32.2115C1.01652 32.8289 14.3279 47.3477 31.0001 47.3477C47.6722 47.3477 60.9836 32.8289 61.5371 32.2115C62.1543 31.5216 62.1543 30.4784 61.5371 29.7885ZM31.0001 43.7148C23.9898 43.7148 18.2852 38.0102 18.2852 31C18.2852 23.9898 23.9898 18.2852 31.0001 18.2852C38.0103 18.2852 43.7149 23.9898 43.7149 31C43.7149 38.0102 38.0103 43.7148 31.0001 43.7148Z" fill="#8B8BAE"/>
<path d="M32.8164 27.3672C32.8164 25.5399 33.7235 23.9324 35.1035 22.9436C33.8652 22.3097 32.484 21.918 31 21.918C25.9924 21.918 21.918 25.9924 21.918 31C21.918 36.0076 25.9924 40.082 31 40.082C35.4834 40.082 39.1942 36.8084 39.9273 32.5309C36.2695 33.7085 32.8164 30.9421 32.8164 27.3672Z" fill="#8B8BAE"/>
</g>
<defs>
<clipPath id="clip0">
<rect width="62" height="62" fill="white"/>
</clipPath>
</defs>
</svg>
