<svg width="58" height="57" viewBox="0 0 58 57" fill="none" xmlns="http://www.w3.org/2000/svg">
<g clip-path="url(#clip0)">
<path d="M29.1375 1.17896C13.5059 1.17896 0.845093 13.6276 0.845093 28.9809C0.845093 41.2669 8.95086 51.6856 20.19 55.3589C21.6046 55.6206 22.1233 54.76 22.1233 54.0221C22.1233 53.3619 22.0997 51.6125 22.088 49.2949C14.218 50.9712 12.5581 45.565 12.5581 45.565C11.2708 42.3562 9.41061 41.498 9.41061 41.498C6.84779 39.7745 9.60866 39.8098 9.60866 39.8098C12.4497 40.0032 13.9421 42.6745 13.9421 42.6745C16.4648 46.9254 20.5649 45.697 22.1823 44.9874C22.4369 43.1884 23.1654 41.9648 23.9741 41.2693C17.6909 40.5737 11.0869 38.183 11.0869 27.531C11.0869 24.4966 12.1833 22.0163 13.9987 20.0712C13.6804 19.3686 12.7255 16.5417 14.2463 12.7128C14.2463 12.7128 16.6157 11.9678 22.0267 15.5633C24.29 14.9456 26.6949 14.6391 29.0998 14.6249C31.5046 14.6391 33.9095 14.9456 36.1729 15.5633C41.5484 11.9678 43.9179 12.7128 43.9179 12.7128C45.4386 16.5417 44.4837 19.3686 44.2008 20.0712C46.0045 22.0163 47.1008 24.4966 47.1008 27.531C47.1008 38.2113 40.4874 40.562 34.1924 41.2457C35.1826 42.0803 36.1021 43.7849 36.1021 46.3902C36.1021 50.1106 36.0668 53.1002 36.0668 54.0032C36.0668 54.7317 36.5619 55.6017 38.0119 55.3235C49.3312 51.6738 57.4299 41.248 57.4299 28.9809C57.4299 13.6276 44.7619 1.17896 29.1375 1.17896Z" fill="white"/>
</g>
<defs>
<clipPath id="clip0">
<rect width="56.5848" height="56.5848" fill="white" transform="translate(0.845093)"/>
</clipPath>
</defs>
</svg>
