<svg width="57" height="58" viewBox="0 0 57 58" fill="none" xmlns="http://www.w3.org/2000/svg">
<g clip-path="url(#clip0)">
<path d="M51.2982 6.96381C51.2888 6.9637 51.2803 6.96093 51.2709 6.96093C51.2666 6.96093 51.2625 6.95972 51.2582 6.95972H5.74433C5.74058 6.95972 5.73704 6.96082 5.73328 6.96082C5.72521 6.96082 5.71748 6.96314 5.7093 6.96325C2.67339 6.98259 0.208862 9.45475 0.208862 12.4952V45.708C0.208862 48.7604 2.69196 51.2435 5.74433 51.2435H51.2582C54.3105 51.2435 56.7936 48.7604 56.7936 45.708V12.4952C56.7936 9.45652 54.3319 6.9858 51.2982 6.96381ZM45.7227 47.5532H11.2798V27.4054L24.5875 40.7132C25.6663 41.792 27.0838 42.3325 28.5012 42.3325C29.9187 42.3325 31.3362 41.7918 32.415 40.7132L45.7228 27.4054V47.5532H45.7227ZM28.5012 28.9695L10.1818 10.65H46.8227L28.5012 28.9695Z" fill="white"/>
</g>
<defs>
<clipPath id="clip0">
<rect width="56.5848" height="56.5848" fill="white" transform="translate(0.208862 0.80835)"/>
</clipPath>
</defs>
</svg>
