<svg width="370" height="457" viewBox="0 0 370 457" fill="none" xmlns="http://www.w3.org/2000/svg">
<path d="M16.2474 108.498C-23.8051 57.8375 21.4444 20.6865 32.376 0.00012207H370V457C350.915 366.656 319.426 293.908 222.693 229.239C143.125 176.045 56.3 159.159 16.2474 108.498Z" fill="white"/>
<path d="M156.591 47.0231L159.621 46.359C160.395 46.359 161.018 46.525 161.488 46.8571C161.959 47.1891 162.194 47.5073 162.194 47.8116C162.194 48.0883 162.125 48.5034 161.986 49.0568C161.848 49.6101 160.727 55.0057 158.625 65.2433C156.522 75.4809 154.986 83.1176 154.018 88.1534C158.721 81.7618 164.214 73.8899 170.495 64.5377C176.776 55.1855 180.442 48.9738 181.493 45.9025C181.825 44.934 182.254 44.187 182.78 43.6613C183.306 43.1355 183.776 42.8312 184.191 42.7482C184.606 42.6375 185.242 42.5822 186.1 42.5822C186.958 42.5822 187.968 42.7758 189.13 43.1632C190.32 43.5229 190.915 44.1316 190.915 44.9894C190.915 46.6219 188.493 51.3256 183.651 59.1007C178.809 66.8758 173.275 75.1351 167.05 83.8785C160.852 92.622 155.664 99.5393 151.486 104.63C150.739 105.544 149.826 106 148.747 106C147.695 106 146.575 105.82 145.385 105.461C144.223 105.073 143.642 104.409 143.642 103.468C143.642 100.425 146.312 85.8016 151.652 59.5988C147.086 65.52 141.539 73.7654 135.009 84.3351C128.202 95.2644 124.356 102.043 123.471 104.672C122.973 106.249 122.405 107.162 121.769 107.411C121.326 107.605 120.856 107.702 120.358 107.702L117.079 108.075C116.443 108.075 115.862 107.895 115.336 107.536C114.783 107.176 114.506 106.803 114.506 106.415C114.506 105.308 116.028 102.002 119.071 96.4957C122.143 90.9895 125.712 85.013 129.779 78.566C133.874 72.0914 138.149 65.7967 142.604 59.6818C147.059 53.5669 150.504 49.458 152.938 47.3551C153.437 46.9124 154.004 46.691 154.64 46.691L156.591 47.0231ZM201.789 74.3741C202.619 74.3741 203.463 74.7477 204.32 75.4948C205.206 76.2418 205.648 77.3901 205.648 78.9396C205.648 80.4614 205.109 82.4536 204.03 84.9161C202.951 87.351 201.47 89.8413 199.589 92.3868C197.707 94.9047 195.632 97.2843 193.363 99.5255C191.122 101.739 188.687 103.565 186.059 105.004C183.458 106.415 181.092 107.121 178.961 107.121C176.831 107.121 175.115 106.457 173.815 105.129C172.542 103.773 171.906 101.905 171.906 99.5255C171.906 97.1183 172.487 94.462 173.649 91.5568C174.839 88.6515 176.361 86.0921 178.214 83.8785C180.068 81.6373 182.074 79.6313 184.232 77.8605C188.743 74.2358 192.699 72.4235 196.103 72.4235C197.624 72.4235 198.773 72.797 199.547 73.5441C199.824 73.7931 199.962 74.0144 199.962 74.2081V74.4572C200.35 74.4018 200.958 74.3741 201.789 74.3741ZM197.597 79.8942H197.306C196.338 79.8942 195.854 79.1886 195.854 77.7775C193.834 78.4415 191.717 79.6036 189.503 81.2638C187.29 82.924 185.312 84.8885 183.568 87.1573C180.027 91.6951 178.228 95.5273 178.173 98.6539C178.173 100.203 178.74 100.978 179.875 100.978C181.009 100.978 182.697 100.231 184.938 98.7369C187.179 97.2428 189.393 95.1123 191.579 92.3453C193.792 89.5784 195.438 87.185 196.518 85.1652C197.624 83.1176 198.178 81.7342 198.178 81.0148C198.178 80.2677 197.984 79.8942 197.597 79.8942ZM226.4 99.6085C226.4 100.826 227.23 101.435 228.891 101.435C229.776 101.435 230.883 100.992 232.211 100.107C233.567 99.2212 234.784 98.2527 235.863 97.2013C238.741 94.3514 240.373 92.9264 240.761 92.9264C241.48 92.9264 241.84 93.964 241.84 96.0392C241.84 98.1144 241.19 99.5393 239.889 100.314C235.932 103.883 232.875 106.055 230.717 106.83C229.499 107.245 228.157 107.439 226.691 107.411C225.224 107.384 223.772 106.747 222.333 105.502C220.894 104.257 220.175 102.749 220.175 100.978C220.175 99.1796 220.645 97.146 221.586 94.8771C222.527 92.6082 223.481 90.6713 224.45 89.0665C225.446 87.434 226.663 85.5525 228.102 83.422C229.541 81.2638 230.302 79.9218 230.385 79.3961L230.302 79.3131C229.389 79.3961 227.12 81.1946 223.495 84.7086C219.898 88.2226 216.924 91.2801 214.572 93.881C212.22 96.4819 209.411 99.9544 206.146 104.298C205.233 105.488 204.486 106.083 203.905 106.083C203.324 106.083 202.549 105.903 201.581 105.544C200.585 105.156 199.976 104.88 199.755 104.714C199.534 104.547 199.423 104.298 199.423 103.966C199.423 103.634 199.52 103.233 199.713 102.763C199.907 102.265 200.101 101.864 200.294 101.559C200.46 101.227 200.751 100.729 201.166 100.065C201.581 99.401 202.397 98.0037 203.615 95.8732C204.86 93.715 206.755 90.5053 209.301 86.2443C211.846 81.9832 213.368 79.41 213.866 78.5245C214.918 76.6984 215.775 75.3702 216.439 74.5402C217.685 72.963 219.787 72.1744 222.748 72.1744C223.412 72.1744 223.744 72.5895 223.744 73.4196C223.744 74.72 222.541 77.1687 220.133 80.7657L218.39 83.3805C223.177 78.068 227.217 74.7062 230.509 73.295C232.114 72.6033 233.553 72.2574 234.826 72.2574C236.126 72.2574 237.15 72.6033 237.897 73.295C238.672 73.9868 239.059 74.7615 239.059 75.6193C239.059 76.4493 238.769 77.4593 238.188 78.649C237.606 79.8112 237.012 80.8626 236.403 81.8033C235.822 82.7164 235.047 83.8785 234.079 85.2897C233.11 86.7008 232.584 87.4755 232.501 87.6139C232.418 87.7246 232.197 88.0566 231.837 88.61C231.505 89.1357 231.256 89.5231 231.09 89.7721C230.924 90.0211 230.648 90.4638 230.26 91.1002C229.873 91.7089 229.555 92.2208 229.306 92.6359C229.084 93.0509 228.794 93.5628 228.434 94.1715C228.102 94.7802 227.825 95.3059 227.604 95.7487C227.41 96.1914 227.203 96.6756 226.981 97.2013C226.594 98.1697 226.4 98.9721 226.4 99.6085ZM259.604 99.6085C259.604 100.826 260.434 101.435 262.094 101.435C262.979 101.435 264.086 100.992 265.414 100.107C266.77 99.2212 267.987 98.2527 269.066 97.2013C271.944 94.3514 273.576 92.9264 273.964 92.9264C274.683 92.9264 275.043 93.964 275.043 96.0392C275.043 98.1144 274.393 99.5393 273.092 100.314C269.136 103.883 266.078 106.055 263.92 106.83C262.702 107.245 261.361 107.439 259.894 107.411C258.428 107.384 256.975 106.747 255.536 105.502C254.097 104.257 253.378 102.749 253.378 100.978C253.378 99.1796 253.848 97.146 254.789 94.8771C255.73 92.6082 256.684 90.6713 257.653 89.0665C258.649 87.434 259.866 85.5525 261.305 83.422C262.744 81.2638 263.505 79.9218 263.588 79.3961L263.505 79.3131C262.592 79.3961 260.323 81.1946 256.698 84.7086C253.101 88.2226 250.127 91.2801 247.775 93.881C245.423 96.4819 242.615 99.9544 239.35 104.298C238.437 105.488 237.689 106.083 237.108 106.083C236.527 106.083 235.753 105.903 234.784 105.544C233.788 105.156 233.179 104.88 232.958 104.714C232.737 104.547 232.626 104.298 232.626 103.966C232.626 103.634 232.723 103.233 232.917 102.763C233.11 102.265 233.304 101.864 233.498 101.559C233.664 101.227 233.954 100.729 234.369 100.065C234.784 99.401 235.6 98.0037 236.818 95.8732C238.063 93.715 239.958 90.5053 242.504 86.2443C245.049 81.9832 246.571 79.41 247.069 78.5245C248.121 76.6984 248.979 75.3702 249.643 74.5402C250.888 72.963 252.991 72.1744 255.951 72.1744C256.615 72.1744 256.947 72.5895 256.947 73.4196C256.947 74.72 255.744 77.1687 253.336 80.7657L251.593 83.3805C256.38 78.068 260.42 74.7062 263.712 73.295C265.317 72.6033 266.756 72.2574 268.029 72.2574C269.329 72.2574 270.353 72.6033 271.1 73.295C271.875 73.9868 272.262 74.7615 272.262 75.6193C272.262 76.4493 271.972 77.4593 271.391 78.649C270.81 79.8112 270.215 80.8626 269.606 81.8033C269.025 82.7164 268.25 83.8785 267.282 85.2897C266.313 86.7008 265.788 87.4755 265.705 87.6139C265.622 87.7246 265.4 88.0566 265.041 88.61C264.708 89.1357 264.459 89.5231 264.293 89.7721C264.127 90.0211 263.851 90.4638 263.463 91.1002C263.076 91.7089 262.758 92.2208 262.509 92.6359C262.287 93.0509 261.997 93.5628 261.637 94.1715C261.305 94.7802 261.028 95.3059 260.807 95.7487C260.613 96.1914 260.406 96.6756 260.185 97.2013C259.797 98.1697 259.604 98.9721 259.604 99.6085ZM283.717 119.779C283.579 119.918 283.15 120.609 282.431 121.855C281.739 123.127 280.992 124.4 280.189 125.673C279.387 126.973 278.391 128.205 277.201 129.367C276.039 130.529 275.057 131.151 274.254 131.234C273.48 131.345 272.982 131.401 272.76 131.401C270.215 131.401 268.942 130.114 268.942 127.541C268.942 124.525 270.505 120.997 273.632 116.957C274.822 115.435 276.316 113.789 278.114 112.018C279.913 110.275 280.895 109.279 281.061 109.03C281.227 108.809 283.302 104.935 287.287 97.4088C284.63 100.314 282.168 102.68 279.899 104.506C277.63 106.304 275.444 107.314 273.341 107.536H273.051C271.972 107.536 270.906 107.176 269.855 106.457C268.804 105.765 268.278 104.534 268.278 102.763C268.278 100.134 268.983 97.5887 270.395 95.1261C270.893 94.2684 271.75 92.8157 272.968 90.7682C274.213 88.7207 275.361 86.7423 276.413 84.8331C277.409 83.3113 278.432 81.5405 279.484 79.5206C280.535 77.5008 281.338 76.062 281.891 75.2042C282.444 74.3188 282.97 73.8761 283.468 73.8761C283.966 73.8761 284.603 74.1943 285.377 74.8307C286.18 75.4394 286.581 76.1726 286.581 77.0304C286.581 77.8881 284.769 81.6097 281.144 88.1949C277.519 94.7802 275.707 98.5294 275.707 99.4425C275.707 99.6639 275.818 99.7745 276.039 99.7745C276.786 99.7745 278.432 98.7231 280.978 96.6202C283.551 94.4897 286.387 91.7643 289.486 88.444C292.945 84.764 295.657 81.4021 297.621 78.3585C297.87 77.9712 298.064 77.6806 298.202 77.4869C298.368 77.2656 298.562 76.9889 298.783 76.6569C299.032 76.2972 299.226 76.0205 299.364 75.8268C299.53 75.6331 299.71 75.4117 299.904 75.1627C300.125 74.886 300.319 74.6785 300.485 74.5402C300.651 74.4018 300.831 74.2635 301.024 74.1251C301.329 73.8484 301.661 73.7101 302.021 73.7101C302.408 73.7101 302.975 73.7931 303.722 73.9591C304.497 74.1251 304.953 74.305 305.092 74.4987C305.258 74.6923 305.424 74.8722 305.59 75.0382C305.867 75.3426 306.005 75.6331 306.005 75.9098C306.005 76.1588 305.894 76.5047 305.673 76.9474C305.451 77.3624 304.165 79.5483 301.813 83.505C294.896 95.1814 290.137 103.704 287.536 109.071C291.741 105.53 297.663 100.286 305.299 93.3414C305.604 93.0924 305.908 92.9679 306.212 92.9679C307.07 92.9679 307.499 94.2822 307.499 96.9108C307.499 97.6855 307.361 98.1974 307.084 98.4464C298.811 104.81 291.022 111.921 283.717 119.779Z" fill="#8B8BAE"/>
</svg>
