<svg width="849" height="1079" viewBox="0 0 849 1079" fill="none" xmlns="http://www.w3.org/2000/svg">
<path d="M282.623 152C378.017 47.8835 849 0 849 0V1079C389.644 1079 93.5154 998 15.9812 854C-61.5529 710 163.208 561.462 258.039 466C342.658 380.818 163.38 282.146 282.623 152Z" fill="#8B8BAE"/>
<path d="M824.427 789.412H192.806V919.786H824.427V789.412Z" fill="white"/>
<path d="M824.427 920.925H192.806C192.504 920.925 192.215 920.808 192.001 920.599C191.788 920.39 191.668 920.106 191.668 919.811V789.533C191.668 789.387 191.698 789.242 191.755 789.107C191.812 788.972 191.896 788.849 192.001 788.745C192.107 788.642 192.232 788.56 192.37 788.504C192.508 788.448 192.656 788.419 192.806 788.419H824.427C824.577 788.419 824.725 788.448 824.863 788.504C825.001 788.56 825.126 788.642 825.232 788.745C825.337 788.849 825.421 788.972 825.478 789.107C825.535 789.242 825.565 789.387 825.565 789.533V919.932C825.534 920.206 825.401 920.459 825.191 920.643C824.981 920.826 824.709 920.927 824.427 920.925ZM193.894 918.696H823.29V790.526H193.943L193.894 918.696Z" fill="#D1D3D4"/>
<path d="M824.304 789.412H192.929C187.521 789.412 183.137 793.707 183.137 799.005V800.846C183.137 806.144 187.521 810.439 192.929 810.439H824.304C829.712 810.439 834.096 806.144 834.096 800.846V799.005C834.096 793.707 829.712 789.412 824.304 789.412Z" fill="white"/>
<path d="M824.304 811.553H192.929C190.031 811.553 187.251 810.425 185.201 808.417C183.151 806.409 182 803.686 182 800.846V799.029C182 796.187 183.151 793.461 185.2 791.45C187.249 789.438 190.028 788.304 192.929 788.298H824.304C827.205 788.304 829.984 789.438 832.033 791.45C834.082 793.461 835.233 796.187 835.233 799.029V800.846C835.233 802.252 834.95 803.644 834.401 804.943C833.852 806.242 833.047 807.423 832.032 808.417C831.017 809.411 829.812 810.2 828.486 810.738C827.16 811.276 825.739 811.553 824.304 811.553ZM192.929 790.526C190.632 790.533 188.43 791.432 186.808 793.025C185.186 794.619 184.275 796.778 184.275 799.029V800.846C184.275 803.095 185.187 805.251 186.81 806.841C188.433 808.431 190.634 809.324 192.929 809.324H824.304C826.599 809.324 828.8 808.431 830.423 806.841C832.046 805.251 832.958 803.095 832.958 800.846V799.029C832.958 796.778 832.047 794.619 830.425 793.025C828.802 791.432 826.601 790.533 824.304 790.526H192.929Z" fill="#D1D3D4"/>
<path d="M434.659 755.886H236.869V788.274H434.659V755.886Z" fill="#231F20"/>
<path d="M434.659 789.339H236.844C236.556 789.339 236.279 789.227 236.075 789.027C235.871 788.827 235.756 788.556 235.756 788.273V755.886C235.756 755.603 235.871 755.332 236.075 755.132C236.279 754.932 236.556 754.82 236.844 754.82H434.659C434.947 754.82 435.224 754.932 435.428 755.132C435.632 755.332 435.747 755.603 435.747 755.886V788.273C435.747 788.556 435.632 788.827 435.428 789.027C435.224 789.227 434.947 789.339 434.659 789.339ZM237.957 787.111H433.571V756.952H237.957V787.111Z" fill="#231F20"/>
<path d="M434.634 755.886H326.85V788.274H434.634V755.886Z" fill="white"/>
<path d="M434.658 789.388H326.85C326.552 789.382 326.269 789.262 326.061 789.053C325.853 788.845 325.737 788.565 325.737 788.274V755.886C325.737 755.597 325.854 755.32 326.063 755.115C326.271 754.911 326.554 754.796 326.85 754.796H434.658C434.953 754.796 435.237 754.911 435.445 755.115C435.654 755.32 435.771 755.597 435.771 755.886V788.274C435.771 788.565 435.655 788.845 435.447 789.053C435.239 789.262 434.956 789.382 434.658 789.388ZM328.111 787.111H433.645V757H328.111V787.111Z" fill="#231F20"/>
<path d="M431.79 732.437H271.635V756.443H431.79V732.437Z" fill="#231F20"/>
<path d="M431.79 757.509H271.635C271.346 757.509 271.069 757.397 270.865 757.197C270.661 756.997 270.547 756.726 270.547 756.443V732.437C270.547 732.154 270.661 731.883 270.865 731.683C271.069 731.483 271.346 731.371 271.635 731.371H431.79C432.081 731.371 432.36 731.483 432.568 731.682C432.776 731.881 432.896 732.152 432.903 732.437V756.443C432.903 756.585 432.874 756.726 432.818 756.857C432.762 756.988 432.679 757.106 432.576 757.205C432.472 757.305 432.349 757.383 432.214 757.435C432.079 757.487 431.935 757.512 431.79 757.509ZM272.723 755.377H430.702V733.575H272.723V755.377Z" fill="#231F20"/>
<path d="M431.79 732.437H363.421V756.443H431.79V732.437Z" fill="white"/>
<path d="M431.79 757.558H363.421C363.119 757.558 362.83 757.44 362.616 757.231C362.403 757.022 362.283 756.739 362.283 756.443V732.437C362.29 732.143 362.411 731.864 362.623 731.656C362.835 731.448 363.121 731.329 363.421 731.323H431.79C432.092 731.323 432.381 731.44 432.595 731.649C432.808 731.858 432.928 732.142 432.928 732.437V756.443C432.931 756.59 432.904 756.737 432.848 756.874C432.792 757.01 432.708 757.134 432.602 757.238C432.496 757.343 432.369 757.425 432.229 757.479C432.09 757.534 431.941 757.561 431.79 757.558ZM364.558 755.353H430.678V733.551H364.558V755.353Z" fill="#231F20"/>
<path d="M409.19 709.109H249.034V733.115H409.19V709.109Z" fill="#231F20"/>
<path d="M409.215 734.181H248.985C248.696 734.181 248.42 734.069 248.216 733.869C248.012 733.669 247.897 733.398 247.897 733.115V709.109C247.897 708.826 248.012 708.555 248.216 708.355C248.42 708.155 248.696 708.043 248.985 708.043H409.215C409.503 708.043 409.78 708.155 409.984 708.355C410.188 708.555 410.303 708.826 410.303 709.109V733.115C410.303 733.398 410.188 733.669 409.984 733.869C409.78 734.069 409.503 734.181 409.215 734.181ZM250.122 732.049H408.127V710.248H250.122V732.049Z" fill="#231F20"/>
<path d="M409.19 709.109H340.82V733.115H409.19V709.109Z" fill="white"/>
<path d="M409.215 734.23H340.82C340.672 734.23 340.525 734.201 340.389 734.144C340.252 734.088 340.128 734.006 340.025 733.902C339.921 733.798 339.839 733.675 339.785 733.54C339.731 733.405 339.704 733.26 339.708 733.115V709.109C339.707 708.818 339.824 708.538 340.032 708.33C340.24 708.121 340.523 708.001 340.82 707.995H409.215C409.512 708.001 409.795 708.121 410.003 708.33C410.211 708.538 410.327 708.818 410.327 709.109V733.115C410.331 733.26 410.304 733.405 410.25 733.54C410.195 733.675 410.114 733.798 410.01 733.902C409.907 734.006 409.783 734.088 409.646 734.144C409.51 734.201 409.363 734.23 409.215 734.23ZM341.958 732.025H408.077V710.223H341.958V732.025Z" fill="#231F20"/>
<path d="M328.63 726.405C331.484 726.405 333.798 724.138 333.798 721.342C333.798 718.546 331.484 716.279 328.63 716.279C325.776 716.279 323.462 718.546 323.462 721.342C323.462 724.138 325.776 726.405 328.63 726.405Z" fill="white"/>
<path d="M328.63 727.52C327.383 727.52 326.164 727.157 325.127 726.479C324.09 725.8 323.282 724.835 322.805 723.706C322.327 722.578 322.203 721.336 322.446 720.137C322.689 718.939 323.29 717.838 324.171 716.975C325.053 716.111 326.177 715.522 327.4 715.284C328.623 715.046 329.891 715.168 331.043 715.635C332.195 716.103 333.18 716.895 333.873 717.911C334.566 718.926 334.935 720.121 334.935 721.342C334.935 722.981 334.271 724.552 333.089 725.71C331.906 726.869 330.302 727.52 328.63 727.52ZM328.63 717.394C327.833 717.394 327.054 717.625 326.391 718.059C325.728 718.493 325.211 719.11 324.906 719.831C324.601 720.553 324.521 721.347 324.677 722.113C324.833 722.879 325.216 723.582 325.78 724.134C326.344 724.687 327.062 725.063 327.844 725.215C328.626 725.367 329.436 725.289 330.172 724.99C330.909 724.692 331.538 724.185 331.981 723.536C332.424 722.887 332.66 722.123 332.66 721.342C332.654 720.297 332.227 719.297 331.473 718.557C330.718 717.818 329.697 717.4 328.63 717.394Z" fill="#231F20"/>
<path d="M287.262 753.488C286.962 753.481 286.677 753.362 286.465 753.154C286.253 752.947 286.131 752.667 286.125 752.373V736.24C286.125 736.094 286.154 735.949 286.211 735.814C286.268 735.678 286.352 735.556 286.458 735.452C286.563 735.349 286.689 735.266 286.827 735.21C286.965 735.154 287.113 735.126 287.262 735.126C287.412 735.122 287.562 735.149 287.701 735.204C287.841 735.259 287.967 735.341 288.074 735.445C288.18 735.549 288.264 735.673 288.32 735.81C288.376 735.946 288.403 736.093 288.399 736.24V752.494C288.369 752.769 288.236 753.022 288.026 753.205C287.815 753.389 287.543 753.489 287.262 753.488Z" fill="white"/>
<path d="M308.7 785.585C308.551 785.585 308.403 785.556 308.265 785.5C308.127 785.444 308.002 785.362 307.896 785.258C307.79 785.155 307.706 785.032 307.649 784.897C307.592 784.762 307.563 784.617 307.563 784.47V759.108C307.603 758.837 307.742 758.59 307.953 758.412C308.164 758.233 308.434 758.135 308.713 758.135C308.991 758.135 309.261 758.233 309.472 758.412C309.683 758.59 309.822 758.837 309.862 759.108V784.47C309.862 784.619 309.832 784.766 309.773 784.903C309.715 785.039 309.629 785.163 309.52 785.267C309.412 785.371 309.284 785.452 309.143 785.507C309.002 785.562 308.852 785.588 308.7 785.585Z" fill="white"/>
<path d="M338.892 425.783L347.521 419.243L383.894 434.092L457.803 409.626L464.479 419.631L387.158 463.064L338.892 425.783Z" fill="#E6E7E8"/>
<path d="M365.968 542.277L336.147 422.683L383.672 442.716L469.474 412.266L491.555 533.048L412.503 559.743L365.968 542.277Z" fill="white"/>
<path d="M412.503 560.857C412.373 560.88 412.239 560.88 412.108 560.857L365.572 543.392C365.402 543.325 365.251 543.22 365.131 543.085C365.011 542.951 364.925 542.79 364.88 542.617L335.034 422.949C334.986 422.752 334.996 422.545 335.061 422.352C335.127 422.16 335.246 421.989 335.405 421.859C335.564 421.72 335.762 421.63 335.973 421.6C336.184 421.57 336.399 421.601 336.592 421.69L383.573 441.529L469.054 411.225C469.201 411.159 469.361 411.125 469.523 411.125C469.685 411.125 469.846 411.159 469.993 411.225C470.137 411.306 470.261 411.418 470.355 411.552C470.449 411.686 470.511 411.839 470.537 412L492.668 532.757C492.717 533.016 492.67 533.284 492.533 533.511C492.397 533.738 492.181 533.909 491.926 533.993L412.8 560.639L412.503 560.857ZM366.932 541.478L412.528 558.604L490.294 532.346L468.609 413.792L384.043 443.782C383.78 443.879 383.49 443.879 383.227 443.782L337.779 424.645L366.932 541.478Z" fill="#231F20"/>
<path d="M405.605 554.559C405.343 554.554 405.091 554.463 404.889 554.3C404.687 554.137 404.547 553.913 404.492 553.663L382.51 442.91C382.481 442.768 382.481 442.622 382.511 442.481C382.54 442.339 382.598 442.205 382.681 442.086C382.764 441.966 382.87 441.864 382.993 441.785C383.117 441.706 383.255 441.652 383.4 441.626C383.544 441.598 383.693 441.598 383.838 441.627C383.982 441.656 384.119 441.712 384.241 441.794C384.363 441.875 384.467 441.979 384.548 442.1C384.629 442.221 384.684 442.356 384.71 442.498L406.668 553.227C406.696 553.368 406.696 553.514 406.667 553.656C406.637 553.797 406.58 553.932 406.497 554.051C406.414 554.17 406.308 554.273 406.184 554.351C406.061 554.43 405.923 554.484 405.778 554.511L405.605 554.559Z" fill="#231F20"/>
<path d="M437.181 581.205C437.181 581.205 428.477 567.785 429.763 564.249C430.764 560.746 431.443 557.163 431.79 553.541L422.493 555.722C422.493 555.722 412.899 532.224 411.935 524.061C410.97 515.897 393.068 523.431 392.425 529.705C391.782 535.979 391.461 552.282 396.579 561.681C401.698 571.08 416.089 593.632 416.089 593.632" fill="white"/>
<path d="M416.064 594.844C415.871 594.84 415.681 594.79 415.513 594.697C415.344 594.604 415.202 594.471 415.1 594.311C414.951 594.093 400.634 571.613 395.565 562.286C390.496 552.96 390.62 536.9 391.263 529.705C391.782 524.691 400.857 519.531 406.989 519.482C407.687 519.388 408.398 519.431 409.078 519.61C409.759 519.789 410.396 520.1 410.952 520.525C411.507 520.95 411.97 521.479 412.313 522.082C412.656 522.686 412.872 523.35 412.948 524.036C413.789 531.061 421.331 550.174 423.086 554.51L431.444 552.573C431.616 552.526 431.798 552.524 431.971 552.567C432.144 552.609 432.303 552.694 432.433 552.815C432.568 552.932 432.674 553.079 432.742 553.242C432.811 553.406 432.841 553.583 432.829 553.76C432.455 557.47 431.752 561.142 430.727 564.733C430.059 566.526 434.016 574.423 438.145 580.6C438.263 580.845 438.286 581.124 438.209 581.385C438.132 581.645 437.96 581.87 437.727 582.015C437.493 582.161 437.213 582.218 436.94 582.176C436.666 582.134 436.418 581.996 436.241 581.787C434.733 579.486 427.315 567.737 428.699 563.958C429.573 561.063 430.169 558.095 430.48 555.092L422.74 556.909C422.475 556.963 422.199 556.925 421.96 556.801C421.721 556.677 421.533 556.475 421.43 556.23C421.034 555.261 411.786 532.491 410.797 524.279C410.797 523.649 410.5 521.711 407.113 521.711C401.673 521.711 393.983 526.556 393.612 529.923C392.92 536.875 392.821 552.403 397.642 561.245C402.588 570.498 416.979 592.93 417.127 593.148C417.283 593.399 417.332 593.7 417.262 593.986C417.193 594.272 417.011 594.519 416.756 594.674C416.553 594.809 416.308 594.869 416.064 594.844Z" fill="#231F20"/>
<path d="M711.376 594.602C711.193 594.603 711.012 594.56 710.85 594.476C710.688 594.393 710.549 594.271 710.447 594.123C710.344 593.974 710.28 593.803 710.261 593.625C710.242 593.446 710.268 593.266 710.338 593.1C714.838 581.313 715.931 568.538 713.497 556.182C711.062 543.826 705.195 532.367 696.54 523.068C695.65 522.147 694.735 521.227 693.796 520.306C688.108 514.686 681.679 508.194 682.075 500.103C682.205 498.399 682.503 496.712 682.965 495.064C683.31 493.709 683.566 492.334 683.732 490.946C684.548 482.153 677.13 474.837 670.775 470.259C669.242 469.145 667.635 468.079 666.052 466.989C660.093 462.967 653.936 458.825 650.227 452.6C645.801 445.332 645.281 436.781 644.614 428.593C644.07 421.326 643.526 413.647 640.212 406.937C637.104 400.59 632.583 395.006 626.98 390.598C621.378 386.19 614.837 383.069 607.84 381.465C600.843 379.861 593.569 379.815 586.551 381.331C579.534 382.847 572.953 385.885 567.293 390.222C561.457 394.518 556.864 400.229 553.965 406.792C551.247 414.273 549.85 422.154 549.836 430.095C548.971 446.64 547.363 462.604 538.115 476.121C535.226 480.077 532.062 483.832 528.645 487.361C522.315 494.241 516.282 500.733 514.427 509.163C513.493 513.689 513.853 518.38 515.467 522.719C517.082 527.057 519.888 530.875 523.576 533.75C523.695 533.838 523.794 533.949 523.868 534.075C523.943 534.201 523.991 534.34 524.009 534.485C524.028 534.629 524.016 534.776 523.976 534.916C523.935 535.056 523.867 535.187 523.774 535.301C523.589 535.53 523.319 535.679 523.023 535.715C522.727 535.751 522.428 535.672 522.191 535.495C518.187 532.352 515.145 528.188 513.4 523.461C511.655 518.735 511.274 513.628 512.301 508.703C514.304 499.594 520.782 492.569 527.137 485.787C530.476 482.327 533.566 478.644 536.385 474.765C545.385 461.78 546.893 446.156 547.709 429.95C547.74 421.749 549.204 413.613 552.037 405.895C555.057 398.979 559.853 392.945 565.958 388.381C571.88 383.869 578.757 380.711 586.086 379.139C593.414 377.568 601.009 377.623 608.314 379.3C615.618 380.977 622.447 384.233 628.3 388.831C634.153 393.429 638.883 399.251 642.141 405.871C645.652 412.945 646.221 420.769 646.765 428.327C647.359 436.612 647.927 444.436 652.081 451.364C655.543 457.154 661.478 461.175 667.214 465.051C668.846 466.141 670.453 467.231 672.011 468.345C678.836 473.19 686.847 481.184 685.883 491.019C685.72 492.516 685.438 493.998 685.042 495.452C684.63 496.976 684.357 498.532 684.226 500.103C683.88 507.37 689.691 513.063 695.304 518.635C696.243 519.579 697.183 520.5 698.073 521.42C707.161 530.973 713.326 542.835 715.866 555.654C718.406 568.473 717.219 581.733 712.439 593.923C712.351 594.127 712.203 594.3 712.013 594.421C711.824 594.542 711.602 594.605 711.376 594.602Z" fill="#231F20"/>
<path d="M535.816 525.902L489.28 625.778L443.981 576.094L406.223 593.535C406.223 593.535 489.602 716.812 512.548 705.596C535.495 694.381 568.381 594.868 568.381 594.868L535.816 525.902Z" fill="#D1D1EC"/>
<path d="M595.853 498.141C595.853 498.141 545.41 503.567 533.541 527.477C521.672 551.386 524.367 662.26 524.367 662.26L710.486 681.809C710.486 681.809 705.763 590.653 696.985 550.199C688.207 509.744 661.379 483.074 595.853 498.141Z" fill="#D1D1EC"/>
<path d="M580.918 510.229L599.661 609.136L625.574 500.757L580.918 510.229Z" fill="#231F20"/>
<path d="M599.661 610.275C599.415 610.259 599.18 610.166 598.993 610.009C598.805 609.851 598.675 609.639 598.622 609.403L579.83 510.423C579.785 510.151 579.846 509.872 580.002 509.643C580.158 509.414 580.397 509.251 580.671 509.187L625.352 499.716C625.532 499.684 625.718 499.694 625.894 499.744C626.069 499.795 626.231 499.884 626.366 500.006C626.486 500.14 626.573 500.3 626.62 500.472C626.667 500.644 626.673 500.825 626.638 500.999L600.724 609.378C600.688 609.629 600.56 609.858 600.365 610.023C600.169 610.187 599.919 610.277 599.661 610.275ZM582.179 510.956L599.784 603.831L624.116 502.09L582.179 510.956Z" fill="#231F20"/>
<path d="M581.091 481.402L580.918 510.229C580.918 510.229 583.885 526.362 601.787 521.444C607.07 519.94 611.945 517.304 616.059 513.726C620.173 510.148 623.424 505.718 625.574 500.757L623.547 450.831C623.547 448.724 614.769 440.73 615.115 422.392C608.81 422.342 602.584 421.004 596.837 418.463C591.089 415.923 585.945 412.237 581.734 407.639C581.734 407.639 574.316 418.637 571.002 422.174C568.395 424.783 566.135 427.705 564.277 430.87C561.235 436.418 561.359 443.346 561.507 449.499C561.573 456.817 562.318 464.114 563.733 471.3C566.601 484.745 581.091 481.402 581.091 481.402Z" fill="white"/>
<path d="M595.433 523.479C592.52 523.54 589.652 522.774 587.174 521.275C583.36 518.735 580.7 514.845 579.756 510.423L579.904 482.71C576.005 483.286 572.022 482.552 568.604 480.627C567.002 479.575 565.639 478.21 564.6 476.618C563.562 475.025 562.871 473.24 562.571 471.373C561.14 464.189 560.387 456.891 560.32 449.572C560.197 443.637 560.024 436.273 563.213 430.386C565.128 427.09 567.463 424.045 570.162 421.326C573.327 417.959 580.72 407.082 580.794 406.986C580.889 406.838 581.021 406.717 581.176 406.632C581.332 406.547 581.507 406.502 581.684 406.501C581.861 406.48 582.04 406.508 582.201 406.581C582.362 406.653 582.5 406.768 582.599 406.913C586.725 411.373 591.742 414.953 597.34 417.433C602.938 419.912 608.997 421.238 615.14 421.326C615.289 421.325 615.436 421.355 615.572 421.414C615.708 421.472 615.831 421.558 615.931 421.665C616.038 421.765 616.121 421.885 616.177 422.019C616.232 422.153 616.258 422.296 616.252 422.441C615.872 431.327 618.289 440.113 623.176 447.609C623.909 448.565 624.423 449.664 624.684 450.831C624.684 450.831 624.684 451.946 626.712 500.757C626.735 500.894 626.735 501.033 626.712 501.169C624.523 506.31 621.178 510.901 616.927 514.6C612.676 518.299 607.627 521.011 602.158 522.535C599.972 523.156 597.708 523.474 595.433 523.479ZM582.031 510.229C582.942 513.943 585.2 517.206 588.385 519.41C590.372 520.479 592.57 521.118 594.831 521.285C597.091 521.452 599.362 521.143 601.491 520.379C606.555 518.915 611.233 516.386 615.196 512.967C619.159 509.549 622.313 505.324 624.437 500.588C624.289 496.906 622.434 451.267 622.409 450.88C622.095 450.129 621.697 449.414 621.223 448.748C616.327 441.206 613.807 432.418 613.978 423.482C601.807 423.088 590.273 418.056 581.833 409.456C578.736 414.098 575.393 418.577 571.818 422.877C569.291 425.423 567.09 428.262 565.266 431.331C562.348 436.709 562.496 443.443 562.645 449.402C562.707 456.63 563.435 463.838 564.821 470.937C565.06 472.502 565.621 474.003 566.471 475.348C567.322 476.693 568.443 477.855 569.766 478.762C573.129 480.544 577.03 481.094 580.769 480.312C580.933 480.273 581.103 480.273 581.266 480.31C581.429 480.348 581.581 480.424 581.709 480.53C581.845 480.634 581.955 480.766 582.032 480.917C582.109 481.068 582.151 481.234 582.154 481.402L581.956 510.229H582.031Z" fill="#231F20"/>
<path d="M581.264 495.549C581.264 495.549 593.207 496.082 600.897 488.282C603.095 486.296 604.827 483.866 605.971 481.16C607.115 478.453 607.645 475.536 607.524 472.609C607.524 472.609 594.616 481.111 581.19 481.402L581.264 495.549Z" fill="#231F20"/>
<path d="M581.783 496.639H581.214C580.937 496.633 580.673 496.52 580.478 496.326C580.284 496.131 580.176 495.87 580.176 495.597L580.003 481.426C580.003 481.148 580.114 480.88 580.313 480.681C580.511 480.482 580.782 480.367 581.066 480.361C593.998 480.07 606.708 471.834 606.831 471.761C606.989 471.672 607.168 471.625 607.351 471.625C607.533 471.625 607.712 471.672 607.87 471.761C608.04 471.833 608.188 471.947 608.301 472.091C608.413 472.235 608.486 472.405 608.513 472.585C608.513 472.924 609.626 481.063 601.664 489.13C596.265 494.039 589.148 496.727 581.783 496.639ZM582.179 482.42L582.327 494.532C588.933 494.431 595.266 491.937 600.106 487.531C603.7 484.098 605.919 479.517 606.362 474.619C599.002 478.969 590.736 481.635 582.179 482.42Z" fill="#231F20"/>
<path d="M584.404 439.058C584.404 439.058 574.934 452.818 577.184 455.24C579.434 457.663 585.739 456.064 585.739 456.064" fill="white"/>
<path d="M581.561 457.662C580.625 457.738 579.683 457.629 578.792 457.342C577.9 457.055 577.076 456.595 576.368 455.991C573.895 453.35 579.78 443.879 583.489 438.404C583.566 438.281 583.667 438.175 583.787 438.092C583.906 438.008 584.042 437.949 584.185 437.919C584.328 437.888 584.477 437.886 584.621 437.913C584.765 437.94 584.902 437.995 585.024 438.075C585.146 438.155 585.25 438.259 585.33 438.379C585.41 438.5 585.464 438.635 585.489 438.776C585.515 438.918 585.51 439.063 585.477 439.203C585.443 439.343 585.381 439.475 585.294 439.591C580.621 446.446 577.209 453.423 578 454.537C579.459 456.112 583.984 455.409 585.418 455.046C585.689 454.996 585.97 455.049 586.202 455.194C586.435 455.339 586.603 455.565 586.673 455.826C586.742 456.088 586.707 456.366 586.575 456.603C586.443 456.841 586.224 457.02 585.962 457.105C584.521 457.454 583.045 457.641 581.561 457.662Z" fill="#231F20"/>
<path d="M574.316 463.089C574.316 463.089 582.797 475.395 597.732 463.549L574.316 463.089Z" fill="white"/>
<path d="M585.27 469.775C584.566 469.775 583.864 469.726 583.168 469.629C579.202 468.988 575.651 466.848 573.277 463.67C573.117 463.436 573.058 463.148 573.113 462.871C573.169 462.594 573.335 462.35 573.574 462.192C573.691 462.111 573.824 462.054 573.965 462.025C574.105 461.996 574.25 461.995 574.391 462.022C574.532 462.049 574.666 462.104 574.785 462.183C574.904 462.262 575.005 462.364 575.082 462.483C577.131 465.13 580.125 466.921 583.465 467.497C587.619 468.103 592.168 466.48 596.916 462.653C597.028 462.565 597.156 462.5 597.294 462.46C597.432 462.421 597.576 462.409 597.718 462.425C597.861 462.441 597.999 462.484 598.124 462.552C598.25 462.62 598.36 462.712 598.449 462.822C598.543 462.929 598.614 463.053 598.658 463.188C598.702 463.322 598.717 463.464 598.703 463.604C598.69 463.745 598.647 463.881 598.577 464.005C598.508 464.128 598.414 464.237 598.301 464.324C594.722 467.549 590.122 469.472 585.27 469.775Z" fill="#231F20"/>
<path d="M546.473 660.951C546.182 660.933 545.911 660.803 545.716 660.59C545.522 660.377 545.421 660.098 545.435 659.813L552.457 545.378C552.46 545.238 552.492 545.1 552.552 544.972C552.612 544.845 552.698 544.731 552.804 544.638C552.911 544.545 553.036 544.474 553.172 544.431C553.308 544.387 553.452 544.371 553.594 544.385C553.741 544.387 553.885 544.42 554.018 544.479C554.151 544.539 554.27 544.625 554.367 544.732C554.465 544.839 554.539 544.964 554.584 545.101C554.63 545.237 554.647 545.381 554.633 545.523L547.611 659.934C547.604 660.074 547.57 660.211 547.509 660.338C547.448 660.465 547.363 660.579 547.257 660.674C547.152 660.768 547.028 660.841 546.893 660.889C546.759 660.937 546.616 660.958 546.473 660.951Z" fill="#231F20"/>
<path d="M680.27 674.42C681.135 676.842 709.101 756.055 677.031 784.349C642.834 814.484 469.87 798.617 469.87 798.617L450.978 741.521C448.876 721.245 447.813 706.953 488.266 703.247L544.891 691.886L546.473 659.885L680.27 674.42Z" fill="#231F20"/>
<path d="M564.474 803.85H560.543C513.562 803.656 470.117 799.708 469.696 799.683C469.481 799.664 469.277 799.582 469.11 799.448C468.942 799.314 468.82 799.135 468.757 798.932L449.89 741.86C448.753 731.226 447.714 721.391 453.747 714.196C459.237 707.632 470.166 703.828 488.093 702.084L543.778 690.917L545.311 659.716C545.32 659.571 545.359 659.429 545.427 659.3C545.496 659.17 545.591 659.056 545.707 658.965C545.815 658.868 545.945 658.795 546.086 658.754C546.228 658.712 546.377 658.701 546.522 658.723L680.319 673.257C680.527 673.28 680.724 673.36 680.886 673.489C681.048 673.618 681.169 673.79 681.234 673.984L680.196 674.323L681.284 674.154C684.201 682.608 708.879 757.533 677.698 785.028C663.678 797.552 625.549 803.85 564.474 803.85ZM470.685 797.6C482.826 798.666 643.946 812.135 676.314 783.55C705.986 757.388 682.94 685.66 679.454 675.389L547.512 661.145L546.003 692.007C545.986 692.245 545.89 692.471 545.729 692.651C545.569 692.83 545.352 692.953 545.113 693L488.489 704.361C471.056 705.96 460.597 709.545 455.503 715.626C450.038 722.118 451.028 731.541 452.066 741.497L470.685 797.6Z" fill="#231F20"/>
<path d="M498.577 747.02C498.577 747.02 489.602 704.652 456.962 714.245C424.323 723.838 496.945 881.391 496.945 891.735C496.945 902.079 469.202 933.304 469.202 933.304C477.126 932.888 485.024 932.08 492.866 930.881C501.446 929.283 525.01 895.708 525.925 892.123C526.84 888.538 509.606 777.421 498.577 747.02Z" fill="white"/>
<path d="M469.202 934.418C468.99 934.416 468.782 934.356 468.603 934.245C468.424 934.133 468.28 933.975 468.188 933.788C468.093 933.592 468.059 933.372 468.09 933.157C468.121 932.942 468.215 932.74 468.361 932.577C476.002 923.977 495.833 899.923 495.833 891.735C495.833 889.313 491.11 877.079 485.126 861.528C467.817 816.471 438.788 741.037 449.866 719.09C450.506 717.693 451.441 716.444 452.609 715.425C453.776 714.407 455.15 713.641 456.641 713.179C460.403 711.902 464.402 711.434 468.366 711.806C472.33 712.178 476.165 713.382 479.612 715.335C494.448 723.983 499.393 745.058 499.665 746.826C510.248 776.065 528.101 887.762 527.038 892.462C526.271 895.829 502.311 930.348 493.088 932.092C485.198 933.296 477.25 934.105 469.276 934.515L469.202 934.418ZM466.185 713.978C463.166 713.996 460.166 714.454 457.284 715.335C456.083 715.717 454.98 716.347 454.05 717.183C453.12 718.019 452.385 719.041 451.893 720.18C441.236 741.255 471.155 819.063 487.252 860.849C494.374 879.381 498.083 889.167 498.083 891.832C498.083 901.061 477.98 924.995 471.798 932.141C476.521 931.826 486.412 931.075 492.668 929.912C500.555 928.435 524.046 895.417 524.812 891.977C525.579 888.537 508.715 778.342 497.613 747.504C497.613 747.504 497.613 747.504 497.613 747.359C497.613 747.214 492.841 725.557 478.573 717.321C474.842 715.096 470.553 713.93 466.185 713.954V713.978Z" fill="#231F20"/>
<path d="M467.57 930.639C465.293 930.873 463.117 931.684 461.256 932.992C459.396 934.3 457.916 936.061 456.962 938.1C453.97 945.028 466.853 949.025 478.722 949.558C489.105 949.949 499.485 948.69 509.457 945.827C513.443 943.913 516.967 941.188 519.793 937.833C519.793 937.833 519.793 946.36 522.785 946.094C527.068 945.883 531.336 945.438 535.569 944.762C536.657 944.229 532.033 911.187 525.925 892.123C525.925 892.123 501.198 926.375 493.41 927.974C485.621 929.573 467.57 930.639 467.57 930.639Z" fill="#231F20"/>
<path d="M482.184 950.697C481.022 950.697 479.835 950.697 478.673 950.697C470.389 950.333 459.559 948.129 456.418 943.163C455.897 942.366 455.59 941.453 455.525 940.509C455.46 939.564 455.64 938.619 456.047 937.761C457.066 935.532 458.669 933.608 460.692 932.182C462.716 930.757 465.089 929.882 467.57 929.646C467.743 929.646 485.522 928.556 493.237 927.006C499.369 925.746 518.31 901.013 525.085 891.59C525.198 891.423 525.36 891.292 525.549 891.214C525.738 891.137 525.947 891.116 526.148 891.154C526.348 891.182 526.535 891.265 526.689 891.394C526.842 891.523 526.954 891.692 527.013 891.881C530.225 902.819 532.735 913.944 534.53 925.189C537.794 944.835 536.706 945.368 536.063 945.682C532.638 946.445 529.141 946.859 525.629 946.918L522.884 947.136C522.528 947.168 522.169 947.124 521.831 947.007C521.494 946.89 521.187 946.702 520.931 946.458C519.604 944.713 518.876 942.601 518.854 940.426C516.328 943.129 513.265 945.297 509.853 946.797C500.872 949.407 491.551 950.72 482.184 950.697ZM467.644 931.705C465.566 931.912 463.579 932.65 461.883 933.844C460.186 935.039 458.839 936.648 457.976 938.512C457.704 939.055 457.581 939.658 457.62 940.261C457.659 940.865 457.858 941.448 458.199 941.952C460.399 945.368 468.856 948.056 478.771 948.492C489.013 948.881 499.252 947.638 509.086 944.81C512.896 942.969 516.267 940.361 518.977 937.156C519.12 936.986 519.312 936.863 519.529 936.805C519.745 936.746 519.974 936.755 520.186 936.829C520.397 936.903 520.579 937.04 520.708 937.22C520.837 937.399 520.906 937.614 520.906 937.834C520.906 940.256 521.376 943.987 522.414 944.907C522.452 944.947 522.498 944.978 522.549 944.999C522.601 945.02 522.656 945.03 522.711 945.028L525.48 944.81C527.953 944.617 533.022 944.229 534.679 943.914C534.877 939.602 530.896 912.302 525.555 894.521C520.016 902.079 500.828 927.539 493.657 929.016C485.038 930.339 476.356 931.237 467.644 931.705Z" fill="#231F20"/>
<path d="M573.673 892.268C573.673 892.268 559.504 755.28 552.976 729.7C546.449 704.119 508.913 696.125 497.489 727.035C486.066 757.945 542.641 879.478 538.289 892.268C533.937 905.058 517.617 930.033 517.617 930.033C517.617 930.033 534.926 938.56 547.537 930.033C560.147 921.507 573.673 892.268 573.673 892.268Z" fill="white"/>
<path d="M534.184 935.024C528.281 934.889 522.47 933.552 517.123 931.099C516.981 931.026 516.856 930.927 516.754 930.806C516.652 930.686 516.576 930.547 516.529 930.397C516.455 930.091 516.509 929.768 516.677 929.501C516.826 929.258 532.972 904.429 537.225 891.905C538.783 887.326 530.846 864.604 522.389 840.574C507.553 798.424 489.255 746.1 496.401 726.72C501.347 713.082 512.251 705.306 525.282 705.984C532.005 706.4 538.418 708.902 543.592 713.126C548.767 717.351 552.434 723.079 554.064 729.482C560.543 754.845 574.612 890.839 574.761 892.195C574.808 892.387 574.808 892.586 574.761 892.777C574.192 893.988 560.889 922.451 548.254 931.051C544.102 933.781 539.182 935.17 534.184 935.024ZM519.348 929.622C523.354 931.269 536.953 936.017 546.968 929.186C558.466 921.361 571.175 895.03 572.585 892.074C571.843 884.807 558.243 754.602 551.963 729.966C550.448 724.027 547.045 718.713 542.244 714.794C537.443 710.874 531.494 708.553 525.258 708.165C513.339 707.535 503.325 714.778 498.627 727.544C491.753 746.124 510.743 800.362 524.615 839.968C535.247 870.273 541.157 887.69 539.451 892.728C535.495 904.017 522.488 924.607 519.274 929.622H519.348Z" fill="#231F20"/>
<path d="M517.617 930.033C512.656 932.299 508.144 935.407 504.289 939.214C499.814 944.422 495.734 946.821 501.817 950.818C507.899 954.815 546.325 952.005 551.592 950.406C556.859 948.807 565.884 936.429 565.884 936.429C565.884 936.429 565.463 950.406 567.095 950.818C570.717 950.672 574.318 950.202 577.852 949.413C579.078 930.312 577.706 911.136 573.772 892.389C573.772 892.389 560.543 921.7 543.877 927.611C527.211 933.522 517.617 930.033 517.617 930.033Z" fill="#231F20"/>
<path d="M519.274 953.991C510.99 953.991 503.77 953.41 501.248 951.787C500.365 951.353 499.589 950.736 498.974 949.979C498.359 949.222 497.92 948.343 497.687 947.402C497.415 945.174 499.171 943.26 501.421 940.862L503.473 938.609C507.41 934.658 512.053 931.448 517.172 929.137C517.441 929.03 517.743 929.03 518.013 929.137C518.013 929.137 527.434 932.48 543.506 926.715C559.578 920.949 572.535 892.147 572.659 891.856C572.755 891.651 572.914 891.481 573.113 891.368C573.312 891.255 573.543 891.206 573.772 891.226C574.003 891.251 574.22 891.347 574.393 891.499C574.566 891.651 574.686 891.852 574.736 892.074C578.662 910.928 580.034 930.207 578.816 949.413C578.804 949.64 578.714 949.856 578.562 950.027C578.409 950.198 578.203 950.315 577.975 950.358C574.348 951.298 570.623 951.835 566.873 951.956C566.131 951.763 564.647 951.399 564.746 939.844C561.73 943.672 555.993 950.333 551.938 951.569C541.14 953.284 530.212 954.095 519.274 953.991ZM517.691 931.245C513.011 933.412 508.759 936.373 505.13 939.99C504.413 940.813 503.696 941.588 503.053 942.291C501.174 944.302 499.69 945.876 499.863 947.136C499.863 947.984 500.803 948.928 502.336 949.994C507.825 953.579 545.237 951.254 551.171 949.461C555.251 948.25 562.447 939.239 564.895 935.872C565.03 935.683 565.223 935.542 565.447 935.47C565.67 935.399 565.911 935.4 566.134 935.473C566.356 935.547 566.549 935.689 566.682 935.879C566.815 936.069 566.882 936.295 566.873 936.526C566.586 940.985 566.81 945.462 567.541 949.873C570.59 949.61 573.615 949.124 576.591 948.42C577.614 930.767 576.443 913.059 573.104 895.684C569.271 903.435 558.07 923.711 544.124 928.701C529.189 934.103 519.842 931.899 517.691 931.245Z" fill="#231F20"/>
<path d="M687.589 732.703C689.296 735.126 694.735 787.523 694.735 787.523C694.735 787.523 755.366 792.9 756.231 788.734C757.096 784.567 725.322 773.981 725.322 773.981L715.432 732.437" fill="white"/>
<path d="M743.991 791.423C739.441 791.423 733.334 791.253 725.1 790.793C709.992 789.994 694.785 788.661 694.636 788.637C694.372 788.616 694.124 788.505 693.934 788.324C693.745 788.142 693.626 787.902 693.598 787.644C691.546 767.853 687.836 735.562 686.625 733.285C686.542 733.164 686.485 733.029 686.456 732.887C686.427 732.744 686.428 732.598 686.458 732.456C686.488 732.313 686.547 732.178 686.63 732.059C686.714 731.939 686.822 731.837 686.946 731.759C687.203 731.602 687.512 731.55 687.808 731.614C688.103 731.677 688.362 731.851 688.529 732.098C690.21 734.52 694.364 773.279 695.749 786.505C722.726 788.928 751.607 790.163 755.093 788.346C754.03 785.924 738.848 779.626 724.976 775.023C724.798 774.967 724.637 774.866 724.511 774.73C724.385 774.594 724.298 774.428 724.259 774.248L714.368 732.679C714.301 732.393 714.352 732.093 714.509 731.844C714.667 731.594 714.918 731.416 715.209 731.347C715.504 731.288 715.81 731.344 716.064 731.502C716.317 731.66 716.498 731.909 716.569 732.195L726.46 773.133C738.823 777.227 758.407 784.543 757.517 788.928C757.121 789.994 756.824 791.423 743.991 791.423Z" fill="#231F20"/>
<path d="M695.279 547.292L736.647 744.84L679.602 746.293C679.602 746.293 659.821 641.693 658.609 625.996C657.398 610.299 695.279 547.292 695.279 547.292Z" fill="#D1D1EC"/>
<path d="M568.826 449.063C575.941 449.063 581.709 443.412 581.709 436.442C581.709 429.472 575.941 423.821 568.826 423.821C561.711 423.821 555.944 429.472 555.944 436.442C555.944 443.412 561.711 449.063 568.826 449.063Z" fill="white"/>
<path d="M568.851 450.177H568.282C565.516 450.075 562.843 449.171 560.601 447.58C558.359 445.989 556.65 443.782 555.688 441.239C554.726 438.696 554.556 435.931 555.199 433.293C555.842 430.655 557.268 428.263 559.299 426.42C561.329 424.577 563.872 423.364 566.605 422.937C569.339 422.509 572.141 422.886 574.656 424.018C577.171 425.151 579.287 426.988 580.736 429.299C582.186 431.61 582.903 434.29 582.797 436.999H581.66H582.797C582.65 440.536 581.116 443.881 578.513 446.337C575.91 448.792 572.44 450.168 568.826 450.177H568.851ZM568.851 424.936C565.495 424.997 562.298 426.353 559.958 428.711C557.617 431.068 556.321 434.236 556.352 437.524C556.383 440.813 557.738 443.956 560.123 446.271C562.508 448.586 565.729 449.885 569.086 449.885C572.443 449.885 575.664 448.586 578.049 446.271C580.434 443.956 581.789 440.813 581.82 437.524C581.851 434.236 580.555 431.068 578.214 428.711C575.874 426.353 572.677 424.997 569.321 424.936H568.851Z" fill="#231F20"/>
<path d="M597.213 450.177C604.328 450.177 610.095 444.527 610.095 437.557C610.095 430.586 604.328 424.936 597.213 424.936C590.098 424.936 584.33 430.586 584.33 437.557C584.33 444.527 590.098 450.177 597.213 450.177Z" fill="white"/>
<path d="M597.213 451.267H596.644C593.884 451.138 591.224 450.214 588.998 448.611C586.771 447.008 585.077 444.797 584.126 442.255C583.176 439.713 583.012 436.953 583.656 434.321C584.299 431.688 585.72 429.3 587.742 427.455C589.78 425.614 592.328 424.406 595.066 423.983C597.804 423.561 600.608 423.942 603.124 425.08C605.641 426.218 607.756 428.062 609.204 430.377C610.652 432.692 611.366 435.376 611.258 438.089C611.117 441.633 609.581 444.985 606.971 447.442C604.361 449.899 600.882 451.27 597.262 451.267H597.213ZM597.213 426.026C595.67 425.997 594.137 426.266 592.701 426.818C591.265 427.37 589.954 428.194 588.842 429.242C586.598 431.359 585.304 434.262 585.245 437.314C585.186 440.366 586.367 443.316 588.528 445.514C590.689 447.713 593.653 448.981 596.768 449.039C598.311 449.114 599.853 448.882 601.302 448.357C602.751 447.833 604.077 447.026 605.2 445.986C606.335 444.964 607.252 443.731 607.897 442.359C608.542 440.987 608.903 439.502 608.958 437.992C609.051 434.955 607.912 432.005 605.789 429.789C603.666 427.573 600.733 426.272 597.633 426.171L597.213 426.026Z" fill="#231F20"/>
<path d="M506.391 645.278C506.236 645.28 506.083 645.248 505.942 645.185C505.801 645.122 505.676 645.03 505.575 644.915L450.533 582.756C450.437 582.649 450.363 582.524 450.317 582.388C450.271 582.253 450.254 582.11 450.265 581.967C450.277 581.825 450.317 581.686 450.385 581.56C450.452 581.433 450.544 581.321 450.657 581.23C450.756 581.129 450.875 581.048 451.007 580.993C451.138 580.938 451.28 580.91 451.423 580.91C451.566 580.91 451.708 580.938 451.84 580.993C451.972 581.048 452.091 581.129 452.19 581.23L507.232 643.389C507.327 643.494 507.4 643.617 507.446 643.751C507.492 643.884 507.509 644.025 507.498 644.166C507.486 644.306 507.446 644.443 507.379 644.567C507.312 644.692 507.22 644.802 507.108 644.891C507.023 645.001 506.915 645.092 506.791 645.159C506.668 645.226 506.531 645.266 506.391 645.278Z" fill="#231F20"/>
<path d="M404.442 461.926L456.641 442.304L461.339 465.753L408.745 482.298L404.442 461.926Z" fill="#E6E7E8"/>
<path d="M569.959 435.098C570.025 433.454 569.349 432.093 568.448 432.058C567.548 432.023 566.764 433.328 566.698 434.972C566.632 436.617 567.309 437.978 568.209 438.012C569.11 438.047 569.894 436.742 569.959 435.098Z" fill="#231F20"/>
<path d="M599.039 436.809C599.105 435.165 598.428 433.804 597.528 433.769C596.627 433.735 595.844 435.04 595.778 436.684C595.712 438.328 596.388 439.689 597.289 439.724C598.19 439.759 598.973 438.454 599.039 436.809Z" fill="#231F20"/>
<path d="M635.787 447.755C635.506 447.75 635.236 447.643 635.031 447.455C634.826 447.267 634.698 447.012 634.674 446.737C634.105 440.1 616.821 439.906 610.194 440.391C610.046 440.404 609.897 440.388 609.755 440.344C609.613 440.299 609.482 440.228 609.369 440.133C609.256 440.038 609.164 439.922 609.097 439.791C609.031 439.661 608.992 439.519 608.983 439.373C608.987 439.102 609.093 438.841 609.279 438.64C609.466 438.44 609.721 438.313 609.996 438.283C612.667 438.089 636.034 436.636 636.899 446.64C636.913 446.787 636.897 446.935 636.852 447.075C636.807 447.215 636.734 447.345 636.637 447.458C636.541 447.57 636.423 447.663 636.289 447.731C636.156 447.798 636.01 447.839 635.861 447.852L635.787 447.755Z" fill="#231F20"/>
<path d="M613.038 448.36C613.498 446.22 614.651 444.283 616.326 442.837C617.95 441.575 619.782 440.592 621.741 439.93C622.776 439.474 623.896 439.235 625.03 439.228C625.829 439.326 626.601 439.572 627.305 439.955C629.033 440.716 630.427 442.056 631.237 443.734C631.719 445.144 631.846 446.649 631.608 448.118C631.474 449.73 631.125 451.319 630.569 452.842C629.988 454.36 629.101 455.749 627.962 456.926C626.822 458.102 625.453 459.043 623.936 459.691C622.418 460.339 620.783 460.683 619.128 460.7C617.472 460.718 615.83 460.41 614.299 459.794" fill="white"/>
<path d="M618.923 461.635C617.228 461.629 615.55 461.309 613.977 460.69C613.849 460.648 613.732 460.581 613.631 460.493C613.531 460.404 613.45 460.297 613.393 460.176C613.337 460.056 613.306 459.926 613.303 459.794C613.3 459.662 613.325 459.53 613.375 459.408C613.426 459.285 613.502 459.174 613.598 459.081C613.694 458.988 613.809 458.916 613.935 458.868C614.061 458.82 614.195 458.798 614.33 458.803C614.465 458.809 614.597 458.841 614.719 458.898C616.135 459.464 617.651 459.748 619.18 459.732C620.709 459.717 622.22 459.402 623.623 458.806C625.026 458.21 626.293 457.345 627.35 456.263C628.407 455.181 629.232 453.902 629.778 452.503C630.306 451.059 630.631 449.551 630.742 448.021C630.969 446.701 630.868 445.346 630.445 444.073C629.717 442.625 628.491 441.476 626.984 440.827C626.397 440.498 625.75 440.284 625.08 440.197C624.096 440.202 623.126 440.417 622.236 440.827C620.381 441.458 618.643 442.382 617.093 443.564C615.58 444.87 614.539 446.621 614.126 448.554C614.066 448.801 613.913 449.016 613.697 449.156C613.481 449.295 613.218 449.349 612.964 449.305C612.708 449.252 612.485 449.103 612.341 448.89C612.198 448.677 612.146 448.417 612.197 448.166C612.699 445.818 613.966 443.692 615.807 442.11C617.51 440.775 619.433 439.734 621.494 439.034C622.671 438.503 623.958 438.246 625.253 438.283C626.174 438.38 627.066 438.661 627.874 439.107C629.813 439.96 631.368 441.475 632.25 443.37C632.802 444.925 632.947 446.591 632.671 448.215C632.543 449.919 632.176 451.598 631.583 453.205C630.255 456.453 627.681 459.062 624.412 460.472C622.686 461.233 620.815 461.629 618.923 461.635Z" fill="#231F20"/>
<path d="M678.787 742.635C678.52 742.634 678.263 742.541 678.06 742.372C677.857 742.204 677.72 741.972 677.674 741.715L644.095 540.872C644.07 540.731 644.074 540.586 644.107 540.446C644.139 540.306 644.2 540.173 644.285 540.056C644.37 539.939 644.478 539.84 644.602 539.764C644.727 539.687 644.865 539.636 645.01 539.613C645.156 539.585 645.307 539.586 645.453 539.616C645.598 539.647 645.736 539.705 645.859 539.789C645.981 539.873 646.085 539.979 646.164 540.103C646.243 540.227 646.297 540.365 646.32 540.509L679.899 741.351C679.924 741.495 679.919 741.642 679.885 741.783C679.851 741.924 679.788 742.058 679.7 742.175C679.613 742.293 679.502 742.392 679.375 742.466C679.248 742.541 679.107 742.591 678.96 742.611L678.787 742.635Z" fill="#231F20"/>
<path d="M577.382 694.454C577.219 694.486 577.051 694.486 576.887 694.454C563.955 688.785 545.385 693.121 545.188 693.146C545.032 693.185 544.869 693.194 544.71 693.172C544.55 693.149 544.397 693.096 544.259 693.015C544.121 692.934 544 692.826 543.905 692.699C543.81 692.572 543.742 692.427 543.704 692.274C543.663 692.118 543.655 691.955 543.679 691.796C543.704 691.637 543.76 691.484 543.845 691.347C543.93 691.209 544.043 691.09 544.175 690.995C544.308 690.9 544.459 690.833 544.619 690.796C545.41 690.602 564.203 686.218 577.901 692.249C578.199 692.381 578.432 692.624 578.547 692.924C578.663 693.223 578.653 693.556 578.519 693.848C578.403 694.04 578.236 694.198 578.036 694.305C577.836 694.411 577.61 694.463 577.382 694.454Z" fill="white"/>
<path d="M648.867 655.259C648.664 655.262 648.465 655.203 648.298 655.089L620.456 639.174C620.2 639.027 620.012 638.787 619.934 638.507C619.855 638.226 619.892 637.926 620.036 637.672C620.19 637.419 620.439 637.235 620.73 637.158C621.02 637.081 621.33 637.118 621.593 637.26L649.559 653.175C649.818 653.327 650.006 653.571 650.084 653.855C650.162 654.14 650.125 654.443 649.98 654.701C649.866 654.887 649.701 655.037 649.504 655.135C649.308 655.234 649.087 655.276 648.867 655.259Z" fill="#231F20"/>
<path d="M558.367 645.69C558.196 645.695 558.026 645.66 557.872 645.589C557.717 645.517 557.582 645.411 557.477 645.279C557.383 645.166 557.312 645.037 557.27 644.898C557.228 644.758 557.214 644.612 557.23 644.468C557.246 644.323 557.292 644.183 557.364 644.056C557.436 643.929 557.533 643.818 557.65 643.728L574.365 630.55C574.477 630.433 574.612 630.341 574.763 630.28C574.914 630.219 575.076 630.191 575.239 630.197C575.402 630.203 575.562 630.243 575.708 630.315C575.854 630.386 575.982 630.488 576.084 630.613C576.186 630.737 576.26 630.882 576.3 631.037C576.34 631.192 576.345 631.353 576.316 631.511C576.287 631.668 576.223 631.817 576.13 631.948C576.036 632.079 575.915 632.189 575.775 632.27L559.059 645.448C558.866 645.609 558.62 645.695 558.367 645.69Z" fill="#231F20"/>
<path d="M354.568 868.892C359.853 864.255 365.832 860.44 372.298 857.579C372.842 876.159 365.152 893.237 358.03 904.937H334.911" fill="white"/>
<path d="M358.03 906.197H334.911C334.742 906.197 334.575 906.164 334.419 906.101C334.263 906.038 334.121 905.945 334.001 905.828C333.882 905.711 333.787 905.572 333.723 905.419C333.658 905.266 333.625 905.103 333.625 904.937C333.625 904.772 333.658 904.608 333.723 904.455C333.787 904.302 333.882 904.164 334.001 904.047C334.121 903.93 334.263 903.837 334.419 903.773C334.575 903.71 334.742 903.678 334.911 903.678H357.313C363.717 892.995 371.036 877.031 371.061 859.517C365.403 862.266 360.14 865.736 355.409 869.836C355.173 870.067 354.853 870.197 354.519 870.197C354.185 870.197 353.865 870.067 353.629 869.836C353.392 869.601 353.259 869.283 353.259 868.952C353.259 868.621 353.392 868.304 353.629 868.068C359.01 863.315 365.117 859.416 371.729 856.513C371.919 856.44 372.125 856.412 372.328 856.432C372.532 856.452 372.727 856.519 372.899 856.628C373.071 856.737 373.213 856.885 373.315 857.058C373.417 857.232 373.475 857.427 373.484 857.627C374.028 876.789 365.918 894.327 359.019 905.664C358.908 905.822 358.761 905.952 358.589 906.045C358.417 906.137 358.226 906.189 358.03 906.197Z" fill="#231F20"/>
<path d="M321.435 873.906C327.122 844.837 350.34 826.572 350.34 826.572C354.674 840.25 356.113 854.65 354.569 868.892C353.364 881.173 350.683 893.272 346.582 904.937H321.682" fill="white"/>
<path d="M346.582 906.197H321.682C321.514 906.197 321.348 906.164 321.193 906.101C321.039 906.037 320.899 905.944 320.781 905.827C320.664 905.709 320.571 905.57 320.509 905.417C320.447 905.265 320.417 905.101 320.421 904.937C320.421 904.607 320.553 904.291 320.788 904.055C321.024 903.819 321.345 903.684 321.682 903.678H345.667C349.568 892.375 352.132 880.671 353.307 868.795C354.756 855.354 353.538 841.765 349.722 828.776C344.628 833.282 327.468 850.045 322.671 874.124C322.65 874.292 322.593 874.453 322.506 874.599C322.418 874.744 322.301 874.871 322.162 874.97C322.023 875.07 321.864 875.14 321.696 875.177C321.527 875.214 321.353 875.217 321.184 875.186C321.014 875.154 320.853 875.089 320.711 874.994C320.568 874.899 320.447 874.777 320.354 874.634C320.262 874.491 320.201 874.332 320.174 874.165C320.147 873.998 320.155 873.827 320.198 873.664C325.91 844.595 349.351 825.797 349.573 825.603C349.733 825.474 349.923 825.387 350.126 825.349C350.329 825.311 350.539 825.323 350.736 825.385C350.931 825.442 351.11 825.544 351.257 825.683C351.403 825.823 351.513 825.995 351.576 826.184C355.982 840.023 357.446 854.599 355.879 869.013C354.658 881.395 351.944 893.592 347.793 905.349C347.713 905.6 347.551 905.819 347.332 905.972C347.114 906.125 346.85 906.204 346.582 906.197Z" fill="#231F20"/>
<path d="M309.145 904.937H331.177C331.375 898.542 329.891 888.877 322.819 876.329C322.35 875.481 321.88 874.681 321.41 873.906C308.651 852.734 296.98 852.976 296.98 852.976C292.059 875.238 302.469 895.102 309.145 904.937Z" fill="white"/>
<path d="M331.177 906.197H309.145C308.935 906.198 308.727 906.148 308.541 906.051C308.355 905.953 308.198 905.812 308.082 905.64C301.307 895.635 290.773 875.456 295.719 852.71C295.77 852.432 295.92 852.18 296.141 851.999C296.363 851.817 296.642 851.718 296.93 851.717C297.499 851.717 309.491 851.717 322.498 873.276C322.968 874.076 323.437 874.875 323.907 875.699C331.325 888.828 332.611 898.857 332.413 904.961C332.407 905.283 332.276 905.59 332.046 905.82C331.816 906.05 331.505 906.184 331.177 906.197ZM309.838 903.774H329.916C329.916 897.888 328.358 888.78 321.706 877.128L320.322 874.705C310.208 857.942 300.961 855.011 298.068 854.502C293.815 875.311 303.384 894.012 309.838 903.702V903.774Z" fill="#231F20"/>
<path d="M313.151 939.166H356.349L363.322 904.962H306.203L313.151 939.166Z" fill="#231F20"/>
</svg>
