<svg width="171" height="169" viewBox="0 0 171 169" fill="none" xmlns="http://www.w3.org/2000/svg">
<g clip-path="url(#clip0)">
<path d="M85.7223 0.9729C54.1396 0.9729 28.4453 26.2255 28.4453 57.2652C28.4453 76.8779 38.9075 95.1151 55.876 105.316L57.7076 118.602C58.5747 124.89 63.8734 129.632 70.0338 129.632H101.411C107.571 129.632 112.87 124.89 113.737 118.602L115.568 105.316C132.537 95.1151 142.999 76.8775 142.999 57.2652C142.999 26.2255 117.305 0.9729 85.7223 0.9729ZM110.105 99.6924C109.057 100.275 108.347 101.306 108.185 102.478L106.103 117.586C105.757 120.094 103.696 122.06 101.411 122.06H70.0338C67.7488 122.06 65.6881 120.094 65.3422 117.585L63.2594 102.478C63.0976 101.306 62.3877 100.275 61.34 99.6921C45.8021 91.047 36.1495 74.7897 36.1495 57.2649C36.1491 30.4003 58.3875 8.54432 85.7223 8.54432C113.057 8.54432 135.296 30.4004 135.296 57.2652C135.296 74.79 125.643 91.0474 110.105 99.6924Z" fill="#8B8BAE"/>
<path d="M105.896 133.923H65.5482C63.4208 133.923 61.6963 135.618 61.6963 137.709C61.6963 139.8 63.4208 141.495 65.5482 141.495H105.896C108.023 141.495 109.748 139.8 109.748 137.709C109.748 135.618 108.023 133.923 105.896 133.923Z" fill="#8B8BAE"/>
<path d="M101.011 145.786H70.4329C68.3055 145.786 66.581 147.481 66.581 149.572C66.581 159.945 75.1677 168.384 85.722 168.384C96.2763 168.384 104.863 159.945 104.863 149.572C104.863 147.481 103.139 145.786 101.011 145.786ZM85.7224 160.812C80.7669 160.812 76.5371 157.699 74.9524 153.358H96.4924C94.9077 157.699 90.6779 160.812 85.7224 160.812Z" fill="#8B8BAE"/>
<path d="M110.135 59.4799C110.135 59.4095 110.135 59.3391 110.131 59.2691C110.127 59.2164 110.121 59.1638 110.116 59.1112C110.109 59.0434 110.102 58.9757 110.092 58.9087C110.083 58.8507 110.07 58.7936 110.058 58.736C110.046 58.6758 110.034 58.6153 110.018 58.5558C110.002 58.4926 109.982 58.4301 109.963 58.3677C109.946 58.3147 109.929 58.2617 109.911 58.2098C109.887 58.1458 109.86 58.0834 109.834 58.0201C109.812 57.9694 109.79 57.9187 109.766 57.8691C109.738 57.8108 109.707 57.7533 109.676 57.6961C109.646 57.6423 109.616 57.5886 109.584 57.5363C109.553 57.4867 109.521 57.4379 109.488 57.3895C109.448 57.3308 109.407 57.2732 109.364 57.2168C109.349 57.1971 109.336 57.1759 109.32 57.1563C109.302 57.1335 109.282 57.1142 109.264 57.0919C109.216 57.0351 109.168 56.9795 109.117 56.9253C109.08 56.886 109.043 56.8473 109.004 56.8099C108.954 56.7606 108.902 56.7129 108.849 56.6664C108.806 56.6285 108.763 56.5914 108.718 56.5558C108.667 56.515 108.614 56.4756 108.56 56.437C108.511 56.401 108.461 56.3658 108.409 56.3329C108.358 56.2992 108.305 56.2674 108.251 56.2363C108.195 56.2034 108.138 56.1716 108.08 56.1417C108.029 56.1152 107.976 56.0898 107.923 56.0656C107.859 56.0364 107.795 56.0088 107.731 55.9831C107.68 55.9626 107.628 55.9437 107.575 55.9251C107.506 55.9009 107.436 55.879 107.366 55.8589C107.337 55.8506 107.31 55.8396 107.281 55.832C107.255 55.8252 107.23 55.8222 107.205 55.8161C107.137 55.7998 107.069 55.7858 107.001 55.7733C106.94 55.762 106.88 55.7514 106.819 55.7427C106.76 55.7347 106.702 55.729 106.642 55.7234C106.573 55.7169 106.505 55.7112 106.436 55.7082C106.383 55.7063 106.331 55.7067 106.278 55.7067C106.205 55.7067 106.133 55.7071 106.061 55.7112C106.008 55.7143 105.956 55.72 105.904 55.7249C105.833 55.7317 105.763 55.7389 105.693 55.7495C105.636 55.7582 105.58 55.7699 105.523 55.7813C105.46 55.7938 105.396 55.8063 105.334 55.8218C105.272 55.8373 105.211 55.8562 105.149 55.8748C105.093 55.8918 105.037 55.9085 104.982 55.9282C104.919 55.9505 104.857 55.9759 104.795 56.0016C104.741 56.0239 104.688 56.0459 104.635 56.0701C104.577 56.097 104.52 56.1269 104.464 56.1572C104.407 56.1871 104.351 56.217 104.297 56.2496C104.247 56.2791 104.199 56.3101 104.15 56.3419C104.09 56.3813 104.031 56.4222 103.972 56.465C103.952 56.4797 103.931 56.4919 103.912 56.507L96.0028 62.5899L88.0936 56.507C86.6992 55.4345 84.7401 55.4345 83.3457 56.507L75.4385 62.5895L67.5305 56.507C67.5104 56.4915 67.4892 56.4794 67.4688 56.4642C67.4114 56.4218 67.3529 56.3817 67.2932 56.3427C67.2439 56.3101 67.1946 56.2783 67.1441 56.2484C67.0906 56.2166 67.0359 56.1875 66.9812 56.1583C66.923 56.1273 66.8648 56.097 66.8055 56.0694C66.7547 56.0455 66.7031 56.0243 66.6511 56.0031C66.5875 55.9766 66.5236 55.9505 66.4589 55.9274C66.4057 55.9085 66.3514 55.8926 66.2975 55.8759C66.2339 55.8566 66.1707 55.8369 66.1068 55.821C66.0459 55.8059 65.9847 55.7938 65.923 55.7817C65.8649 55.7699 65.8067 55.7578 65.7482 55.7491C65.68 55.7385 65.6107 55.7321 65.5417 55.7253C65.4882 55.72 65.435 55.7139 65.3815 55.7112C65.3102 55.7071 65.2389 55.7067 65.1669 55.7067C65.113 55.7067 65.0594 55.7063 65.0059 55.7082C64.9381 55.7109 64.8703 55.7165 64.8021 55.723C64.742 55.7283 64.6823 55.7343 64.623 55.7423C64.5625 55.7506 64.5025 55.7612 64.442 55.7726C64.3738 55.7851 64.3056 55.7991 64.2382 55.8154C64.2128 55.8214 64.1874 55.8248 64.1619 55.8313C64.1327 55.8388 64.1057 55.8498 64.0768 55.8581C64.0067 55.8782 63.9374 55.9002 63.8684 55.924C63.8157 55.9426 63.7633 55.9615 63.7117 55.9823C63.6473 56.0077 63.5838 56.0353 63.5206 56.0645C63.4674 56.0891 63.4147 56.1141 63.3631 56.1409C63.3053 56.1708 63.2483 56.2026 63.192 56.2356C63.1385 56.2666 63.0857 56.2984 63.0341 56.3321C62.9829 56.3654 62.9324 56.4006 62.8827 56.4366C62.8296 56.4748 62.7772 56.5138 62.7263 56.5547C62.6813 56.5907 62.6374 56.6285 62.5938 56.6668C62.5414 56.7129 62.4906 56.7595 62.4409 56.8083C62.402 56.8466 62.3639 56.886 62.3261 56.9261C62.2764 56.9795 62.2283 57.0336 62.1821 57.0896C62.1632 57.1123 62.1424 57.1324 62.1239 57.1555C62.1077 57.1756 62.095 57.1971 62.0792 57.2176C62.0372 57.2729 61.9972 57.3293 61.9583 57.3864C61.9244 57.436 61.8912 57.486 61.86 57.5367C61.8284 57.5878 61.7996 57.6404 61.7707 57.6931C61.7387 57.7514 61.7067 57.81 61.6782 57.8695C61.6547 57.9179 61.6339 57.9675 61.6124 58.0171C61.585 58.0811 61.5577 58.1447 61.5338 58.2094C61.5149 58.2605 61.4991 58.3128 61.4825 58.3647C61.4625 58.4279 61.4425 58.4911 61.4259 58.5554C61.4105 58.6141 61.3986 58.6739 61.3862 58.7334C61.3743 58.7913 61.3616 58.8492 61.3527 58.9075C61.3423 58.9742 61.3354 59.0415 61.3285 59.1089C61.3231 59.1619 61.3169 59.2145 61.3138 59.2675C61.3096 59.3372 61.3092 59.4076 61.3092 59.478C61.3092 59.531 61.3088 59.5837 61.3107 59.6363C61.3134 59.7029 61.3196 59.7699 61.3258 59.8369C61.3312 59.8956 61.3369 59.9539 61.3454 60.0126C61.3539 60.072 61.3647 60.1314 61.3762 60.1909C61.3889 60.2579 61.4032 60.3245 61.4198 60.3908C61.4259 60.4157 61.4294 60.4407 61.4359 60.4657L76.2609 114.959C76.7212 116.652 78.2781 117.768 79.9795 117.768C80.3085 117.768 80.644 117.726 80.9768 117.638C83.0318 117.098 84.2525 115.023 83.7032 113.003L71.8535 69.445L73.0653 70.3771C73.7625 70.9135 74.6007 71.1815 75.4392 71.1815C76.2778 71.1815 77.116 70.9135 77.8136 70.3771L85.7208 64.2946L93.63 70.3775C95.0244 71.4499 96.9831 71.4499 98.3779 70.3775L99.5909 69.4447L87.7408 113.003C87.1911 115.023 88.4118 117.098 90.4672 117.639C90.8004 117.726 91.1351 117.768 91.4644 117.768C93.1658 117.768 94.7228 116.652 95.1831 114.959L110.008 60.4661C110.015 60.4415 110.018 60.4165 110.024 60.3915C110.041 60.3245 110.055 60.2575 110.068 60.1901C110.08 60.1311 110.09 60.072 110.099 60.0129C110.107 59.9543 110.113 59.8956 110.119 59.8365C110.125 59.7695 110.131 59.7029 110.134 59.6363C110.136 59.5852 110.136 59.5325 110.135 59.4799Z" fill="#8B8BAE"/>
</g>
<defs>
<clipPath id="clip0">
<rect x="0.55275" y="0.9729" width="170.339" height="167.411" rx="25" fill="white"/>
</clipPath>
</defs>
</svg>
