<svg width="58" height="58" viewBox="0 0 58 58" fill="none" xmlns="http://www.w3.org/2000/svg">
<g clip-path="url(#clip0)">
<path d="M57.1431 57.3931V57.3908H57.1572V36.6383C57.1572 26.486 54.9716 18.6655 43.103 18.6655C37.3974 18.6655 33.5685 21.7966 32.0053 24.7649H31.8403V19.6133H20.587V57.3908H32.3047V38.6848C32.3047 33.7595 33.2384 28.997 39.3377 28.997C45.3475 28.997 45.4371 34.6177 45.4371 39.0007V57.3931H57.1431Z" fill="white"/>
<path d="M1.50604 19.6157H13.238V57.3931H1.50604V19.6157Z" fill="white"/>
<path d="M7.36736 0.80835C3.61627 0.80835 0.572479 3.85214 0.572479 7.60324C0.572479 11.3543 3.61627 14.4618 7.36736 14.4618C11.1185 14.4618 14.1623 11.3543 14.1623 7.60324C14.1599 3.85214 11.1161 0.80835 7.36736 0.80835V0.80835Z" fill="white"/>
</g>
<defs>
<clipPath id="clip0">
<rect width="56.5848" height="56.5848" fill="white" transform="translate(0.572479 0.80835)"/>
</clipPath>
</defs>
</svg>
