<svg width="634" height="693" viewBox="0 0 634 693" fill="none" xmlns="http://www.w3.org/2000/svg">
<path d="M586.322 636.126C658.2 598.856 635.404 456.816 604.727 423.751C453.8 316.928 581.618 101.757 435.394 24.436C289.171 -52.8848 130.33 64.6617 58.6889 217.735C-181.813 748.036 381.329 742.417 586.322 636.126Z" fill="#8B8BAE"/>
<path d="M536.438 469.907H101.168V562.955H536.438V469.907Z" fill="white"/>
<path d="M536.438 563.767H101.168C100.96 563.767 100.761 563.684 100.614 563.535C100.467 563.385 100.384 563.183 100.384 562.972V469.994C100.384 469.889 100.404 469.786 100.444 469.689C100.483 469.593 100.541 469.505 100.614 469.431C100.687 469.357 100.773 469.299 100.868 469.259C100.963 469.219 101.065 469.198 101.168 469.198H536.438C536.541 469.198 536.643 469.219 536.738 469.259C536.833 469.299 536.919 469.357 536.992 469.431C537.065 469.505 537.123 469.593 537.162 469.689C537.201 469.786 537.222 469.889 537.222 469.994V563.059C537.201 563.254 537.109 563.435 536.964 563.566C536.819 563.697 536.632 563.769 536.438 563.767ZM101.918 562.177H535.654V470.702H101.952L101.918 562.177Z" fill="#D1D3D4"/>
<path d="M536.353 469.907H101.254C97.527 469.907 94.5059 472.972 94.5059 476.753V478.067C94.5059 481.848 97.527 484.913 101.254 484.913H536.353C540.08 484.913 543.101 481.848 543.101 478.067V476.753C543.101 472.972 540.08 469.907 536.353 469.907Z" fill="white"/>
<path d="M536.353 485.709H101.253C99.256 485.709 97.3402 484.904 95.9278 483.471C94.5153 482.038 93.7218 480.094 93.7218 478.067V476.771C93.7218 474.742 94.5148 472.797 95.9267 471.361C97.3387 469.925 99.2544 469.116 101.253 469.112H536.353C538.352 469.116 540.268 469.925 541.68 471.361C543.091 472.797 543.884 474.742 543.884 476.771V478.067C543.884 479.071 543.69 480.065 543.311 480.992C542.933 481.919 542.378 482.761 541.678 483.471C540.979 484.18 540.149 484.743 539.235 485.127C538.321 485.511 537.342 485.709 536.353 485.709ZM101.253 470.702C99.6702 470.707 98.1532 471.348 97.0352 472.486C95.9173 473.623 95.2895 475.164 95.2895 476.771V478.067C95.2895 479.672 95.9178 481.211 97.0363 482.346C98.1548 483.481 99.6717 484.118 101.253 484.118H536.353C537.935 484.118 539.451 483.481 540.57 482.346C541.688 481.211 542.317 479.672 542.317 478.067V476.771C542.317 475.164 541.689 473.623 540.571 472.486C539.453 471.348 537.936 470.707 536.353 470.702H101.253Z" fill="#D1D3D4"/>
<path d="M267.836 445.979H131.533V469.094H267.836V445.979Z" fill="#231F20"/>
<path d="M267.837 469.855H131.517C131.318 469.855 131.127 469.775 130.986 469.632C130.846 469.49 130.767 469.296 130.767 469.094V445.979C130.767 445.778 130.846 445.584 130.986 445.442C131.127 445.299 131.318 445.219 131.517 445.219H267.837C268.035 445.219 268.226 445.299 268.367 445.442C268.507 445.584 268.586 445.778 268.586 445.979V469.094C268.586 469.296 268.507 469.49 268.367 469.632C268.226 469.775 268.035 469.855 267.837 469.855ZM132.283 468.265H267.087V446.74H132.283V468.265Z" fill="#231F20"/>
<path d="M267.819 445.979H193.542V469.094H267.819V445.979Z" fill="white"/>
<path d="M267.836 469.889H193.542C193.337 469.885 193.142 469.799 192.999 469.651C192.855 469.502 192.775 469.302 192.775 469.094V445.979C192.775 445.773 192.856 445.575 193 445.429C193.144 445.283 193.339 445.201 193.542 445.201H267.836C268.04 445.201 268.235 445.283 268.379 445.429C268.522 445.575 268.603 445.773 268.603 445.979V469.094C268.603 469.302 268.523 469.502 268.38 469.651C268.236 469.799 268.041 469.885 267.836 469.889ZM194.411 468.264H267.138V446.774H194.411V468.264Z" fill="#231F20"/>
<path d="M265.86 429.244H155.492V446.377H265.86V429.244Z" fill="#231F20"/>
<path d="M265.86 447.138H155.492C155.293 447.138 155.102 447.058 154.961 446.915C154.821 446.772 154.742 446.579 154.742 446.377V429.244C154.742 429.042 154.821 428.849 154.961 428.706C155.102 428.564 155.293 428.483 155.492 428.483H265.86C266.06 428.483 266.253 428.563 266.396 428.705C266.539 428.847 266.622 429.041 266.626 429.244V446.377C266.626 446.479 266.607 446.579 266.568 446.672C266.529 446.766 266.472 446.85 266.401 446.921C266.329 446.992 266.245 447.048 266.152 447.085C266.059 447.122 265.96 447.14 265.86 447.138ZM156.241 445.617H265.11V430.057H156.241V445.617Z" fill="#231F20"/>
<path d="M265.86 429.244H218.744V446.377H265.86V429.244Z" fill="white"/>
<path d="M265.86 447.172H218.744C218.536 447.172 218.337 447.089 218.19 446.939C218.043 446.79 217.961 446.588 217.961 446.377V429.244C217.965 429.034 218.049 428.835 218.195 428.687C218.341 428.538 218.538 428.453 218.744 428.449H265.86C266.068 428.449 266.267 428.533 266.414 428.682C266.561 428.831 266.644 429.033 266.644 429.244V446.377C266.646 446.482 266.627 446.587 266.589 446.684C266.55 446.782 266.493 446.87 266.419 446.945C266.346 447.019 266.259 447.078 266.163 447.117C266.066 447.156 265.963 447.175 265.86 447.172ZM219.528 445.599H265.093V430.039H219.528V445.599Z" fill="#231F20"/>
<path d="M250.285 412.595H139.917V429.728H250.285V412.595Z" fill="#231F20"/>
<path d="M250.302 430.489H139.883C139.684 430.489 139.494 430.408 139.353 430.266C139.212 430.123 139.133 429.93 139.133 429.728V412.595C139.133 412.393 139.212 412.199 139.353 412.057C139.494 411.914 139.684 411.834 139.883 411.834H250.302C250.501 411.834 250.692 411.914 250.833 412.057C250.973 412.199 251.052 412.393 251.052 412.595V429.728C251.052 429.93 250.973 430.123 250.833 430.266C250.692 430.408 250.501 430.489 250.302 430.489ZM140.667 428.967H249.553V413.407H140.667V428.967Z" fill="#231F20"/>
<path d="M250.285 412.595H203.17V429.728H250.285V412.595Z" fill="white"/>
<path d="M250.303 430.523H203.17C203.068 430.523 202.967 430.503 202.872 430.463C202.778 430.422 202.693 430.364 202.622 430.29C202.55 430.215 202.494 430.128 202.456 430.031C202.419 429.935 202.401 429.832 202.403 429.728V412.595C202.403 412.387 202.483 412.187 202.627 412.039C202.77 411.89 202.965 411.804 203.17 411.8H250.303C250.507 411.804 250.702 411.89 250.846 412.039C250.989 412.187 251.069 412.387 251.069 412.595V429.728C251.072 429.832 251.053 429.935 251.016 430.031C250.978 430.128 250.922 430.215 250.851 430.29C250.779 430.364 250.694 430.422 250.6 430.463C250.506 430.503 250.405 430.523 250.303 430.523ZM203.954 428.95H249.519V413.39H203.954V428.95Z" fill="#231F20"/>
<path d="M194.769 424.939C196.736 424.939 198.33 423.321 198.33 421.326C198.33 419.33 196.736 417.712 194.769 417.712C192.802 417.712 191.207 419.33 191.207 421.326C191.207 423.321 192.802 424.939 194.769 424.939Z" fill="white"/>
<path d="M194.769 425.734C193.91 425.734 193.069 425.476 192.355 424.991C191.64 424.507 191.083 423.818 190.755 423.013C190.426 422.207 190.34 421.321 190.507 420.466C190.675 419.61 191.089 418.825 191.696 418.208C192.304 417.592 193.078 417.172 193.921 417.002C194.764 416.832 195.638 416.919 196.432 417.253C197.226 417.586 197.904 418.151 198.382 418.876C198.859 419.601 199.114 420.454 199.114 421.326C199.114 422.495 198.656 423.616 197.841 424.443C197.027 425.27 195.921 425.734 194.769 425.734ZM194.769 418.508C194.22 418.508 193.683 418.673 193.226 418.982C192.769 419.292 192.413 419.732 192.203 420.247C191.993 420.762 191.938 421.329 192.045 421.875C192.152 422.422 192.417 422.924 192.805 423.318C193.193 423.712 193.688 423.981 194.227 424.09C194.766 424.198 195.324 424.142 195.832 423.929C196.339 423.716 196.773 423.355 197.078 422.891C197.384 422.428 197.546 421.883 197.546 421.326C197.542 420.58 197.248 419.865 196.728 419.338C196.208 418.81 195.504 418.512 194.769 418.508Z" fill="#231F20"/>
<path d="M166.261 444.268C166.055 444.263 165.858 444.178 165.712 444.03C165.566 443.882 165.482 443.682 165.477 443.472V431.958C165.477 431.854 165.497 431.75 165.537 431.654C165.576 431.557 165.634 431.47 165.707 431.396C165.78 431.322 165.866 431.263 165.961 431.223C166.056 431.183 166.158 431.163 166.261 431.163C166.365 431.16 166.468 431.179 166.564 431.219C166.66 431.258 166.747 431.316 166.82 431.39C166.894 431.465 166.951 431.553 166.99 431.651C167.029 431.749 167.047 431.853 167.045 431.958V443.559C167.024 443.754 166.932 443.935 166.787 444.066C166.642 444.197 166.455 444.269 166.261 444.268Z" fill="white"/>
<path d="M181.035 467.175C180.932 467.175 180.83 467.155 180.735 467.115C180.64 467.075 180.553 467.016 180.48 466.943C180.408 466.869 180.35 466.781 180.31 466.684C180.271 466.588 180.251 466.485 180.251 466.38V448.279C180.279 448.086 180.374 447.91 180.52 447.782C180.665 447.655 180.851 447.584 181.043 447.584C181.235 447.584 181.421 447.655 181.567 447.782C181.712 447.91 181.807 448.086 181.835 448.279V466.38C181.835 466.486 181.815 466.591 181.774 466.689C181.734 466.786 181.674 466.875 181.6 466.949C181.525 467.023 181.437 467.081 181.34 467.12C181.243 467.159 181.139 467.178 181.035 467.175Z" fill="white"/>
<path d="M201.841 210.386L207.788 205.718L232.853 216.316L283.786 198.854L288.387 205.995L235.103 236.993L201.841 210.386Z" fill="#E6E7E8"/>
<path d="M220.499 293.528L199.949 208.173L232.7 222.471L291.829 200.739L307.045 286.941L252.569 305.993L220.499 293.528Z" fill="white"/>
<path d="M252.569 306.788C252.478 306.805 252.386 306.805 252.296 306.788L220.227 294.323C220.11 294.275 220.006 294.2 219.923 294.104C219.84 294.008 219.781 293.894 219.75 293.77L199.182 208.364C199.149 208.223 199.156 208.075 199.201 207.938C199.246 207.8 199.328 207.678 199.438 207.586C199.548 207.486 199.684 207.422 199.829 207.4C199.974 207.379 200.123 207.401 200.256 207.465L232.632 221.624L291.539 199.996C291.641 199.949 291.751 199.925 291.863 199.925C291.975 199.925 292.085 199.949 292.187 199.996C292.286 200.054 292.371 200.134 292.436 200.229C292.501 200.325 292.544 200.434 292.561 200.549L307.812 286.733C307.846 286.918 307.814 287.109 307.72 287.271C307.626 287.433 307.477 287.556 307.301 287.615L252.773 306.633L252.569 306.788ZM221.164 292.957L252.586 305.18L306.176 286.439L291.232 201.828L232.956 223.232C232.774 223.301 232.574 223.301 232.393 223.232L201.074 209.574L221.164 292.957Z" fill="#231F20"/>
<path d="M247.815 302.293C247.635 302.289 247.461 302.224 247.322 302.108C247.183 301.992 247.086 301.832 247.048 301.653L231.899 222.609C231.88 222.508 231.88 222.404 231.9 222.303C231.92 222.202 231.96 222.106 232.017 222.021C232.074 221.936 232.148 221.863 232.233 221.807C232.318 221.75 232.413 221.712 232.513 221.693C232.612 221.673 232.715 221.673 232.815 221.694C232.914 221.714 233.009 221.755 233.093 221.813C233.177 221.871 233.249 221.945 233.304 222.031C233.36 222.117 233.398 222.214 233.416 222.315L248.547 301.342C248.567 301.443 248.567 301.547 248.547 301.648C248.526 301.749 248.487 301.845 248.43 301.93C248.373 302.016 248.299 302.089 248.214 302.145C248.129 302.201 248.034 302.24 247.934 302.258L247.815 302.293Z" fill="#231F20"/>
<path d="M269.575 321.31C269.575 321.31 263.577 311.732 264.463 309.208C265.153 306.709 265.62 304.151 265.86 301.567L259.453 303.123C259.453 303.123 252.841 286.353 252.177 280.526C251.512 274.7 239.175 280.077 238.732 284.555C238.289 289.032 238.068 300.668 241.595 307.376C245.122 314.084 255.04 330.18 255.04 330.18" fill="white"/>
<path d="M255.022 331.044C254.889 331.041 254.758 331.005 254.642 330.939C254.526 330.873 254.429 330.778 254.358 330.663C254.255 330.508 244.389 314.464 240.896 307.808C237.403 301.152 237.488 289.689 237.931 284.554C238.289 280.976 244.543 277.293 248.769 277.259C249.25 277.191 249.739 277.222 250.208 277.35C250.677 277.477 251.116 277.7 251.499 278.003C251.882 278.306 252.201 278.684 252.438 279.114C252.674 279.545 252.823 280.019 252.875 280.509C253.455 285.523 258.652 299.163 259.862 302.258L265.621 300.875C265.74 300.842 265.865 300.84 265.984 300.871C266.104 300.901 266.213 300.962 266.303 301.048C266.396 301.132 266.469 301.236 266.516 301.353C266.563 301.47 266.583 301.596 266.575 301.722C266.318 304.37 265.833 306.991 265.127 309.554C264.667 310.833 267.393 316.469 270.239 320.878C270.32 321.053 270.336 321.252 270.283 321.438C270.23 321.624 270.112 321.784 269.951 321.888C269.79 321.992 269.597 322.033 269.409 322.003C269.22 321.973 269.049 321.874 268.927 321.725C267.887 320.083 262.775 311.698 263.73 309.001C264.331 306.935 264.742 304.816 264.957 302.673L259.623 303.97C259.441 304.008 259.25 303.981 259.086 303.893C258.921 303.804 258.791 303.66 258.72 303.485C258.447 302.794 252.074 286.543 251.393 280.682C251.393 280.232 251.188 278.849 248.854 278.849C245.105 278.849 239.806 282.307 239.55 284.71C239.073 289.672 239.005 300.754 242.327 307.064C245.735 313.669 255.653 329.678 255.755 329.833C255.862 330.013 255.896 330.227 255.848 330.431C255.8 330.635 255.675 330.812 255.499 330.923C255.359 331.019 255.19 331.062 255.022 331.044Z" fill="#231F20"/>
<path d="M458.531 330.871C458.405 330.872 458.28 330.841 458.169 330.782C458.057 330.722 457.961 330.636 457.891 330.529C457.82 330.423 457.776 330.301 457.763 330.174C457.75 330.046 457.768 329.918 457.815 329.799C460.917 321.387 461.67 312.27 459.992 303.451C458.315 294.632 454.271 286.454 448.307 279.818C447.694 279.161 447.063 278.504 446.416 277.847C442.497 273.836 438.066 269.202 438.339 263.428C438.428 262.212 438.634 261.008 438.952 259.832C439.19 258.864 439.366 257.883 439.48 256.893C440.043 250.617 434.931 245.396 430.551 242.128C429.495 241.333 428.387 240.572 427.297 239.794C423.19 236.924 418.947 233.968 416.391 229.525C413.341 224.338 412.983 218.235 412.523 212.392C412.148 207.205 411.773 201.724 409.49 196.935C407.348 192.405 404.232 188.421 400.371 185.274C396.51 182.128 392.003 179.901 387.181 178.756C382.36 177.612 377.346 177.579 372.51 178.66C367.675 179.742 363.139 181.911 359.239 185.006C355.218 188.072 352.052 192.148 350.055 196.832C348.181 202.171 347.219 207.796 347.209 213.463C346.612 225.272 345.505 236.665 339.132 246.312C337.141 249.135 334.96 251.815 332.606 254.334C328.243 259.244 324.086 263.877 322.808 269.894C322.164 273.124 322.412 276.472 323.524 279.569C324.637 282.665 326.571 285.39 329.112 287.442C329.194 287.505 329.263 287.583 329.314 287.673C329.365 287.763 329.398 287.863 329.411 287.966C329.423 288.069 329.416 288.174 329.388 288.274C329.36 288.374 329.313 288.467 329.249 288.548C329.121 288.712 328.935 288.818 328.731 288.844C328.527 288.87 328.321 288.813 328.158 288.687C325.399 286.444 323.302 283.472 322.1 280.099C320.897 276.725 320.635 273.08 321.342 269.565C322.722 263.065 327.187 258.051 331.566 253.21C333.868 250.741 335.997 248.113 337.939 245.344C344.142 236.077 345.181 224.926 345.743 213.36C345.765 207.506 346.773 201.7 348.725 196.192C350.807 191.256 354.112 186.949 358.319 183.692C362.4 180.472 367.139 178.218 372.19 177.096C377.24 175.975 382.474 176.014 387.508 177.211C392.541 178.408 397.247 180.732 401.281 184.013C405.315 187.294 408.574 191.45 410.819 196.175C413.239 201.223 413.631 206.807 414.006 212.201C414.415 218.114 414.807 223.698 417.669 228.643C420.055 232.775 424.144 235.645 428.098 238.411C429.222 239.189 430.33 239.967 431.403 240.762C436.106 244.22 441.627 249.925 440.963 256.945C440.85 258.013 440.657 259.07 440.384 260.108C440.1 261.196 439.912 262.307 439.821 263.428C439.583 268.614 443.587 272.677 447.455 276.654C448.103 277.328 448.75 277.985 449.364 278.642C455.626 285.46 459.875 293.926 461.625 303.074C463.375 312.223 462.557 321.687 459.264 330.387C459.203 330.532 459.101 330.656 458.97 330.742C458.84 330.829 458.687 330.873 458.531 330.871Z" fill="#231F20"/>
<path d="M337.547 281.84L305.478 353.122L274.261 317.663L248.24 330.11C248.24 330.11 305.699 418.093 321.512 410.088C337.326 402.083 359.989 331.061 359.989 331.061L337.547 281.84Z" fill="#D1D1EC"/>
<path d="M378.92 262.027C378.92 262.027 344.159 265.9 335.979 282.964C327.8 300.028 329.658 379.158 329.658 379.158L457.918 393.11C457.918 393.11 454.663 328.053 448.614 299.181C442.565 270.309 424.076 251.274 378.92 262.027Z" fill="#D1D1EC"/>
<path d="M368.628 270.655L381.544 341.245L399.402 263.895L368.628 270.655Z" fill="#231F20"/>
<path d="M381.544 342.057C381.375 342.046 381.213 341.98 381.084 341.867C380.955 341.755 380.865 341.603 380.829 341.435L367.878 270.793C367.847 270.599 367.89 270.4 367.997 270.237C368.105 270.073 368.269 269.957 368.458 269.911L399.249 263.152C399.373 263.129 399.501 263.136 399.622 263.172C399.743 263.208 399.855 263.272 399.948 263.359C400.03 263.455 400.09 263.568 400.123 263.691C400.155 263.814 400.159 263.943 400.135 264.068L382.277 341.418C382.252 341.596 382.164 341.76 382.029 341.877C381.895 341.995 381.722 342.059 381.544 342.057ZM369.497 271.174L381.63 337.458L398.397 264.846L369.497 271.174Z" fill="#231F20"/>
<path d="M368.747 250.081L368.628 270.654C368.628 270.654 370.673 282.169 383.01 278.659C386.65 277.585 390.01 275.704 392.845 273.15C395.68 270.596 397.92 267.435 399.402 263.894L398.005 228.262C398.005 226.758 391.956 221.053 392.194 207.965C387.849 207.929 383.559 206.975 379.598 205.162C375.637 203.349 372.093 200.718 369.19 197.437C369.19 197.437 364.078 205.286 361.795 207.81C359.998 209.672 358.441 211.757 357.16 214.016C355.064 217.976 355.149 222.92 355.252 227.311C355.297 232.534 355.81 237.743 356.785 242.871C358.762 252.466 368.747 250.081 368.747 250.081Z" fill="white"/>
<path d="M378.631 280.112C376.624 280.155 374.647 279.608 372.939 278.538C370.311 276.726 368.478 273.949 367.827 270.793L367.93 251.015C365.243 251.425 362.498 250.901 360.142 249.528C359.038 248.777 358.099 247.803 357.383 246.666C356.668 245.53 356.192 244.256 355.985 242.924C354.999 237.796 354.48 232.588 354.434 227.364C354.349 223.128 354.229 217.872 356.428 213.671C357.747 211.318 359.356 209.146 361.216 207.205C363.397 204.802 368.492 197.039 368.543 196.97C368.609 196.865 368.699 196.778 368.806 196.718C368.913 196.657 369.034 196.625 369.156 196.624C369.278 196.61 369.401 196.629 369.512 196.681C369.624 196.733 369.719 196.815 369.787 196.918C372.63 200.101 376.088 202.657 379.945 204.426C383.803 206.196 387.978 207.142 392.212 207.205C392.314 207.204 392.416 207.226 392.51 207.267C392.603 207.309 392.688 207.37 392.757 207.447C392.83 207.518 392.888 207.604 392.926 207.7C392.964 207.795 392.982 207.897 392.978 208C392.716 214.343 394.382 220.613 397.75 225.963C398.255 226.645 398.609 227.429 398.789 228.263C398.789 228.263 398.789 229.058 400.186 263.895C400.202 263.992 400.202 264.091 400.186 264.189C398.678 267.858 396.373 271.134 393.443 273.774C390.513 276.414 387.035 278.35 383.266 279.437C381.759 279.88 380.199 280.107 378.631 280.112ZM369.395 270.655C370.023 273.305 371.579 275.634 373.774 277.207C375.144 277.97 376.658 278.426 378.216 278.546C379.774 278.665 381.339 278.444 382.805 277.899C386.296 276.854 389.519 275.049 392.25 272.609C394.982 270.169 397.155 267.154 398.619 263.774C398.516 261.146 397.238 228.574 397.221 228.297C397.004 227.761 396.73 227.251 396.403 226.776C393.029 221.393 391.293 215.122 391.411 208.744C383.023 208.463 375.075 204.871 369.259 198.734C367.125 202.046 364.821 205.243 362.357 208.312C360.616 210.129 359.099 212.155 357.842 214.345C355.831 218.183 355.933 222.99 356.036 227.243C356.079 232.401 356.58 237.545 357.535 242.612C357.7 243.729 358.087 244.8 358.673 245.76C359.259 246.72 360.031 247.549 360.943 248.197C363.261 249.469 365.949 249.861 368.526 249.303C368.638 249.275 368.756 249.275 368.868 249.302C368.981 249.329 369.085 249.383 369.173 249.459C369.267 249.533 369.343 249.627 369.396 249.735C369.449 249.842 369.478 249.961 369.48 250.081L369.344 270.655H369.395Z" fill="#231F20"/>
<path d="M368.866 260.178C368.866 260.178 377.097 260.558 382.396 254.991C383.911 253.574 385.104 251.839 385.893 249.908C386.681 247.976 387.046 245.894 386.963 243.805C386.963 243.805 378.068 249.874 368.815 250.081L368.866 260.178Z" fill="#231F20"/>
<path d="M369.225 260.955H368.833C368.641 260.951 368.459 260.87 368.326 260.732C368.192 260.593 368.117 260.406 368.117 260.212L367.998 250.098C367.998 249.899 368.074 249.708 368.211 249.566C368.348 249.424 368.535 249.342 368.73 249.337C377.642 249.13 386.401 243.252 386.486 243.2C386.595 243.136 386.718 243.103 386.844 243.103C386.97 243.103 387.093 243.136 387.202 243.2C387.319 243.251 387.421 243.333 387.499 243.435C387.576 243.538 387.626 243.66 387.645 243.788C387.645 244.03 388.412 249.839 382.925 255.596C379.205 259.099 374.3 261.018 369.225 260.955ZM369.497 250.807L369.599 259.451C374.152 259.379 378.516 257.599 381.851 254.455C384.328 252.005 385.857 248.736 386.162 245.24C381.091 248.344 375.394 250.247 369.497 250.807Z" fill="#231F20"/>
<path d="M371.031 219.86C371.031 219.86 364.505 229.68 366.055 231.409C367.606 233.138 371.951 231.997 371.951 231.997" fill="white"/>
<path d="M369.071 233.138C368.426 233.192 367.777 233.114 367.163 232.909C366.548 232.704 365.98 232.376 365.493 231.945C363.789 230.06 367.844 223.301 370.4 219.393C370.453 219.306 370.523 219.23 370.605 219.17C370.687 219.111 370.781 219.069 370.88 219.047C370.978 219.025 371.081 219.024 371.18 219.043C371.279 219.062 371.374 219.101 371.458 219.158C371.542 219.216 371.614 219.289 371.669 219.375C371.724 219.462 371.761 219.558 371.779 219.659C371.796 219.76 371.793 219.864 371.77 219.964C371.747 220.064 371.704 220.158 371.644 220.24C368.424 225.133 366.072 230.112 366.617 230.908C367.623 232.031 370.741 231.53 371.729 231.271C371.916 231.235 372.109 231.273 372.27 231.376C372.43 231.479 372.546 231.641 372.594 231.828C372.642 232.014 372.617 232.212 372.527 232.382C372.436 232.551 372.285 232.679 372.104 232.74C371.111 232.989 370.094 233.123 369.071 233.138Z" fill="#231F20"/>
<path d="M364.078 237.011C364.078 237.011 369.923 245.793 380.215 237.339L364.078 237.011Z" fill="white"/>
<path d="M371.627 241.782C371.142 241.783 370.658 241.748 370.179 241.679C367.445 241.221 364.998 239.694 363.363 237.426C363.252 237.258 363.211 237.053 363.25 236.855C363.288 236.658 363.402 236.483 363.567 236.371C363.648 236.313 363.74 236.273 363.836 236.252C363.933 236.231 364.033 236.23 364.13 236.249C364.228 236.269 364.32 236.308 364.402 236.364C364.483 236.421 364.553 236.494 364.606 236.578C366.019 238.467 368.082 239.746 370.383 240.157C373.246 240.589 376.381 239.431 379.653 236.7C379.73 236.637 379.818 236.59 379.913 236.562C380.008 236.534 380.108 236.526 380.206 236.537C380.304 236.548 380.399 236.579 380.485 236.628C380.572 236.676 380.648 236.742 380.709 236.821C380.774 236.897 380.823 236.985 380.853 237.081C380.884 237.177 380.894 237.278 380.885 237.379C380.875 237.479 380.846 237.576 380.798 237.664C380.75 237.753 380.685 237.83 380.607 237.892C378.141 240.194 374.971 241.567 371.627 241.782Z" fill="#231F20"/>
<path d="M344.892 378.225C344.691 378.212 344.504 378.119 344.37 377.967C344.236 377.815 344.166 377.616 344.176 377.412L349.015 295.74C349.017 295.64 349.039 295.542 349.081 295.451C349.122 295.36 349.181 295.279 349.255 295.212C349.328 295.146 349.415 295.095 349.508 295.064C349.602 295.033 349.701 295.022 349.799 295.032C349.9 295.034 349.999 295.057 350.091 295.099C350.182 295.142 350.264 295.203 350.332 295.28C350.399 295.356 350.45 295.445 350.481 295.542C350.513 295.64 350.524 295.742 350.515 295.844L345.675 377.499C345.671 377.599 345.647 377.697 345.605 377.787C345.564 377.878 345.505 377.959 345.432 378.027C345.359 378.094 345.274 378.146 345.181 378.18C345.088 378.214 344.99 378.23 344.892 378.225Z" fill="#231F20"/>
<path d="M437.095 387.838C437.691 389.566 456.963 446.101 434.862 466.294C411.296 487.801 292.101 476.477 292.101 476.477L279.083 435.727C277.634 421.257 276.902 411.056 304.779 408.411L343.801 400.303L344.891 377.464L437.095 387.838Z" fill="#231F20"/>
<path d="M357.296 480.211H354.587C322.211 480.073 292.272 477.255 291.982 477.237C291.834 477.223 291.693 477.165 291.578 477.069C291.463 476.974 291.378 476.846 291.335 476.701L278.333 435.969C277.549 428.38 276.834 421.36 280.991 416.226C284.774 411.54 292.306 408.826 304.66 407.581L343.034 399.611L344.09 377.343C344.096 377.24 344.124 377.138 344.171 377.046C344.218 376.954 344.283 376.872 344.363 376.807C344.438 376.738 344.528 376.686 344.625 376.656C344.722 376.626 344.825 376.619 344.925 376.634L437.129 387.008C437.272 387.024 437.407 387.081 437.519 387.173C437.631 387.265 437.714 387.388 437.759 387.526L437.044 387.768L437.793 387.647C439.804 393.681 456.81 447.155 435.323 466.778C425.661 475.716 399.385 480.211 357.296 480.211ZM292.664 475.751C301.03 476.511 412.063 486.124 434.368 465.723C454.816 447.051 438.935 395.859 436.532 388.529L345.607 378.363L344.568 400.389C344.556 400.559 344.49 400.721 344.379 400.849C344.268 400.977 344.119 401.064 343.954 401.098L304.933 409.206C292.919 410.347 285.711 412.906 282.201 417.246C278.435 421.879 279.117 428.604 279.833 435.71L292.664 475.751Z" fill="#231F20"/>
<path d="M311.885 439.652C311.885 439.652 305.699 409.414 283.207 416.26C260.714 423.106 310.76 535.552 310.76 542.934C310.76 550.317 291.641 572.602 291.641 572.602C297.102 572.305 302.545 571.728 307.949 570.873C313.862 569.732 330.101 545.77 330.731 543.211C331.362 540.652 319.485 461.349 311.885 439.652Z" fill="white"/>
<path d="M291.642 573.397C291.495 573.396 291.353 573.353 291.229 573.273C291.106 573.194 291.006 573.081 290.943 572.948C290.878 572.807 290.854 572.651 290.875 572.497C290.896 572.344 290.961 572.2 291.062 572.083C296.328 565.946 309.994 548.778 309.994 542.934C309.994 541.206 306.739 532.475 302.615 521.375C290.687 489.218 270.682 435.381 278.316 419.718C278.758 418.721 279.402 417.83 280.207 417.103C281.011 416.376 281.958 415.829 282.985 415.499C285.578 414.588 288.334 414.254 291.066 414.52C293.797 414.785 296.44 415.644 298.815 417.038C309.039 423.21 312.447 438.251 312.635 439.513C319.928 460.381 332.231 540.099 331.498 543.453C330.97 545.856 314.458 570.493 308.102 571.737C302.665 572.597 297.188 573.174 291.693 573.466L291.642 573.397ZM289.563 416.07C287.482 416.083 285.415 416.409 283.428 417.038C282.601 417.311 281.841 417.76 281.2 418.357C280.559 418.953 280.052 419.683 279.714 420.496C272.369 435.537 292.988 491.068 304.081 520.891C308.988 534.117 311.544 541.102 311.544 543.004C311.544 549.591 297.691 566.672 293.431 571.772C296.685 571.547 303.501 571.011 307.813 570.181C313.248 569.127 329.436 545.562 329.965 543.107C330.493 540.652 318.872 462.006 311.221 439.997C311.221 439.997 311.221 439.997 311.221 439.894C311.221 439.79 307.932 424.334 298.1 418.456C295.529 416.867 292.573 416.035 289.563 416.053V416.07Z" fill="#231F20"/>
<path d="M290.517 570.7C288.947 570.867 287.448 571.445 286.166 572.379C284.884 573.313 283.864 574.569 283.207 576.025C281.145 580.969 290.023 583.822 298.202 584.202C305.358 584.482 312.511 583.583 319.383 581.54C322.13 580.173 324.558 578.228 326.505 575.835C326.505 575.835 326.505 581.92 328.567 581.73C331.519 581.579 334.46 581.262 337.377 580.779C338.127 580.399 334.94 556.817 330.731 543.211C330.731 543.211 313.691 567.657 308.324 568.798C302.956 569.939 290.517 570.7 290.517 570.7Z" fill="#231F20"/>
<path d="M300.588 585.015C299.787 585.015 298.969 585.015 298.168 585.015C292.459 584.756 284.996 583.183 282.832 579.639C282.473 579.07 282.261 578.418 282.216 577.744C282.172 577.07 282.295 576.396 282.576 575.783C283.278 574.193 284.383 572.819 285.777 571.802C287.172 570.784 288.807 570.16 290.517 569.991C290.636 569.991 302.888 569.213 308.204 568.107C312.43 567.208 325.483 549.556 330.152 542.831C330.23 542.711 330.341 542.618 330.472 542.563C330.602 542.507 330.746 542.492 330.885 542.52C331.022 542.54 331.152 542.599 331.257 542.691C331.363 542.783 331.44 542.903 331.481 543.038C333.694 550.845 335.424 558.785 336.661 566.81C338.911 580.831 338.161 581.212 337.718 581.437C335.357 581.98 332.947 582.276 330.527 582.318L328.635 582.474C328.39 582.497 328.142 582.465 327.91 582.382C327.678 582.298 327.466 582.164 327.289 581.99C326.375 580.745 325.874 579.237 325.858 577.685C324.118 579.614 322.007 581.161 319.655 582.232C313.466 584.094 307.043 585.032 300.588 585.015ZM290.568 571.461C289.136 571.609 287.767 572.135 286.598 572.988C285.428 573.84 284.5 574.989 283.905 576.319C283.718 576.706 283.633 577.137 283.66 577.567C283.687 577.998 283.824 578.414 284.059 578.774C285.575 581.212 291.403 583.131 298.236 583.442C305.294 583.719 312.35 582.832 319.127 580.814C321.753 579.5 324.075 577.638 325.943 575.351C326.041 575.23 326.174 575.142 326.323 575.1C326.472 575.059 326.63 575.065 326.776 575.118C326.921 575.171 327.047 575.268 327.136 575.397C327.225 575.525 327.272 575.678 327.272 575.835C327.272 577.564 327.596 580.226 328.312 580.883C328.338 580.911 328.37 580.934 328.405 580.949C328.44 580.963 328.478 580.971 328.516 580.97L330.425 580.814C332.129 580.676 335.622 580.399 336.763 580.174C336.9 577.097 334.156 557.613 330.476 544.923C326.659 550.317 313.436 568.487 308.494 569.542C302.554 570.486 296.571 571.127 290.568 571.461Z" fill="#231F20"/>
<path d="M363.635 543.315C363.635 543.315 353.871 445.547 349.373 427.29C344.874 409.033 319.007 403.328 311.135 425.388C303.262 447.449 342.25 534.186 339.251 543.315C336.252 552.443 325.005 570.268 325.005 570.268C325.005 570.268 336.933 576.353 345.624 570.268C354.314 564.182 363.635 543.315 363.635 543.315Z" fill="white"/>
<path d="M336.423 573.829C332.354 573.733 328.35 572.779 324.665 571.029C324.568 570.977 324.481 570.906 324.411 570.819C324.341 570.733 324.288 570.634 324.256 570.527C324.205 570.309 324.242 570.079 324.358 569.888C324.46 569.715 335.588 551.994 338.518 543.056C339.592 539.788 334.122 523.571 328.294 506.421C318.07 476.338 305.461 438.995 310.385 425.164C313.793 415.43 321.308 409.881 330.288 410.365C334.921 410.662 339.34 412.447 342.906 415.462C346.472 418.477 348.999 422.565 350.123 427.135C354.587 445.236 364.283 542.295 364.385 543.263C364.418 543.399 364.418 543.542 364.385 543.678C363.993 544.542 354.826 564.857 346.118 570.994C343.257 572.943 339.867 573.934 336.423 573.829ZM326.199 569.974C328.959 571.15 338.331 574.538 345.232 569.663C353.156 564.079 361.914 545.286 362.886 543.177C362.374 537.99 353.002 445.063 348.674 427.481C347.631 423.241 345.285 419.449 341.977 416.652C338.668 413.855 334.569 412.198 330.271 411.921C322.058 411.471 315.157 416.641 311.919 425.752C307.182 439.012 320.269 477.722 329.828 505.989C337.155 527.617 341.228 540.047 340.052 543.643C337.326 551.7 328.363 566.395 326.147 569.974H326.199Z" fill="#231F20"/>
<path d="M325.006 570.268C321.587 571.885 318.477 574.103 315.821 576.82C312.737 580.537 309.925 582.249 314.117 585.102C318.309 587.954 344.789 585.949 348.419 584.808C352.048 583.667 358.268 574.832 358.268 574.832C358.268 574.832 357.978 584.808 359.103 585.102C361.599 584.998 364.08 584.662 366.515 584.099C367.361 570.467 366.415 556.781 363.704 543.401C363.704 543.401 354.587 564.321 343.102 568.539C331.617 572.758 325.006 570.268 325.006 570.268Z" fill="#231F20"/>
<path d="M326.147 587.366C320.439 587.366 315.463 586.951 313.725 585.793C313.117 585.483 312.582 585.043 312.158 584.503C311.734 583.962 311.432 583.335 311.271 582.664C311.084 581.073 312.294 579.707 313.844 577.996L315.259 576.388C317.972 573.568 321.171 571.277 324.699 569.628C324.884 569.551 325.092 569.551 325.278 569.628C325.278 569.628 331.77 572.014 342.846 567.899C353.922 563.784 362.851 543.228 362.937 543.021C363.003 542.874 363.112 542.753 363.25 542.672C363.387 542.592 363.545 542.556 363.703 542.571C363.863 542.589 364.012 542.657 364.131 542.765C364.251 542.874 364.333 543.018 364.368 543.176C367.074 556.632 368.019 570.392 367.18 584.099C367.171 584.261 367.109 584.415 367.004 584.537C366.899 584.659 366.757 584.742 366.6 584.773C364.1 585.444 361.534 585.827 358.949 585.914C358.438 585.776 357.416 585.516 357.484 577.27C355.405 580.001 351.452 584.756 348.657 585.637C341.216 586.862 333.685 587.44 326.147 587.366ZM325.057 571.132C321.832 572.679 318.901 574.792 316.4 577.373C315.906 577.961 315.412 578.514 314.969 579.016C313.674 580.451 312.652 581.574 312.771 582.473C312.771 583.079 313.418 583.753 314.475 584.514C318.258 587.072 344.039 585.413 348.129 584.133C350.94 583.269 355.899 576.837 357.586 574.434C357.679 574.3 357.812 574.199 357.966 574.148C358.12 574.097 358.286 574.097 358.44 574.15C358.593 574.203 358.726 574.304 358.818 574.44C358.91 574.575 358.956 574.737 358.949 574.901C358.751 578.084 358.906 581.279 359.409 584.427C361.511 584.24 363.595 583.893 365.646 583.39C366.351 570.792 365.544 558.153 363.243 545.752C360.602 551.285 352.883 565.755 343.272 569.317C332.98 573.172 326.539 571.599 325.057 571.132Z" fill="#231F20"/>
<path d="M442.139 429.434C443.315 431.163 447.063 468.559 447.063 468.559C447.063 468.559 488.845 472.397 489.442 469.423C490.038 466.449 468.142 458.894 468.142 458.894L461.326 429.244" fill="white"/>
<path d="M481.007 471.342C477.872 471.342 473.663 471.221 467.988 470.892C457.577 470.322 447.097 469.371 446.995 469.354C446.813 469.339 446.642 469.259 446.511 469.13C446.381 469.001 446.299 468.829 446.279 468.645C444.865 454.52 442.309 431.474 441.474 429.849C441.417 429.763 441.378 429.666 441.358 429.565C441.338 429.463 441.339 429.359 441.359 429.257C441.38 429.156 441.42 429.059 441.478 428.974C441.536 428.889 441.61 428.816 441.696 428.76C441.873 428.648 442.086 428.611 442.289 428.656C442.493 428.701 442.671 428.825 442.786 429.002C443.945 430.731 446.808 458.393 447.762 467.832C466.353 469.561 486.255 470.443 488.658 469.146C487.925 467.417 477.463 462.922 467.903 459.637C467.78 459.598 467.67 459.525 467.583 459.428C467.496 459.331 467.436 459.212 467.409 459.084L460.593 429.417C460.547 429.213 460.582 428.999 460.69 428.821C460.799 428.643 460.972 428.515 461.172 428.466C461.375 428.424 461.586 428.464 461.761 428.577C461.936 428.69 462.061 428.867 462.11 429.071L468.926 458.289C477.446 461.211 490.941 466.432 490.328 469.561C490.055 470.322 489.851 471.342 481.007 471.342Z" fill="#231F20"/>
<path d="M447.438 297.106L475.946 438.096L436.634 439.133C436.634 439.133 423.002 364.481 422.168 353.277C421.333 342.074 447.438 297.106 447.438 297.106Z" fill="#D1D1EC"/>
<path d="M360.295 227.001C365.199 227.001 369.173 222.968 369.173 217.993C369.173 213.019 365.199 208.986 360.295 208.986C355.392 208.986 351.418 213.019 351.418 217.993C351.418 222.968 355.392 227.001 360.295 227.001Z" fill="white"/>
<path d="M360.313 227.796H359.921C358.014 227.723 356.172 227.078 354.627 225.942C353.083 224.807 351.904 223.232 351.242 221.417C350.579 219.602 350.462 217.629 350.904 215.746C351.347 213.863 352.331 212.156 353.73 210.841C355.129 209.525 356.881 208.66 358.765 208.355C360.649 208.05 362.58 208.318 364.313 209.126C366.046 209.935 367.505 211.246 368.503 212.895C369.502 214.545 369.996 216.457 369.923 218.391H369.139H369.923C369.822 220.916 368.765 223.303 366.971 225.055C365.177 226.807 362.786 227.789 360.296 227.796H360.313ZM360.313 209.781C358 209.825 355.797 210.793 354.184 212.475C352.571 214.158 351.678 216.419 351.699 218.766C351.721 221.113 352.655 223.356 354.298 225.008C355.941 226.66 358.161 227.587 360.475 227.587C362.788 227.587 365.008 226.66 366.651 225.008C368.295 223.356 369.228 221.113 369.25 218.766C369.271 216.419 368.378 214.158 366.765 212.475C365.152 210.793 362.949 209.825 360.636 209.781H360.313Z" fill="#231F20"/>
<path d="M379.858 227.796C384.761 227.796 388.735 223.763 388.735 218.789C388.735 213.814 384.761 209.781 379.858 209.781C374.954 209.781 370.98 213.814 370.98 218.789C370.98 223.763 374.954 227.796 379.858 227.796Z" fill="white"/>
<path d="M379.857 228.574H379.465C377.563 228.482 375.73 227.822 374.196 226.678C372.662 225.534 371.494 223.956 370.839 222.142C370.184 220.328 370.071 218.358 370.515 216.479C370.958 214.6 371.938 212.896 373.331 211.579C374.735 210.265 376.491 209.403 378.378 209.101C380.265 208.8 382.197 209.072 383.931 209.884C385.665 210.697 387.123 212.012 388.121 213.665C389.118 215.317 389.611 217.233 389.536 219.169C389.439 221.698 388.38 224.09 386.582 225.844C384.784 227.597 382.386 228.576 379.891 228.574H379.857ZM379.857 210.559C378.794 210.539 377.738 210.731 376.748 211.125C375.758 211.519 374.855 212.106 374.089 212.854C372.542 214.365 371.651 216.438 371.61 218.616C371.569 220.794 372.383 222.899 373.872 224.468C375.361 226.037 377.404 226.942 379.551 226.983C380.614 227.037 381.677 226.871 382.675 226.497C383.674 226.123 384.588 225.547 385.361 224.805C386.144 224.075 386.776 223.195 387.22 222.216C387.665 221.237 387.913 220.177 387.951 219.1C388.016 216.932 387.23 214.827 385.767 213.245C384.305 211.664 382.283 210.735 380.147 210.663L379.857 210.559Z" fill="#231F20"/>
<path d="M317.27 367.039C317.163 367.04 317.057 367.017 316.96 366.973C316.863 366.928 316.777 366.862 316.707 366.78L278.776 322.417C278.71 322.341 278.659 322.251 278.627 322.155C278.596 322.058 278.584 321.956 278.591 321.854C278.599 321.753 278.627 321.654 278.674 321.563C278.72 321.473 278.784 321.393 278.861 321.328C278.93 321.256 279.012 321.198 279.103 321.159C279.193 321.12 279.291 321.1 279.39 321.1C279.488 321.1 279.586 321.12 279.677 321.159C279.767 321.198 279.849 321.256 279.918 321.328L317.849 365.691C317.915 365.766 317.965 365.854 317.997 365.949C318.028 366.044 318.04 366.145 318.032 366.245C318.024 366.345 317.996 366.443 317.95 366.532C317.904 366.621 317.841 366.699 317.764 366.763C317.705 366.841 317.63 366.906 317.545 366.954C317.46 367.001 317.366 367.03 317.27 367.039Z" fill="#231F20"/>
<path d="M247.014 236.181L282.985 222.177L286.223 238.912L249.979 250.72L247.014 236.181Z" fill="#E6E7E8"/>
<path d="M361.076 217.034C361.122 215.861 360.656 214.889 360.035 214.864C359.414 214.84 358.874 215.771 358.829 216.944C358.783 218.118 359.25 219.089 359.87 219.114C360.491 219.139 361.031 218.208 361.076 217.034Z" fill="#231F20"/>
<path d="M381.116 218.255C381.162 217.082 380.695 216.11 380.075 216.086C379.454 216.061 378.914 216.992 378.869 218.166C378.823 219.339 379.289 220.311 379.91 220.335C380.531 220.36 381.071 219.429 381.116 218.255Z" fill="#231F20"/>
<path d="M406.44 226.067C406.246 226.063 406.061 225.987 405.919 225.853C405.777 225.719 405.69 225.537 405.673 225.341C405.281 220.604 393.37 220.465 388.803 220.811C388.701 220.821 388.598 220.809 388.501 220.777C388.403 220.746 388.313 220.695 388.235 220.627C388.157 220.559 388.093 220.476 388.047 220.383C388.002 220.29 387.975 220.189 387.968 220.085C387.971 219.891 388.044 219.705 388.173 219.562C388.301 219.419 388.477 219.328 388.667 219.307C390.507 219.169 406.61 218.131 407.207 225.272C407.216 225.376 407.205 225.481 407.174 225.582C407.143 225.682 407.093 225.775 407.026 225.855C406.96 225.935 406.878 226.002 406.786 226.05C406.694 226.098 406.594 226.127 406.491 226.136L406.44 226.067Z" fill="#231F20"/>
<path d="M390.763 226.499C391.08 224.972 391.875 223.589 393.029 222.557C394.149 221.657 395.41 220.955 396.761 220.483C397.474 220.157 398.246 219.986 399.027 219.981C399.578 220.051 400.11 220.227 400.595 220.5C401.786 221.043 402.746 222 403.304 223.197C403.637 224.204 403.725 225.278 403.56 226.326C403.468 227.477 403.227 228.611 402.844 229.698C402.444 230.782 401.833 231.773 401.048 232.612C400.262 233.452 399.319 234.123 398.273 234.586C397.227 235.049 396.101 235.294 394.96 235.306C393.819 235.319 392.687 235.099 391.632 234.66" fill="white"/>
<path d="M394.818 235.973C393.651 235.969 392.494 235.741 391.41 235.299C391.322 235.269 391.241 235.221 391.172 235.158C391.103 235.095 391.047 235.018 391.008 234.932C390.969 234.847 390.948 234.754 390.946 234.659C390.944 234.565 390.961 234.471 390.996 234.384C391.031 234.296 391.083 234.217 391.149 234.151C391.215 234.085 391.294 234.033 391.381 233.999C391.468 233.965 391.561 233.949 391.654 233.953C391.747 233.956 391.838 233.979 391.922 234.02C392.897 234.424 393.942 234.627 394.996 234.616C396.05 234.604 397.091 234.379 398.057 233.954C399.024 233.529 399.897 232.912 400.626 232.139C401.354 231.367 401.923 230.454 402.299 229.456C402.663 228.425 402.887 227.349 402.964 226.257C403.12 225.315 403.05 224.348 402.759 223.439C402.257 222.406 401.413 221.586 400.373 221.122C399.969 220.888 399.523 220.735 399.061 220.673C398.384 220.677 397.715 220.83 397.102 221.122C395.823 221.573 394.626 222.233 393.557 223.076C392.515 224.008 391.798 225.258 391.513 226.638C391.472 226.814 391.366 226.967 391.217 227.067C391.068 227.167 390.888 227.205 390.712 227.174C390.536 227.136 390.382 227.03 390.283 226.877C390.184 226.725 390.148 226.54 390.184 226.361C390.529 224.685 391.402 223.168 392.671 222.039C393.845 221.085 395.17 220.343 396.591 219.843C397.402 219.464 398.288 219.281 399.181 219.307C399.816 219.377 400.43 219.577 400.987 219.895C402.323 220.504 403.395 221.586 404.003 222.938C404.383 224.048 404.483 225.237 404.293 226.396C404.204 227.612 403.952 228.81 403.543 229.957C402.628 232.275 400.854 234.137 398.601 235.144C397.412 235.686 396.123 235.969 394.818 235.973Z" fill="#231F20"/>
<path d="M436.072 436.522C435.889 436.521 435.712 436.455 435.572 436.335C435.432 436.215 435.337 436.048 435.306 435.865L412.165 292.525C412.148 292.424 412.151 292.32 412.173 292.22C412.196 292.12 412.238 292.026 412.296 291.942C412.355 291.859 412.429 291.788 412.515 291.733C412.601 291.679 412.696 291.642 412.796 291.626C412.897 291.606 413 291.607 413.101 291.628C413.201 291.65 413.297 291.692 413.381 291.751C413.465 291.811 413.537 291.887 413.591 291.976C413.646 292.064 413.682 292.162 413.699 292.265L436.839 435.606C436.856 435.708 436.853 435.813 436.829 435.914C436.806 436.015 436.762 436.11 436.702 436.194C436.642 436.278 436.565 436.348 436.478 436.402C436.39 436.455 436.293 436.49 436.192 436.505L436.072 436.522Z" fill="#231F20"/>
<path d="M366.191 402.135C366.079 402.158 365.963 402.158 365.851 402.135C356.939 398.09 344.142 401.185 344.005 401.202C343.898 401.23 343.786 401.237 343.676 401.221C343.566 401.205 343.461 401.166 343.365 401.108C343.27 401.051 343.187 400.974 343.122 400.883C343.056 400.792 343.009 400.689 342.983 400.579C342.955 400.468 342.949 400.352 342.966 400.239C342.983 400.125 343.021 400.016 343.08 399.918C343.139 399.82 343.216 399.734 343.308 399.667C343.399 399.599 343.503 399.551 343.613 399.525C344.159 399.387 357.109 396.257 366.549 400.562C366.755 400.657 366.915 400.83 366.995 401.043C367.074 401.257 367.067 401.495 366.975 401.703C366.895 401.84 366.78 401.953 366.642 402.029C366.504 402.105 366.348 402.142 366.191 402.135Z" fill="white"/>
<path d="M415.454 374.162C415.314 374.164 415.177 374.122 415.062 374.041L395.875 362.682C395.698 362.577 395.569 362.406 395.515 362.206C395.461 362.006 395.486 361.792 395.586 361.61C395.692 361.43 395.864 361.298 396.064 361.243C396.264 361.189 396.477 361.215 396.659 361.316L415.931 372.675C416.109 372.783 416.239 372.957 416.293 373.16C416.347 373.363 416.321 373.58 416.221 373.764C416.142 373.896 416.029 374.003 415.893 374.074C415.758 374.144 415.606 374.174 415.454 374.162Z" fill="#231F20"/>
<path d="M353.088 367.333C352.97 367.337 352.853 367.312 352.746 367.261C352.64 367.21 352.547 367.134 352.474 367.039C352.409 366.959 352.361 366.867 352.332 366.767C352.303 366.668 352.293 366.564 352.304 366.461C352.315 366.358 352.347 366.258 352.396 366.167C352.446 366.077 352.513 365.997 352.594 365.933L364.113 356.528C364.189 356.444 364.283 356.379 364.387 356.335C364.491 356.292 364.603 356.271 364.715 356.275C364.827 356.28 364.937 356.308 365.038 356.36C365.138 356.411 365.227 356.483 365.297 356.572C365.368 356.661 365.418 356.765 365.446 356.875C365.473 356.986 365.477 357.101 365.457 357.213C365.437 357.325 365.393 357.432 365.329 357.525C365.264 357.619 365.181 357.697 365.084 357.755L353.565 367.16C353.432 367.275 353.262 367.337 353.088 367.333Z" fill="#231F20"/>
<path d="M212.644 526.631C216.286 523.322 220.406 520.599 224.862 518.558C225.237 531.818 219.937 544.007 215.03 552.357H199.097" fill="white"/>
<path d="M215.03 553.256H199.097C198.981 553.256 198.866 553.233 198.758 553.188C198.651 553.142 198.553 553.076 198.471 552.993C198.388 552.909 198.323 552.81 198.279 552.701C198.234 552.592 198.211 552.475 198.211 552.357C198.211 552.239 198.234 552.122 198.279 552.013C198.323 551.904 198.388 551.805 198.471 551.721C198.553 551.638 198.651 551.572 198.758 551.526C198.866 551.481 198.981 551.458 199.097 551.458H214.535C218.949 543.834 223.993 532.44 224.01 519.941C220.11 521.903 216.483 524.379 213.223 527.306C213.06 527.47 212.84 527.563 212.61 527.563C212.38 527.563 212.159 527.47 211.996 527.306C211.833 527.137 211.742 526.911 211.742 526.675C211.742 526.439 211.833 526.212 211.996 526.044C215.705 522.651 219.913 519.869 224.47 517.797C224.601 517.744 224.743 517.725 224.883 517.739C225.023 517.753 225.158 517.801 225.276 517.879C225.395 517.957 225.493 518.062 225.563 518.186C225.633 518.31 225.673 518.449 225.68 518.592C226.054 532.268 220.465 544.785 215.711 552.876C215.635 552.988 215.533 553.082 215.415 553.148C215.296 553.214 215.165 553.251 215.03 553.256Z" fill="#231F20"/>
<path d="M189.81 530.21C193.73 509.463 209.73 496.428 209.73 496.428C212.717 506.19 213.708 516.467 212.644 526.631C211.814 535.396 209.967 544.031 207.14 552.357H189.981" fill="white"/>
<path d="M207.14 553.256H189.981C189.865 553.256 189.751 553.233 189.644 553.187C189.538 553.142 189.441 553.075 189.36 552.992C189.279 552.908 189.216 552.809 189.173 552.7C189.13 552.591 189.109 552.474 189.112 552.357C189.112 552.121 189.203 551.895 189.365 551.727C189.528 551.559 189.749 551.462 189.981 551.458H206.51C209.198 543.391 210.965 535.038 211.775 526.562C212.773 516.969 211.934 507.271 209.304 498.001C205.794 501.217 193.968 513.181 190.662 530.366C190.648 530.485 190.609 530.601 190.549 530.704C190.488 530.808 190.408 530.899 190.312 530.97C190.216 531.041 190.106 531.091 189.99 531.117C189.874 531.144 189.754 531.146 189.638 531.123C189.521 531.101 189.41 531.054 189.312 530.986C189.213 530.919 189.13 530.831 189.066 530.729C189.002 530.628 188.96 530.514 188.941 530.395C188.923 530.276 188.929 530.154 188.958 530.037C192.895 509.291 209.048 495.875 209.202 495.736C209.312 495.644 209.443 495.582 209.583 495.555C209.723 495.528 209.867 495.537 210.003 495.581C210.138 495.621 210.261 495.694 210.362 495.794C210.463 495.893 210.538 496.016 210.582 496.151C213.618 506.028 214.627 516.43 213.547 526.718C212.706 535.555 210.836 544.26 207.975 552.651C207.919 552.83 207.808 552.986 207.657 553.095C207.507 553.204 207.325 553.261 207.14 553.256Z" fill="#231F20"/>
<path d="M181.342 552.357H196.524C196.661 547.793 195.638 540.894 190.765 531.939C190.441 531.334 190.117 530.763 189.793 530.21C181.001 515.1 172.958 515.273 172.958 515.273C169.567 531.161 176.741 545.338 181.342 552.357Z" fill="white"/>
<path d="M196.524 553.256H181.341C181.196 553.257 181.053 553.221 180.925 553.152C180.797 553.082 180.688 552.981 180.609 552.858C175.94 545.718 168.681 531.317 172.089 515.082C172.125 514.884 172.228 514.704 172.38 514.575C172.533 514.446 172.725 514.374 172.924 514.374C173.316 514.374 181.58 514.374 190.543 529.761C190.867 530.331 191.191 530.902 191.514 531.489C196.626 540.86 197.512 548.017 197.376 552.374C197.372 552.604 197.281 552.823 197.123 552.987C196.964 553.151 196.75 553.247 196.524 553.256ZM181.819 551.527H195.655C195.655 547.326 194.582 540.825 189.998 532.509L189.044 530.781C182.074 518.817 175.701 516.725 173.708 516.362C170.777 531.213 177.371 544.56 181.819 551.475V551.527Z" fill="#231F20"/>
<path d="M184.102 576.786H213.871L218.676 552.375H179.314L184.102 576.786Z" fill="#231F20"/>
</svg>
