<svg width="139" height="131" viewBox="0 0 139 131" fill="none" xmlns="http://www.w3.org/2000/svg">
<g clip-path="url(#clip0)">
<path d="M135.181 54.7781L119.08 51.0578C118.193 48.4004 117.065 45.819 115.694 43.3135L123.919 30.4063C124.886 28.8878 124.644 26.9897 123.354 25.7749L111.904 14.9936C110.614 13.7788 108.598 13.5511 106.985 14.4622L93.2769 22.2065C90.6159 20.9157 87.8743 19.8528 85.052 19.0176L81.1815 3.85803C80.6977 2.18769 79.085 0.9729 77.2304 0.9729H61.1032C59.2485 0.9729 57.6358 2.18769 57.152 3.85803L53.2815 19.0176C50.4592 19.8528 47.7176 20.9157 45.0566 22.2065L31.3485 14.4622C29.7358 13.5511 27.7199 13.7788 26.4297 14.9936L14.9794 25.7749C13.6892 26.9897 13.4473 28.8878 14.4149 30.4063L22.6398 43.3135C21.269 45.819 20.1401 48.4004 19.2531 51.0578L3.69033 54.7781C1.91634 55.1577 0.62616 56.6762 0.62616 58.4225V73.6074C0.62616 75.3536 1.91634 76.8721 3.69033 77.2518L19.2531 80.9721C20.1401 83.6294 21.269 86.2109 22.6398 88.7164L14.4149 101.624C13.4473 103.142 13.6892 105.04 14.9794 106.255L26.4297 117.036C27.7199 118.251 29.7358 118.479 31.3485 117.568L45.0566 109.823C47.7176 111.114 50.4592 112.177 53.2815 113.012L57.152 127.666C57.6358 129.336 59.2485 130.551 61.1032 130.551H77.2304C79.085 130.551 80.6977 129.336 81.1815 127.666L85.052 113.012C87.8743 112.177 90.6159 111.114 93.2769 109.823L106.985 117.568C108.598 118.479 110.614 118.251 111.904 117.036L123.354 106.255C124.644 105.04 124.886 103.142 123.919 101.624L115.694 88.7164C117.065 86.2109 118.193 83.6294 119.08 80.9721L135.181 77.2518C136.955 76.8721 138.245 75.3536 138.245 73.6074V58.4225C138.245 56.6762 136.955 55.1577 135.181 54.7781ZM69.1668 84.9961C58.039 84.9961 49.0078 76.4925 49.0078 66.0149C49.0078 55.5373 58.039 47.0338 69.1668 47.0338C80.2945 47.0338 89.3258 55.5373 89.3258 66.0149C89.3258 76.4925 80.2945 84.9961 69.1668 84.9961Z" fill="#8B8BAE"/>
</g>
<defs>
<clipPath id="clip0">
<rect x="0.62616" y="0.9729" width="137.619" height="129.578" rx="25" fill="white"/>
</clipPath>
</defs>
</svg>
