<svg width="191" height="181" viewBox="0 0 191 181" fill="none" xmlns="http://www.w3.org/2000/svg">
<g clip-path="url(#clip0)">
<path d="M4.09495 35.9432H22.7033V166.511C22.7033 174.253 29.3814 180.551 37.5899 180.551H97.5087C99.5638 180.551 101.23 178.979 101.23 177.041C101.23 175.102 99.5638 173.531 97.5087 173.531H50.4735C51.7445 171.464 52.4762 169.067 52.4762 166.511V159.491H173.802V166.511C173.802 170.382 170.463 173.531 166.359 173.531H131.003C128.948 173.531 127.282 175.102 127.282 177.041C127.282 178.979 128.948 180.551 131.003 180.551H166.359C174.568 180.551 181.246 174.253 181.246 166.511V155.982C181.246 154.043 179.579 152.472 177.524 152.472H158.916V67.1321C178.566 43.1223 190.065 20.8696 190.551 19.9219C191.562 17.9497 190.41 15.5528 188.134 14.9961C188.13 14.9951 188.11 14.9902 188.105 14.9891C186.73 14.6346 173.967 11.4827 157.664 12.058C154.933 5.41342 148.074 0.844238 140.308 0.844238H15.2599C7.05144 0.844238 0.373291 7.14239 0.373291 14.8838V32.4333C0.373291 34.3718 2.03948 35.9432 4.09495 35.9432ZM144.919 72.2744C143.168 74.2108 141.309 76.1525 139.377 78.0619H117.977C116.687 78.0619 115.489 78.6919 114.811 79.7266C114.133 80.7614 114.072 82.0537 114.649 83.1418L120.503 94.1811C109.782 102.177 99.7521 108.025 93.6355 111.335C96.1242 94.3422 103.234 78.1303 114.431 64.0223H140.728C142.783 64.0223 144.449 62.4509 144.449 60.5124C144.449 58.5739 142.783 57.0025 140.728 57.0025H120.504C125.336 51.8742 130.696 47.1734 136.509 42.963H156.358C158.413 42.963 160.08 41.3916 160.08 39.4531C160.08 37.5146 158.413 35.9432 156.358 35.9432H147.43C157.643 30.1561 168.765 25.8719 180.291 23.2904C171.125 39.1839 158.814 56.892 144.919 72.2744ZM92.0758 88.2989C93.1911 71.1965 97.5931 50.3232 110.976 36.9754L108.034 60.094C108.021 60.1969 108.016 60.2994 108.012 60.4022C101.236 69.0555 95.8853 78.442 92.0758 88.2989ZM116.757 50.4587L119.33 30.2382C124.926 26.556 131.309 23.7554 138.383 21.8706L130.333 37.9547C130.192 38.2355 130.095 38.5289 130.038 38.8269C125.301 42.4014 120.863 46.2903 116.757 50.4587ZM161.616 19.0076C163.953 19.0076 166.194 19.0841 168.304 19.2115C159.172 22.0721 150.384 25.9551 142.168 30.7541L147.55 20.0023C152.149 19.333 156.732 19.0076 161.616 19.0076ZM140.308 7.86403C144.163 7.86403 147.645 9.74041 149.661 12.6445C133.967 14.4054 119.474 19.7938 107.999 29.864C92.6076 43.3729 86.6068 64.7843 84.8706 84.6401C83.4021 101.436 85.1148 115.24 85.4553 117.724L84.7389 127.2H41.3116C39.2561 127.2 37.5899 128.772 37.5899 130.71C37.5899 132.649 39.2561 134.22 41.3116 134.22H103.091C105.146 134.22 106.813 132.649 106.813 130.71C106.813 128.772 105.146 127.2 103.091 127.2H92.2008L92.7583 119.827C97.8038 117.302 112.054 109.757 127.526 97.8651C128.877 96.8268 129.283 95.0438 128.504 93.5742L124 85.0817H140.959C141.963 85.0817 142.925 84.6988 143.625 84.0203C146.06 81.6623 148.4 79.243 150.584 76.8282C150.881 76.4993 151.176 76.1644 151.472 75.8331V152.472H48.7545C46.699 152.472 45.0329 154.043 45.0329 155.982V166.511C45.0329 170.382 41.6938 173.531 37.5895 173.531C33.4853 173.531 30.1462 170.382 30.1462 166.511C30.1462 158.444 30.1462 23.4648 30.1462 14.8838C30.1462 12.3276 29.4145 9.93065 28.1436 7.86403H140.308ZM7.81661 14.8838C7.81661 11.0131 11.1557 7.86403 15.2599 7.86403C19.3642 7.86403 22.7033 11.0131 22.7033 14.8838V28.9234H7.81661V14.8838Z" fill="#8B8BAE"/>
<path d="M41.3108 120.181H73.3171C75.3725 120.181 77.0387 118.609 77.0387 116.671C77.0387 114.732 75.3725 113.161 73.3171 113.161H41.3108C39.2553 113.161 37.5891 114.732 37.5891 116.671C37.5891 118.609 39.2553 120.181 41.3108 120.181Z" fill="#8B8BAE"/>
<path d="M61.0356 64.0223C73.3483 64.0223 83.3656 54.5751 83.3656 42.9629C83.3656 31.3508 73.3483 21.9036 61.0356 21.9036C48.7229 21.9036 38.7056 31.3508 38.7056 42.9629C38.7056 54.5751 48.7229 64.0223 61.0356 64.0223ZM61.0356 28.9234C69.2441 28.9234 75.9222 35.2215 75.9222 42.9629C75.9222 50.7043 69.2441 57.0025 61.0356 57.0025C52.8271 57.0025 46.1489 50.7043 46.1489 42.9629C46.1489 35.2215 52.8271 28.9234 61.0356 28.9234Z" fill="#8B8BAE"/>
<path d="M114.255 180.551C116.311 180.551 117.977 178.979 117.977 177.041C117.977 175.102 116.311 173.531 114.255 173.531C112.2 173.531 110.534 175.102 110.534 177.041C110.534 178.979 112.2 180.551 114.255 180.551Z" fill="#8B8BAE"/>
</g>
<defs>
<clipPath id="clip0">
<rect x="0.371399" y="0.844238" width="190.549" height="179.707" rx="25" fill="white"/>
</clipPath>
</defs>
</svg>
